<?xml version="1.0" encoding="UTF-8" standalone="no"?>
<!DOCTYPE svg PUBLIC "-//W3C//DTD SVG 1.1//EN"
 "http://www.w3.org/Graphics/SVG/1.1/DTD/svg11.dtd">
<!-- Generated by graphviz version 5.0.0 (20220707.1540)
 -->
<!-- Title: dependencies Pages: 1 -->
<svg width="5683pt" height="247pt"
 viewBox="0.00 0.00 5683.00 246.80" xmlns="http://www.w3.org/2000/svg" xmlns:xlink="http://www.w3.org/1999/xlink">
<g id="graph0" class="graph" transform="scale(1 1) rotate(0) translate(4 242.8)">
<title>dependencies</title>
<polygon fill="white" stroke="transparent" points="-4,4 -4,-242.8 5679,-242.8 5679,4 -4,4"/>
<text text-anchor="middle" x="2837.5" y="-8.2" font-family="sans-serif" font-size="14.00">dependencies</text>
<g id="clust1" class="cluster">
<title>cluster_AppModule</title>
<polygon fill="none" stroke="black" stroke-dasharray="1,5" points="8,-32.8 8,-230.8 5667,-230.8 5667,-32.8 8,-32.8"/>
</g>
<g id="clust2" class="cluster">
<title>cluster_AppModule_declarations</title>
<polygon fill="none" stroke="black" points="688,-40.8 688,-92.8 5659,-92.8 5659,-40.8 688,-40.8"/>
</g>
<g id="clust29" class="cluster">
<title>cluster_AppModule_imports</title>
<polygon fill="none" stroke="black" points="536,-40.8 536,-92.8 680,-92.8 680,-40.8 536,-40.8"/>
</g>
<g id="clust31" class="cluster">
<title>cluster_AppModule_bootstrap</title>
<polygon fill="none" stroke="black" points="2644,-170.8 2644,-222.8 2768,-222.8 2768,-170.8 2644,-170.8"/>
</g>
<g id="clust32" class="cluster">
<title>cluster_AppModule_providers</title>
<polygon fill="none" stroke="black" points="16,-40.8 16,-92.8 528,-92.8 528,-40.8 16,-40.8"/>
</g>
<!-- AppComponent -->
<g id="node1" class="node">
<title>AppComponent</title>
<polygon fill="#ffffb3" stroke="black" points="5650.94,-84.8 5545.06,-84.8 5545.06,-48.8 5650.94,-48.8 5650.94,-84.8"/>
<text text-anchor="middle" x="5598" y="-62.6" font-family="Times,serif" font-size="14.00">AppComponent</text>
</g>
<!-- AppModule -->
<g id="node27" class="node">
<title>AppModule</title>
<polygon fill="#8dd3c7" stroke="black" points="2747.66,-149.8 2744.66,-153.8 2723.66,-153.8 2720.66,-149.8 2664.34,-149.8 2664.34,-113.8 2747.66,-113.8 2747.66,-149.8"/>
<text text-anchor="middle" x="2706" y="-127.6" font-family="Times,serif" font-size="14.00">AppModule</text>
</g>
<!-- AppComponent&#45;&gt;AppModule -->
<g id="edge1" class="edge">
<title>AppComponent&#45;&gt;AppModule</title>
<path fill="none" stroke="black" d="M5598,-85.18C5598,-109.08 5598,-147.8 5598,-147.8 5598,-147.8 2757.72,-147.8 2757.72,-147.8"/>
<polygon fill="black" stroke="black" points="2757.72,-144.3 2747.72,-147.8 2757.72,-151.3 2757.72,-144.3"/>
</g>
<!-- BarDiagramBothComponent -->
<g id="node2" class="node">
<title>BarDiagramBothComponent</title>
<polygon fill="#ffffb3" stroke="black" points="5526.75,-84.8 5349.25,-84.8 5349.25,-48.8 5526.75,-48.8 5526.75,-84.8"/>
<text text-anchor="middle" x="5438" y="-62.6" font-family="Times,serif" font-size="14.00">BarDiagramBothComponent</text>
</g>
<!-- BarDiagramBothComponent&#45;&gt;AppModule -->
<g id="edge2" class="edge">
<title>BarDiagramBothComponent&#45;&gt;AppModule</title>
<path fill="none" stroke="black" d="M5438,-85.12C5438,-108.46 5438,-145.8 5438,-145.8 5438,-145.8 2757.82,-145.8 2757.82,-145.8"/>
<polygon fill="black" stroke="black" points="2757.82,-142.3 2747.82,-145.8 2757.82,-149.3 2757.82,-142.3"/>
</g>
<!-- BarDiagramCompareComponent -->
<g id="node3" class="node">
<title>BarDiagramCompareComponent</title>
<polygon fill="#ffffb3" stroke="black" points="5330.84,-84.8 5129.16,-84.8 5129.16,-48.8 5330.84,-48.8 5330.84,-84.8"/>
<text text-anchor="middle" x="5230" y="-62.6" font-family="Times,serif" font-size="14.00">BarDiagramCompareComponent</text>
</g>
<!-- BarDiagramCompareComponent&#45;&gt;AppModule -->
<g id="edge3" class="edge">
<title>BarDiagramCompareComponent&#45;&gt;AppModule</title>
<path fill="none" stroke="black" d="M5230,-84.81C5230,-107.29 5230,-142.8 5230,-142.8 5230,-142.8 2757.7,-142.8 2757.7,-142.8"/>
<polygon fill="black" stroke="black" points="2757.7,-139.3 2747.7,-142.8 2757.7,-146.3 2757.7,-139.3"/>
</g>
<!-- BarDiagramComponent -->
<g id="node4" class="node">
<title>BarDiagramComponent</title>
<polygon fill="#ffffb3" stroke="black" points="5111.03,-84.8 4960.97,-84.8 4960.97,-48.8 5111.03,-48.8 5111.03,-84.8"/>
<text text-anchor="middle" x="5036" y="-62.6" font-family="Times,serif" font-size="14.00">BarDiagramComponent</text>
</g>
<!-- BarDiagramComponent&#45;&gt;AppModule -->
<g id="edge4" class="edge">
<title>BarDiagramComponent&#45;&gt;AppModule</title>
<path fill="none" stroke="black" d="M5036,-85.09C5036,-107.01 5036,-140.8 5036,-140.8 5036,-140.8 2757.93,-140.8 2757.93,-140.8"/>
<polygon fill="black" stroke="black" points="2757.93,-137.3 2747.93,-140.8 2757.93,-144.3 2757.93,-137.3"/>
</g>
<!-- CalculationDiagramCompareComponent -->
<g id="node5" class="node">
<title>CalculationDiagramCompareComponent</title>
<polygon fill="#ffffb3" stroke="black" points="4943.17,-84.8 4696.83,-84.8 4696.83,-48.8 4943.17,-48.8 4943.17,-84.8"/>
<text text-anchor="middle" x="4820" y="-62.6" font-family="Times,serif" font-size="14.00">CalculationDiagramCompareComponent</text>
</g>
<!-- CalculationDiagramCompareComponent&#45;&gt;AppModule -->
<g id="edge5" class="edge">
<title>CalculationDiagramCompareComponent&#45;&gt;AppModule</title>
<path fill="none" stroke="black" d="M4820,-85.08C4820,-106.12 4820,-137.8 4820,-137.8 4820,-137.8 2757.75,-137.8 2757.75,-137.8"/>
<polygon fill="black" stroke="black" points="2757.75,-134.3 2747.75,-137.8 2757.75,-141.3 2757.75,-134.3"/>
</g>
<!-- CalculationDiagramComponent -->
<g id="node6" class="node">
<title>CalculationDiagramComponent</title>
<polygon fill="#ffffb3" stroke="black" points="4678.35,-84.8 4483.65,-84.8 4483.65,-48.8 4678.35,-48.8 4678.35,-84.8"/>
<text text-anchor="middle" x="4581" y="-62.6" font-family="Times,serif" font-size="14.00">CalculationDiagramComponent</text>
</g>
<!-- CalculationDiagramComponent&#45;&gt;AppModule -->
<g id="edge6" class="edge">
<title>CalculationDiagramComponent&#45;&gt;AppModule</title>
<path fill="none" stroke="black" d="M4581,-84.93C4581,-105.37 4581,-135.8 4581,-135.8 4581,-135.8 2757.79,-135.8 2757.79,-135.8"/>
<polygon fill="black" stroke="black" points="2757.79,-132.3 2747.79,-135.8 2757.79,-139.3 2757.79,-132.3"/>
</g>
<!-- CalculationListComponent -->
<g id="node7" class="node">
<title>CalculationListComponent</title>
<polygon fill="#ffffb3" stroke="black" points="4465.65,-84.8 4298.35,-84.8 4298.35,-48.8 4465.65,-48.8 4465.65,-84.8"/>
<text text-anchor="middle" x="4382" y="-62.6" font-family="Times,serif" font-size="14.00">CalculationListComponent</text>
</g>
<!-- CalculationListComponent&#45;&gt;AppModule -->
<g id="edge7" class="edge">
<title>CalculationListComponent&#45;&gt;AppModule</title>
<path fill="none" stroke="black" d="M4382,-85.11C4382,-104.95 4382,-133.8 4382,-133.8 4382,-133.8 2757.85,-133.8 2757.85,-133.8"/>
<polygon fill="black" stroke="black" points="2757.85,-130.3 2747.85,-133.8 2757.85,-137.3 2757.85,-130.3"/>
</g>
<!-- CalculationSelectCompareComponent -->
<g id="node8" class="node">
<title>CalculationSelectCompareComponent</title>
<polygon fill="#ffffb3" stroke="black" points="4279.89,-84.8 4048.11,-84.8 4048.11,-48.8 4279.89,-48.8 4279.89,-84.8"/>
<text text-anchor="middle" x="4164" y="-62.6" font-family="Times,serif" font-size="14.00">CalculationSelectCompareComponent</text>
</g>
<!-- CalculationSelectCompareComponent&#45;&gt;AppModule -->
<g id="edge8" class="edge">
<title>CalculationSelectCompareComponent&#45;&gt;AppModule</title>
<path fill="none" stroke="black" d="M4164,-84.97C4164,-103.89 4164,-130.8 4164,-130.8 4164,-130.8 2757.67,-130.8 2757.67,-130.8"/>
<polygon fill="black" stroke="black" points="2757.67,-127.3 2747.67,-130.8 2757.67,-134.3 2757.67,-127.3"/>
</g>
<!-- CreateCalculationComponent -->
<g id="node9" class="node">
<title>CreateCalculationComponent</title>
<polygon fill="#ffffb3" stroke="black" points="4030.4,-84.8 3847.6,-84.8 3847.6,-48.8 4030.4,-48.8 4030.4,-84.8"/>
<text text-anchor="middle" x="3939" y="-62.6" font-family="Times,serif" font-size="14.00">CreateCalculationComponent</text>
</g>
<!-- CreateCalculationComponent&#45;&gt;AppModule -->
<g id="edge9" class="edge">
<title>CreateCalculationComponent&#45;&gt;AppModule</title>
<path fill="none" stroke="black" d="M3939,-85.07C3939,-103.36 3939,-128.8 3939,-128.8 3939,-128.8 2757.73,-128.8 2757.73,-128.8"/>
<polygon fill="black" stroke="black" points="2757.73,-125.3 2747.73,-128.8 2757.73,-132.3 2757.73,-125.3"/>
</g>
<!-- CreateModuleComponent -->
<g id="node10" class="node">
<title>CreateModuleComponent</title>
<polygon fill="#ffffb3" stroke="black" points="3829.91,-84.8 3668.09,-84.8 3668.09,-48.8 3829.91,-48.8 3829.91,-84.8"/>
<text text-anchor="middle" x="3749" y="-62.6" font-family="Times,serif" font-size="14.00">CreateModuleComponent</text>
</g>
<!-- CreateModuleComponent&#45;&gt;AppModule -->
<g id="edge10" class="edge">
<title>CreateModuleComponent&#45;&gt;AppModule</title>
<path fill="none" stroke="black" d="M3749,-84.82C3749,-102.17 3749,-125.8 3749,-125.8 3749,-125.8 2757.85,-125.8 2757.85,-125.8"/>
<polygon fill="black" stroke="black" points="2757.85,-122.3 2747.85,-125.8 2757.85,-129.3 2757.85,-122.3"/>
</g>
<!-- CreateTypeComponent -->
<g id="node11" class="node">
<title>CreateTypeComponent</title>
<polygon fill="#ffffb3" stroke="black" points="3650.13,-84.8 3503.87,-84.8 3503.87,-48.8 3650.13,-48.8 3650.13,-84.8"/>
<text text-anchor="middle" x="3577" y="-62.6" font-family="Times,serif" font-size="14.00">CreateTypeComponent</text>
</g>
<!-- CreateTypeComponent&#45;&gt;AppModule -->
<g id="edge11" class="edge">
<title>CreateTypeComponent&#45;&gt;AppModule</title>
<path fill="none" stroke="black" d="M3577,-84.84C3577,-101.53 3577,-123.8 3577,-123.8 3577,-123.8 2757.72,-123.8 2757.72,-123.8"/>
<polygon fill="black" stroke="black" points="2757.72,-120.3 2747.72,-123.8 2757.72,-127.3 2757.72,-120.3"/>
</g>
<!-- DiagramCompareDialogComponent -->
<g id="node12" class="node">
<title>DiagramCompareDialogComponent</title>
<polygon fill="#ffffb3" stroke="black" points="3485.73,-84.8 3266.27,-84.8 3266.27,-48.8 3485.73,-48.8 3485.73,-84.8"/>
<text text-anchor="middle" x="3376" y="-62.6" font-family="Times,serif" font-size="14.00">DiagramCompareDialogComponent</text>
</g>
<!-- DiagramCompareDialogComponent&#45;&gt;AppModule -->
<g id="edge12" class="edge">
<title>DiagramCompareDialogComponent&#45;&gt;AppModule</title>
<path fill="none" stroke="black" d="M3376,-84.81C3376,-100.85 3376,-121.8 3376,-121.8 3376,-121.8 2757.91,-121.8 2757.91,-121.8"/>
<polygon fill="black" stroke="black" points="2757.91,-118.3 2747.91,-121.8 2757.91,-125.3 2757.91,-118.3"/>
</g>
<!-- DiagramDialogComponent -->
<g id="node13" class="node">
<title>DiagramDialogComponent</title>
<polygon fill="#ffffb3" stroke="black" points="3248.41,-84.8 3079.59,-84.8 3079.59,-48.8 3248.41,-48.8 3248.41,-84.8"/>
<text text-anchor="middle" x="3164" y="-62.6" font-family="Times,serif" font-size="14.00">DiagramDialogComponent</text>
</g>
<!-- DiagramDialogComponent&#45;&gt;AppModule -->
<g id="edge13" class="edge">
<title>DiagramDialogComponent&#45;&gt;AppModule</title>
<path fill="none" stroke="black" d="M3164,-84.99C3164,-99.98 3164,-118.8 3164,-118.8 3164,-118.8 2757.86,-118.8 2757.86,-118.8"/>
<polygon fill="black" stroke="black" points="2757.86,-115.3 2747.86,-118.8 2757.86,-122.3 2757.86,-115.3"/>
</g>
<!-- EmissionItemComponent -->
<g id="node14" class="node">
<title>EmissionItemComponent</title>
<polygon fill="#ffffb3" stroke="black" points="3061.6,-84.8 2902.4,-84.8 2902.4,-48.8 3061.6,-48.8 3061.6,-84.8"/>
<text text-anchor="middle" x="2982" y="-62.6" font-family="Times,serif" font-size="14.00">EmissionItemComponent</text>
</g>
<!-- EmissionItemComponent&#45;&gt;AppModule -->
<g id="edge14" class="edge">
<title>EmissionItemComponent&#45;&gt;AppModule</title>
<path fill="none" stroke="black" d="M2982,-84.85C2982,-99.17 2982,-116.8 2982,-116.8 2982,-116.8 2757.92,-116.8 2757.92,-116.8"/>
<polygon fill="black" stroke="black" points="2757.92,-113.3 2747.92,-116.8 2757.92,-120.3 2757.92,-113.3"/>
</g>
<!-- EmissionListComponent -->
<g id="node15" class="node">
<title>EmissionListComponent</title>
<polygon fill="#ffffb3" stroke="black" points="2884.73,-84.8 2729.27,-84.8 2729.27,-48.8 2884.73,-48.8 2884.73,-84.8"/>
<text text-anchor="middle" x="2807" y="-62.6" font-family="Times,serif" font-size="14.00">EmissionListComponent</text>
</g>
<!-- EmissionListComponent&#45;&gt;AppModule -->
<g id="edge15" class="edge">
<title>EmissionListComponent&#45;&gt;AppModule</title>
<path fill="none" stroke="black" d="M2738.61,-84.91C2738.61,-84.91 2738.61,-103.79 2738.61,-103.79"/>
<polygon fill="black" stroke="black" points="2735.11,-103.79 2738.61,-113.79 2742.11,-103.79 2735.11,-103.79"/>
</g>
<!-- FactorEmissionModuleComponent -->
<g id="node16" class="node">
<title>FactorEmissionModuleComponent</title>
<polygon fill="#ffffb3" stroke="black" points="2711.27,-84.8 2498.73,-84.8 2498.73,-48.8 2711.27,-48.8 2711.27,-84.8"/>
<text text-anchor="middle" x="2605" y="-62.6" font-family="Times,serif" font-size="14.00">FactorEmissionModuleComponent</text>
</g>
<!-- FactorEmissionModuleComponent&#45;&gt;AppModule -->
<g id="edge16" class="edge">
<title>FactorEmissionModuleComponent&#45;&gt;AppModule</title>
<path fill="none" stroke="black" d="M2687.78,-84.91C2687.78,-84.91 2687.78,-103.79 2687.78,-103.79"/>
<polygon fill="black" stroke="black" points="2684.28,-103.79 2687.78,-113.79 2691.28,-103.79 2684.28,-103.79"/>
</g>
<!-- FileUploadComponent -->
<g id="node17" class="node">
<title>FileUploadComponent</title>
<polygon fill="#ffffb3" stroke="black" points="2480.32,-84.8 2335.68,-84.8 2335.68,-48.8 2480.32,-48.8 2480.32,-84.8"/>
<text text-anchor="middle" x="2408" y="-62.6" font-family="Times,serif" font-size="14.00">FileUploadComponent</text>
</g>
<!-- FileUploadComponent&#45;&gt;AppModule -->
<g id="edge17" class="edge">
<title>FileUploadComponent&#45;&gt;AppModule</title>
<path fill="none" stroke="black" d="M2408,-84.85C2408,-99.17 2408,-116.8 2408,-116.8 2408,-116.8 2654.25,-116.8 2654.25,-116.8"/>
<polygon fill="black" stroke="black" points="2654.25,-120.3 2664.25,-116.8 2654.25,-113.3 2654.25,-120.3"/>
</g>
<!-- ImportFileDialogComponent -->
<g id="node18" class="node">
<title>ImportFileDialogComponent</title>
<polygon fill="#ffffb3" stroke="black" points="2317.82,-84.8 2138.18,-84.8 2138.18,-48.8 2317.82,-48.8 2317.82,-84.8"/>
<text text-anchor="middle" x="2228" y="-62.6" font-family="Times,serif" font-size="14.00">ImportFileDialogComponent</text>
</g>
<!-- ImportFileDialogComponent&#45;&gt;AppModule -->
<g id="edge18" class="edge">
<title>ImportFileDialogComponent&#45;&gt;AppModule</title>
<path fill="none" stroke="black" d="M2228,-84.99C2228,-99.98 2228,-118.8 2228,-118.8 2228,-118.8 2654,-118.8 2654,-118.8"/>
<polygon fill="black" stroke="black" points="2654,-122.3 2664,-118.8 2654,-115.3 2654,-122.3"/>
</g>
<!-- KonamiDialogComponent -->
<g id="node19" class="node">
<title>KonamiDialogComponent</title>
<polygon fill="#ffffb3" stroke="black" points="2120.04,-84.8 1955.96,-84.8 1955.96,-48.8 2120.04,-48.8 2120.04,-84.8"/>
<text text-anchor="middle" x="2038" y="-62.6" font-family="Times,serif" font-size="14.00">KonamiDialogComponent</text>
</g>
<!-- KonamiDialogComponent&#45;&gt;AppModule -->
<g id="edge19" class="edge">
<title>KonamiDialogComponent&#45;&gt;AppModule</title>
<path fill="none" stroke="black" d="M2038,-84.81C2038,-100.85 2038,-121.8 2038,-121.8 2038,-121.8 2654.21,-121.8 2654.21,-121.8"/>
<polygon fill="black" stroke="black" points="2654.21,-125.3 2664.21,-121.8 2654.21,-118.3 2654.21,-125.3"/>
</g>
<!-- NavigationComponent -->
<g id="node20" class="node">
<title>NavigationComponent</title>
<polygon fill="#ffffb3" stroke="black" points="1937.54,-84.8 1794.46,-84.8 1794.46,-48.8 1937.54,-48.8 1937.54,-84.8"/>
<text text-anchor="middle" x="1866" y="-62.6" font-family="Times,serif" font-size="14.00">NavigationComponent</text>
</g>
<!-- NavigationComponent&#45;&gt;AppModule -->
<g id="edge20" class="edge">
<title>NavigationComponent&#45;&gt;AppModule</title>
<path fill="none" stroke="black" d="M1866,-84.84C1866,-101.53 1866,-123.8 1866,-123.8 1866,-123.8 2654.06,-123.8 2654.06,-123.8"/>
<polygon fill="black" stroke="black" points="2654.06,-127.3 2664.06,-123.8 2654.06,-120.3 2654.06,-127.3"/>
</g>
<!-- PieDiagramComponent -->
<g id="node21" class="node">
<title>PieDiagramComponent</title>
<polygon fill="#ffffb3" stroke="black" points="1776.2,-84.8 1627.8,-84.8 1627.8,-48.8 1776.2,-48.8 1776.2,-84.8"/>
<text text-anchor="middle" x="1702" y="-62.6" font-family="Times,serif" font-size="14.00">PieDiagramComponent</text>
</g>
<!-- PieDiagramComponent&#45;&gt;AppModule -->
<g id="edge21" class="edge">
<title>PieDiagramComponent&#45;&gt;AppModule</title>
<path fill="none" stroke="black" d="M1702,-84.82C1702,-102.17 1702,-125.8 1702,-125.8 1702,-125.8 2654.14,-125.8 2654.14,-125.8"/>
<polygon fill="black" stroke="black" points="2654.14,-129.3 2664.14,-125.8 2654.14,-122.3 2654.14,-129.3"/>
</g>
<!-- SettingsComponent -->
<g id="node22" class="node">
<title>SettingsComponent</title>
<polygon fill="#ffffb3" stroke="black" points="1610.45,-84.8 1483.55,-84.8 1483.55,-48.8 1610.45,-48.8 1610.45,-84.8"/>
<text text-anchor="middle" x="1547" y="-62.6" font-family="Times,serif" font-size="14.00">SettingsComponent</text>
</g>
<!-- SettingsComponent&#45;&gt;AppModule -->
<g id="edge22" class="edge">
<title>SettingsComponent&#45;&gt;AppModule</title>
<path fill="none" stroke="black" d="M1547,-85.07C1547,-103.36 1547,-128.8 1547,-128.8 1547,-128.8 2654.07,-128.8 2654.07,-128.8"/>
<polygon fill="black" stroke="black" points="2654.07,-132.3 2664.07,-128.8 2654.07,-125.3 2654.07,-132.3"/>
</g>
<!-- SpecificCalculationListComponent -->
<g id="node23" class="node">
<title>SpecificCalculationListComponent</title>
<polygon fill="#ffffb3" stroke="black" points="1465.52,-84.8 1252.48,-84.8 1252.48,-48.8 1465.52,-48.8 1465.52,-84.8"/>
<text text-anchor="middle" x="1359" y="-62.6" font-family="Times,serif" font-size="14.00">SpecificCalculationListComponent</text>
</g>
<!-- SpecificCalculationListComponent&#45;&gt;AppModule -->
<g id="edge23" class="edge">
<title>SpecificCalculationListComponent&#45;&gt;AppModule</title>
<path fill="none" stroke="black" d="M1359,-84.97C1359,-103.89 1359,-130.8 1359,-130.8 1359,-130.8 2654.21,-130.8 2654.21,-130.8"/>
<polygon fill="black" stroke="black" points="2654.21,-134.3 2664.21,-130.8 2654.21,-127.3 2654.21,-134.3"/>
</g>
<!-- TreeDiagramComponent -->
<g id="node24" class="node">
<title>TreeDiagramComponent</title>
<polygon fill="#ffffb3" stroke="black" points="1233.95,-84.8 1078.05,-84.8 1078.05,-48.8 1233.95,-48.8 1233.95,-84.8"/>
<text text-anchor="middle" x="1156" y="-62.6" font-family="Times,serif" font-size="14.00">TreeDiagramComponent</text>
</g>
<!-- TreeDiagramComponent&#45;&gt;AppModule -->
<g id="edge24" class="edge">
<title>TreeDiagramComponent&#45;&gt;AppModule</title>
<path fill="none" stroke="black" d="M1156,-85.11C1156,-104.95 1156,-133.8 1156,-133.8 1156,-133.8 2654.14,-133.8 2654.14,-133.8"/>
<polygon fill="black" stroke="black" points="2654.14,-137.3 2664.14,-133.8 2654.14,-130.3 2654.14,-137.3"/>
</g>
<!-- TypeEmissionModuleComponent -->
<g id="node25" class="node">
<title>TypeEmissionModuleComponent</title>
<polygon fill="#ffffb3" stroke="black" points="1059.77,-84.8 854.23,-84.8 854.23,-48.8 1059.77,-48.8 1059.77,-84.8"/>
<text text-anchor="middle" x="957" y="-62.6" font-family="Times,serif" font-size="14.00">TypeEmissionModuleComponent</text>
</g>
<!-- TypeEmissionModuleComponent&#45;&gt;AppModule -->
<g id="edge25" class="edge">
<title>TypeEmissionModuleComponent&#45;&gt;AppModule</title>
<path fill="none" stroke="black" d="M957,-84.93C957,-105.37 957,-135.8 957,-135.8 957,-135.8 2654.06,-135.8 2654.06,-135.8"/>
<polygon fill="black" stroke="black" points="2654.06,-139.3 2664.06,-135.8 2654.06,-132.3 2654.06,-139.3"/>
</g>
<!-- TypeInputComponent -->
<g id="node26" class="node">
<title>TypeInputComponent</title>
<polygon fill="#ffffb3" stroke="black" points="835.65,-84.8 696.35,-84.8 696.35,-48.8 835.65,-48.8 835.65,-84.8"/>
<text text-anchor="middle" x="766" y="-62.6" font-family="Times,serif" font-size="14.00">TypeInputComponent</text>
</g>
<!-- TypeInputComponent&#45;&gt;AppModule -->
<g id="edge26" class="edge">
<title>TypeInputComponent&#45;&gt;AppModule</title>
<path fill="none" stroke="black" d="M766,-85.08C766,-106.12 766,-137.8 766,-137.8 766,-137.8 2654.13,-137.8 2654.13,-137.8"/>
<polygon fill="black" stroke="black" points="2654.13,-141.3 2664.13,-137.8 2654.13,-134.3 2654.13,-141.3"/>
</g>
<!-- AppComponent  -->
<g id="node29" class="node">
<title>AppComponent </title>
<polygon fill="#80b1d3" stroke="black" points="2760.44,-214.8 2651.56,-214.8 2651.56,-178.8 2760.44,-178.8 2760.44,-214.8"/>
<text text-anchor="middle" x="2706" y="-192.6" font-family="Times,serif" font-size="14.00">AppComponent </text>
</g>
<!-- AppModule&#45;&gt;AppComponent  -->
<g id="edge28" class="edge">
<title>AppModule&#45;&gt;AppComponent </title>
<path fill="none" stroke="black" stroke-dasharray="1,5" d="M2706,-149.91C2706,-149.91 2706,-168.79 2706,-168.79"/>
<polygon fill="black" stroke="black" points="2702.5,-168.79 2706,-178.79 2709.5,-168.79 2702.5,-168.79"/>
</g>
<!-- AppRoutingModule -->
<g id="node28" class="node">
<title>AppRoutingModule</title>
<polygon fill="#8dd3c7" stroke="black" points="672.28,-84.8 669.28,-88.8 648.28,-88.8 645.28,-84.8 543.72,-84.8 543.72,-48.8 672.28,-48.8 672.28,-84.8"/>
<text text-anchor="middle" x="608" y="-62.6" font-family="Times,serif" font-size="14.00">AppRoutingModule</text>
</g>
<!-- AppRoutingModule&#45;&gt;AppModule -->
<g id="edge27" class="edge">
<title>AppRoutingModule&#45;&gt;AppModule</title>
<path fill="none" stroke="black" d="M608,-85.09C608,-107.01 608,-140.8 608,-140.8 608,-140.8 2654.09,-140.8 2654.09,-140.8"/>
<polygon fill="black" stroke="black" points="2654.09,-144.3 2664.09,-140.8 2654.09,-137.3 2654.09,-144.3"/>
</g>
<!-- CalculationService -->
<g id="node30" class="node">
<title>CalculationService</title>
<ellipse fill="#fdb462" stroke="black" cx="435" cy="-66.8" rx="84.52" ry="18"/>
<text text-anchor="middle" x="435" y="-62.6" font-family="Times,serif" font-size="14.00">CalculationService</text>
</g>
<!-- CalculationService&#45;&gt;AppModule -->
<g id="edge29" class="edge">
<title>CalculationService&#45;&gt;AppModule</title>
<path fill="none" stroke="black" d="M435,-84.81C435,-107.29 435,-142.8 435,-142.8 435,-142.8 2654.15,-142.8 2654.15,-142.8"/>
<polygon fill="black" stroke="black" points="2654.15,-146.3 2664.15,-142.8 2654.15,-139.3 2654.15,-146.3"/>
</g>
<!-- MenuService -->
<g id="node31" class="node">
<title>MenuService</title>
<ellipse fill="#fdb462" stroke="black" cx="270" cy="-66.8" rx="62.55" ry="18"/>
<text text-anchor="middle" x="270" y="-62.6" font-family="Times,serif" font-size="14.00">MenuService</text>
</g>
<!-- MenuService&#45;&gt;AppModule -->
<g id="edge30" class="edge">
<title>MenuService&#45;&gt;AppModule</title>
<path fill="none" stroke="black" d="M270,-85.12C270,-108.46 270,-145.8 270,-145.8 270,-145.8 2654.23,-145.8 2654.23,-145.8"/>
<polygon fill="black" stroke="black" points="2654.23,-149.3 2664.23,-145.8 2654.23,-142.3 2654.23,-149.3"/>
</g>
<!-- NavigationService -->
<g id="node32" class="node">
<title>NavigationService</title>
<ellipse fill="#fdb462" stroke="black" cx="107" cy="-66.8" rx="82.81" ry="18"/>
<text text-anchor="middle" x="107" y="-62.6" font-family="Times,serif" font-size="14.00">NavigationService</text>
</g>
<!-- NavigationService&#45;&gt;AppModule -->
<g id="edge31" class="edge">
<title>NavigationService&#45;&gt;AppModule</title>
<path fill="none" stroke="black" d="M107,-85.18C107,-109.08 107,-147.8 107,-147.8 107,-147.8 2654.12,-147.8 2654.12,-147.8"/>
<polygon fill="black" stroke="black" points="2654.12,-151.3 2664.12,-147.8 2654.12,-144.3 2654.12,-151.3"/>
</g>
</g>
</svg>
