<?xml version="1.0" encoding="UTF-8" standalone="no"?>
<!DOCTYPE svg PUBLIC "-//W3C//DTD SVG 1.1//EN"
 "http://www.w3.org/Graphics/SVG/1.1/DTD/svg11.dtd">
<!-- Generated by graphviz version 5.0.0 (20220707.1540)
 -->
<!-- Title: dependencies Pages: 1 -->
<svg width="5568pt" height="174pt"
 viewBox="0.00 0.00 5568.00 173.80" xmlns="http://www.w3.org/2000/svg" xmlns:xlink="http://www.w3.org/1999/xlink">
<g id="graph0" class="graph" transform="scale(1 1) rotate(0) translate(4 169.8)">
<title>dependencies</title>
<polygon fill="white" stroke="transparent" points="-4,4 -4,-169.8 5564,-169.8 5564,4 -4,4"/>
<text text-anchor="middle" x="2780" y="-8.2" font-family="sans-serif" font-size="14.00">dependencies</text>
<g id="clust1" class="cluster">
<title>cluster_AppModule</title>
<polygon fill="none" stroke="black" stroke-dasharray="1,5" points="8,-32.8 8,-157.8 5552,-157.8 5552,-32.8 8,-32.8"/>
</g>
<g id="clust2" class="cluster">
<title>cluster_AppModule_declarations</title>
<polygon fill="none" stroke="black" points="688,-40.8 688,-92.8 5544,-92.8 5544,-40.8 688,-40.8"/>
</g>
<g id="clust28" class="cluster">
<title>cluster_AppModule_imports</title>
<polygon fill="none" stroke="black" points="536,-40.8 536,-92.8 680,-92.8 680,-40.8 536,-40.8"/>
</g>
<g id="clust31" class="cluster">
<title>cluster_AppModule_providers</title>
<polygon fill="none" stroke="black" points="16,-40.8 16,-92.8 528,-92.8 528,-40.8 16,-40.8"/>
</g>
<!-- BarDiagramBothComponent -->
<g id="node1" class="node">
<title>BarDiagramBothComponent</title>
<polygon fill="#ffffb3" stroke="black" points="5535.75,-84.8 5358.25,-84.8 5358.25,-48.8 5535.75,-48.8 5535.75,-84.8"/>
<text text-anchor="middle" x="5447" y="-62.6" font-family="Times,serif" font-size="14.00">BarDiagramBothComponent</text>
</g>
<!-- AppModule -->
<g id="node26" class="node">
<title>AppModule</title>
<polygon fill="#8dd3c7" stroke="black" points="2665.66,-149.8 2662.66,-153.8 2641.66,-153.8 2638.66,-149.8 2582.34,-149.8 2582.34,-113.8 2665.66,-113.8 2665.66,-149.8"/>
<text text-anchor="middle" x="2624" y="-127.6" font-family="Times,serif" font-size="14.00">AppModule</text>
</g>
<!-- BarDiagramBothComponent&#45;&gt;AppModule -->
<g id="edge1" class="edge">
<title>BarDiagramBothComponent&#45;&gt;AppModule</title>
<path fill="none" stroke="black" d="M5447,-85.18C5447,-109.08 5447,-147.8 5447,-147.8 5447,-147.8 2675.82,-147.8 2675.82,-147.8"/>
<polygon fill="black" stroke="black" points="2675.82,-144.3 2665.82,-147.8 2675.82,-151.3 2675.82,-144.3"/>
</g>
<!-- BarDiagramCompareComponent -->
<g id="node2" class="node">
<title>BarDiagramCompareComponent</title>
<polygon fill="#ffffb3" stroke="black" points="5339.84,-84.8 5138.16,-84.8 5138.16,-48.8 5339.84,-48.8 5339.84,-84.8"/>
<text text-anchor="middle" x="5239" y="-62.6" font-family="Times,serif" font-size="14.00">BarDiagramCompareComponent</text>
</g>
<!-- BarDiagramCompareComponent&#45;&gt;AppModule -->
<g id="edge2" class="edge">
<title>BarDiagramCompareComponent&#45;&gt;AppModule</title>
<path fill="none" stroke="black" d="M5239,-85.12C5239,-108.46 5239,-145.8 5239,-145.8 5239,-145.8 2675.87,-145.8 2675.87,-145.8"/>
<polygon fill="black" stroke="black" points="2675.87,-142.3 2665.87,-145.8 2675.87,-149.3 2675.87,-142.3"/>
</g>
<!-- BarDiagramComponent -->
<g id="node3" class="node">
<title>BarDiagramComponent</title>
<polygon fill="#ffffb3" stroke="black" points="5120.03,-84.8 4969.97,-84.8 4969.97,-48.8 5120.03,-48.8 5120.03,-84.8"/>
<text text-anchor="middle" x="5045" y="-62.6" font-family="Times,serif" font-size="14.00">BarDiagramComponent</text>
</g>
<!-- BarDiagramComponent&#45;&gt;AppModule -->
<g id="edge3" class="edge">
<title>BarDiagramComponent&#45;&gt;AppModule</title>
<path fill="none" stroke="black" d="M5045,-84.81C5045,-107.29 5045,-142.8 5045,-142.8 5045,-142.8 2675.77,-142.8 2675.77,-142.8"/>
<polygon fill="black" stroke="black" points="2675.77,-139.3 2665.77,-142.8 2675.77,-146.3 2675.77,-139.3"/>
</g>
<!-- CalculationCardComponent -->
<g id="node4" class="node">
<title>CalculationCardComponent</title>
<polygon fill="#ffffb3" stroke="black" points="4951.58,-84.8 4778.42,-84.8 4778.42,-48.8 4951.58,-48.8 4951.58,-84.8"/>
<text text-anchor="middle" x="4865" y="-62.6" font-family="Times,serif" font-size="14.00">CalculationCardComponent</text>
</g>
<!-- CalculationCardComponent&#45;&gt;AppModule -->
<g id="edge4" class="edge">
<title>CalculationCardComponent&#45;&gt;AppModule</title>
<path fill="none" stroke="black" d="M4865,-85.09C4865,-107.01 4865,-140.8 4865,-140.8 4865,-140.8 2675.78,-140.8 2675.78,-140.8"/>
<polygon fill="black" stroke="black" points="2675.78,-137.3 2665.78,-140.8 2675.78,-144.3 2675.78,-137.3"/>
</g>
<!-- CalculationDiagramCompareComponent -->
<g id="node5" class="node">
<title>CalculationDiagramCompareComponent</title>
<polygon fill="#ffffb3" stroke="black" points="4760.17,-84.8 4513.83,-84.8 4513.83,-48.8 4760.17,-48.8 4760.17,-84.8"/>
<text text-anchor="middle" x="4637" y="-62.6" font-family="Times,serif" font-size="14.00">CalculationDiagramCompareComponent</text>
</g>
<!-- CalculationDiagramCompareComponent&#45;&gt;AppModule -->
<g id="edge5" class="edge">
<title>CalculationDiagramCompareComponent&#45;&gt;AppModule</title>
<path fill="none" stroke="black" d="M4637,-85.08C4637,-106.12 4637,-137.8 4637,-137.8 4637,-137.8 2676.04,-137.8 2676.04,-137.8"/>
<polygon fill="black" stroke="black" points="2676.04,-134.3 2666.04,-137.8 2676.04,-141.3 2676.04,-134.3"/>
</g>
<!-- CalculationDiagramComponent -->
<g id="node6" class="node">
<title>CalculationDiagramComponent</title>
<polygon fill="#ffffb3" stroke="black" points="4495.35,-84.8 4300.65,-84.8 4300.65,-48.8 4495.35,-48.8 4495.35,-84.8"/>
<text text-anchor="middle" x="4398" y="-62.6" font-family="Times,serif" font-size="14.00">CalculationDiagramComponent</text>
</g>
<!-- CalculationDiagramComponent&#45;&gt;AppModule -->
<g id="edge6" class="edge">
<title>CalculationDiagramComponent&#45;&gt;AppModule</title>
<path fill="none" stroke="black" d="M4398,-84.93C4398,-105.37 4398,-135.8 4398,-135.8 4398,-135.8 2675.67,-135.8 2675.67,-135.8"/>
<polygon fill="black" stroke="black" points="2675.67,-132.3 2665.67,-135.8 2675.67,-139.3 2675.67,-132.3"/>
</g>
<!-- CalculationListComponent -->
<g id="node7" class="node">
<title>CalculationListComponent</title>
<polygon fill="#ffffb3" stroke="black" points="4282.65,-84.8 4115.35,-84.8 4115.35,-48.8 4282.65,-48.8 4282.65,-84.8"/>
<text text-anchor="middle" x="4199" y="-62.6" font-family="Times,serif" font-size="14.00">CalculationListComponent</text>
</g>
<!-- CalculationListComponent&#45;&gt;AppModule -->
<g id="edge7" class="edge">
<title>CalculationListComponent&#45;&gt;AppModule</title>
<path fill="none" stroke="black" d="M4199,-85.11C4199,-104.95 4199,-133.8 4199,-133.8 4199,-133.8 2675.72,-133.8 2675.72,-133.8"/>
<polygon fill="black" stroke="black" points="2675.72,-130.3 2665.72,-133.8 2675.72,-137.3 2675.72,-130.3"/>
</g>
<!-- CalculationSelectCompareComponent -->
<g id="node8" class="node">
<title>CalculationSelectCompareComponent</title>
<polygon fill="#ffffb3" stroke="black" points="4096.89,-84.8 3865.11,-84.8 3865.11,-48.8 4096.89,-48.8 4096.89,-84.8"/>
<text text-anchor="middle" x="3981" y="-62.6" font-family="Times,serif" font-size="14.00">CalculationSelectCompareComponent</text>
</g>
<!-- CalculationSelectCompareComponent&#45;&gt;AppModule -->
<g id="edge8" class="edge">
<title>CalculationSelectCompareComponent&#45;&gt;AppModule</title>
<path fill="none" stroke="black" d="M3981,-84.97C3981,-103.89 3981,-130.8 3981,-130.8 3981,-130.8 2675.73,-130.8 2675.73,-130.8"/>
<polygon fill="black" stroke="black" points="2675.73,-127.3 2665.73,-130.8 2675.73,-134.3 2675.73,-127.3"/>
</g>
<!-- CreateCalculationComponent -->
<g id="node9" class="node">
<title>CreateCalculationComponent</title>
<polygon fill="#ffffb3" stroke="black" points="3847.4,-84.8 3664.6,-84.8 3664.6,-48.8 3847.4,-48.8 3847.4,-84.8"/>
<text text-anchor="middle" x="3756" y="-62.6" font-family="Times,serif" font-size="14.00">CreateCalculationComponent</text>
</g>
<!-- CreateCalculationComponent&#45;&gt;AppModule -->
<g id="edge9" class="edge">
<title>CreateCalculationComponent&#45;&gt;AppModule</title>
<path fill="none" stroke="black" d="M3756,-85.07C3756,-103.36 3756,-128.8 3756,-128.8 3756,-128.8 2675.97,-128.8 2675.97,-128.8"/>
<polygon fill="black" stroke="black" points="2675.97,-125.3 2665.97,-128.8 2675.97,-132.3 2675.97,-125.3"/>
</g>
<!-- CreateModuleComponent -->
<g id="node10" class="node">
<title>CreateModuleComponent</title>
<polygon fill="#ffffb3" stroke="black" points="3646.91,-84.8 3485.09,-84.8 3485.09,-48.8 3646.91,-48.8 3646.91,-84.8"/>
<text text-anchor="middle" x="3566" y="-62.6" font-family="Times,serif" font-size="14.00">CreateModuleComponent</text>
</g>
<!-- CreateModuleComponent&#45;&gt;AppModule -->
<g id="edge10" class="edge">
<title>CreateModuleComponent&#45;&gt;AppModule</title>
<path fill="none" stroke="black" d="M3566,-84.82C3566,-102.17 3566,-125.8 3566,-125.8 3566,-125.8 2675.69,-125.8 2675.69,-125.8"/>
<polygon fill="black" stroke="black" points="2675.69,-122.3 2665.69,-125.8 2675.69,-129.3 2675.69,-122.3"/>
</g>
<!-- CreateTypeComponent -->
<g id="node11" class="node">
<title>CreateTypeComponent</title>
<polygon fill="#ffffb3" stroke="black" points="3467.13,-84.8 3320.87,-84.8 3320.87,-48.8 3467.13,-48.8 3467.13,-84.8"/>
<text text-anchor="middle" x="3394" y="-62.6" font-family="Times,serif" font-size="14.00">CreateTypeComponent</text>
</g>
<!-- CreateTypeComponent&#45;&gt;AppModule -->
<g id="edge11" class="edge">
<title>CreateTypeComponent&#45;&gt;AppModule</title>
<path fill="none" stroke="black" d="M3394,-84.84C3394,-101.53 3394,-123.8 3394,-123.8 3394,-123.8 2675.67,-123.8 2675.67,-123.8"/>
<polygon fill="black" stroke="black" points="2675.67,-120.3 2665.67,-123.8 2675.67,-127.3 2675.67,-120.3"/>
</g>
<!-- DiagramCompareDialogComponent -->
<g id="node12" class="node">
<title>DiagramCompareDialogComponent</title>
<polygon fill="#ffffb3" stroke="black" points="3302.73,-84.8 3083.27,-84.8 3083.27,-48.8 3302.73,-48.8 3302.73,-84.8"/>
<text text-anchor="middle" x="3193" y="-62.6" font-family="Times,serif" font-size="14.00">DiagramCompareDialogComponent</text>
</g>
<!-- DiagramCompareDialogComponent&#45;&gt;AppModule -->
<g id="edge12" class="edge">
<title>DiagramCompareDialogComponent&#45;&gt;AppModule</title>
<path fill="none" stroke="black" d="M3193,-84.81C3193,-100.85 3193,-121.8 3193,-121.8 3193,-121.8 2675.84,-121.8 2675.84,-121.8"/>
<polygon fill="black" stroke="black" points="2675.84,-118.3 2665.84,-121.8 2675.84,-125.3 2675.84,-118.3"/>
</g>
<!-- DiagramDialogComponent -->
<g id="node13" class="node">
<title>DiagramDialogComponent</title>
<polygon fill="#ffffb3" stroke="black" points="3065.41,-84.8 2896.59,-84.8 2896.59,-48.8 3065.41,-48.8 3065.41,-84.8"/>
<text text-anchor="middle" x="2981" y="-62.6" font-family="Times,serif" font-size="14.00">DiagramDialogComponent</text>
</g>
<!-- DiagramDialogComponent&#45;&gt;AppModule -->
<g id="edge13" class="edge">
<title>DiagramDialogComponent&#45;&gt;AppModule</title>
<path fill="none" stroke="black" d="M2981,-84.99C2981,-99.98 2981,-118.8 2981,-118.8 2981,-118.8 2676,-118.8 2676,-118.8"/>
<polygon fill="black" stroke="black" points="2676,-115.3 2666,-118.8 2676,-122.3 2676,-115.3"/>
</g>
<!-- EmissionItemComponent -->
<g id="node14" class="node">
<title>EmissionItemComponent</title>
<polygon fill="#ffffb3" stroke="black" points="2878.6,-84.8 2719.4,-84.8 2719.4,-48.8 2878.6,-48.8 2878.6,-84.8"/>
<text text-anchor="middle" x="2799" y="-62.6" font-family="Times,serif" font-size="14.00">EmissionItemComponent</text>
</g>
<!-- EmissionItemComponent&#45;&gt;AppModule -->
<g id="edge14" class="edge">
<title>EmissionItemComponent&#45;&gt;AppModule</title>
<path fill="none" stroke="black" d="M2799,-84.85C2799,-99.17 2799,-116.8 2799,-116.8 2799,-116.8 2675.92,-116.8 2675.92,-116.8"/>
<polygon fill="black" stroke="black" points="2675.92,-113.3 2665.92,-116.8 2675.92,-120.3 2675.92,-113.3"/>
</g>
<!-- EmissionListComponent -->
<g id="node15" class="node">
<title>EmissionListComponent</title>
<polygon fill="#ffffb3" stroke="black" points="2701.73,-84.8 2546.27,-84.8 2546.27,-48.8 2701.73,-48.8 2701.73,-84.8"/>
<text text-anchor="middle" x="2624" y="-62.6" font-family="Times,serif" font-size="14.00">EmissionListComponent</text>
</g>
<!-- EmissionListComponent&#45;&gt;AppModule -->
<g id="edge15" class="edge">
<title>EmissionListComponent&#45;&gt;AppModule</title>
<path fill="none" stroke="black" d="M2624,-84.91C2624,-84.91 2624,-103.79 2624,-103.79"/>
<polygon fill="black" stroke="black" points="2620.5,-103.79 2624,-113.79 2627.5,-103.79 2620.5,-103.79"/>
</g>
<!-- FactorEmissionModuleComponent -->
<g id="node16" class="node">
<title>FactorEmissionModuleComponent</title>
<polygon fill="#ffffb3" stroke="black" points="2528.27,-84.8 2315.73,-84.8 2315.73,-48.8 2528.27,-48.8 2528.27,-84.8"/>
<text text-anchor="middle" x="2422" y="-62.6" font-family="Times,serif" font-size="14.00">FactorEmissionModuleComponent</text>
</g>
<!-- FactorEmissionModuleComponent&#45;&gt;AppModule -->
<g id="edge16" class="edge">
<title>FactorEmissionModuleComponent&#45;&gt;AppModule</title>
<path fill="none" stroke="black" d="M2422,-84.85C2422,-99.17 2422,-116.8 2422,-116.8 2422,-116.8 2572.15,-116.8 2572.15,-116.8"/>
<polygon fill="black" stroke="black" points="2572.15,-120.3 2582.15,-116.8 2572.15,-113.3 2572.15,-120.3"/>
</g>
<!-- FileUploadComponent -->
<g id="node17" class="node">
<title>FileUploadComponent</title>
<polygon fill="#ffffb3" stroke="black" points="2297.32,-84.8 2152.68,-84.8 2152.68,-48.8 2297.32,-48.8 2297.32,-84.8"/>
<text text-anchor="middle" x="2225" y="-62.6" font-family="Times,serif" font-size="14.00">FileUploadComponent</text>
</g>
<!-- FileUploadComponent&#45;&gt;AppModule -->
<g id="edge17" class="edge">
<title>FileUploadComponent&#45;&gt;AppModule</title>
<path fill="none" stroke="black" d="M2225,-84.99C2225,-99.98 2225,-118.8 2225,-118.8 2225,-118.8 2572.05,-118.8 2572.05,-118.8"/>
<polygon fill="black" stroke="black" points="2572.05,-122.3 2582.05,-118.8 2572.05,-115.3 2572.05,-122.3"/>
</g>
<!-- ImportFileDialogComponent -->
<g id="node18" class="node">
<title>ImportFileDialogComponent</title>
<polygon fill="#ffffb3" stroke="black" points="2134.82,-84.8 1955.18,-84.8 1955.18,-48.8 2134.82,-48.8 2134.82,-84.8"/>
<text text-anchor="middle" x="2045" y="-62.6" font-family="Times,serif" font-size="14.00">ImportFileDialogComponent</text>
</g>
<!-- ImportFileDialogComponent&#45;&gt;AppModule -->
<g id="edge18" class="edge">
<title>ImportFileDialogComponent&#45;&gt;AppModule</title>
<path fill="none" stroke="black" d="M2045,-84.81C2045,-100.85 2045,-121.8 2045,-121.8 2045,-121.8 2571.89,-121.8 2571.89,-121.8"/>
<polygon fill="black" stroke="black" points="2571.89,-125.3 2581.89,-121.8 2571.89,-118.3 2571.89,-125.3"/>
</g>
<!-- NavigationComponent -->
<g id="node19" class="node">
<title>NavigationComponent</title>
<polygon fill="#ffffb3" stroke="black" points="1937.54,-84.8 1794.46,-84.8 1794.46,-48.8 1937.54,-48.8 1937.54,-84.8"/>
<text text-anchor="middle" x="1866" y="-62.6" font-family="Times,serif" font-size="14.00">NavigationComponent</text>
</g>
<!-- NavigationComponent&#45;&gt;AppModule -->
<g id="edge19" class="edge">
<title>NavigationComponent&#45;&gt;AppModule</title>
<path fill="none" stroke="black" d="M1866,-84.84C1866,-101.53 1866,-123.8 1866,-123.8 1866,-123.8 2572.17,-123.8 2572.17,-123.8"/>
<polygon fill="black" stroke="black" points="2572.17,-127.3 2582.17,-123.8 2572.17,-120.3 2572.17,-127.3"/>
</g>
<!-- PieDiagramComponent -->
<g id="node20" class="node">
<title>PieDiagramComponent</title>
<polygon fill="#ffffb3" stroke="black" points="1776.2,-84.8 1627.8,-84.8 1627.8,-48.8 1776.2,-48.8 1776.2,-84.8"/>
<text text-anchor="middle" x="1702" y="-62.6" font-family="Times,serif" font-size="14.00">PieDiagramComponent</text>
</g>
<!-- PieDiagramComponent&#45;&gt;AppModule -->
<g id="edge20" class="edge">
<title>PieDiagramComponent&#45;&gt;AppModule</title>
<path fill="none" stroke="black" d="M1702,-84.82C1702,-102.17 1702,-125.8 1702,-125.8 1702,-125.8 2572.29,-125.8 2572.29,-125.8"/>
<polygon fill="black" stroke="black" points="2572.29,-129.3 2582.29,-125.8 2572.29,-122.3 2572.29,-129.3"/>
</g>
<!-- SettingsComponent -->
<g id="node21" class="node">
<title>SettingsComponent</title>
<polygon fill="#ffffb3" stroke="black" points="1610.45,-84.8 1483.55,-84.8 1483.55,-48.8 1610.45,-48.8 1610.45,-84.8"/>
<text text-anchor="middle" x="1547" y="-62.6" font-family="Times,serif" font-size="14.00">SettingsComponent</text>
</g>
<!-- SettingsComponent&#45;&gt;AppModule -->
<g id="edge21" class="edge">
<title>SettingsComponent&#45;&gt;AppModule</title>
<path fill="none" stroke="black" d="M1547,-85.07C1547,-103.36 1547,-128.8 1547,-128.8 1547,-128.8 2572.11,-128.8 2572.11,-128.8"/>
<polygon fill="black" stroke="black" points="2572.11,-132.3 2582.11,-128.8 2572.11,-125.3 2572.11,-132.3"/>
</g>
<!-- SpecificCalculationListComponent -->
<g id="node22" class="node">
<title>SpecificCalculationListComponent</title>
<polygon fill="#ffffb3" stroke="black" points="1465.52,-84.8 1252.48,-84.8 1252.48,-48.8 1465.52,-48.8 1465.52,-84.8"/>
<text text-anchor="middle" x="1359" y="-62.6" font-family="Times,serif" font-size="14.00">SpecificCalculationListComponent</text>
</g>
<!-- SpecificCalculationListComponent&#45;&gt;AppModule -->
<g id="edge22" class="edge">
<title>SpecificCalculationListComponent&#45;&gt;AppModule</title>
<path fill="none" stroke="black" d="M1359,-84.97C1359,-103.89 1359,-130.8 1359,-130.8 1359,-130.8 2572.27,-130.8 2572.27,-130.8"/>
<polygon fill="black" stroke="black" points="2572.27,-134.3 2582.27,-130.8 2572.27,-127.3 2572.27,-134.3"/>
</g>
<!-- TreeDiagramComponent -->
<g id="node23" class="node">
<title>TreeDiagramComponent</title>
<polygon fill="#ffffb3" stroke="black" points="1233.95,-84.8 1078.05,-84.8 1078.05,-48.8 1233.95,-48.8 1233.95,-84.8"/>
<text text-anchor="middle" x="1156" y="-62.6" font-family="Times,serif" font-size="14.00">TreeDiagramComponent</text>
</g>
<!-- TreeDiagramComponent&#45;&gt;AppModule -->
<g id="edge23" class="edge">
<title>TreeDiagramComponent&#45;&gt;AppModule</title>
<path fill="none" stroke="black" d="M1156,-85.11C1156,-104.95 1156,-133.8 1156,-133.8 1156,-133.8 2572.04,-133.8 2572.04,-133.8"/>
<polygon fill="black" stroke="black" points="2572.04,-137.3 2582.04,-133.8 2572.04,-130.3 2572.04,-137.3"/>
</g>
<!-- TypeEmissionModuleComponent -->
<g id="node24" class="node">
<title>TypeEmissionModuleComponent</title>
<polygon fill="#ffffb3" stroke="black" points="1059.77,-84.8 854.23,-84.8 854.23,-48.8 1059.77,-48.8 1059.77,-84.8"/>
<text text-anchor="middle" x="957" y="-62.6" font-family="Times,serif" font-size="14.00">TypeEmissionModuleComponent</text>
</g>
<!-- TypeEmissionModuleComponent&#45;&gt;AppModule -->
<g id="edge24" class="edge">
<title>TypeEmissionModuleComponent&#45;&gt;AppModule</title>
<path fill="none" stroke="black" d="M957,-84.93C957,-105.37 957,-135.8 957,-135.8 957,-135.8 2571.96,-135.8 2571.96,-135.8"/>
<polygon fill="black" stroke="black" points="2571.96,-139.3 2581.96,-135.8 2571.96,-132.3 2571.96,-139.3"/>
</g>
<!-- TypeInputComponent -->
<g id="node25" class="node">
<title>TypeInputComponent</title>
<polygon fill="#ffffb3" stroke="black" points="835.65,-84.8 696.35,-84.8 696.35,-48.8 835.65,-48.8 835.65,-84.8"/>
<text text-anchor="middle" x="766" y="-62.6" font-family="Times,serif" font-size="14.00">TypeInputComponent</text>
</g>
<!-- TypeInputComponent&#45;&gt;AppModule -->
<g id="edge25" class="edge">
<title>TypeInputComponent&#45;&gt;AppModule</title>
<path fill="none" stroke="black" d="M766,-85.08C766,-106.12 766,-137.8 766,-137.8 766,-137.8 2572.15,-137.8 2572.15,-137.8"/>
<polygon fill="black" stroke="black" points="2572.15,-141.3 2582.15,-137.8 2572.15,-134.3 2572.15,-141.3"/>
</g>
<!-- AppRoutingModule -->
<g id="node27" class="node">
<title>AppRoutingModule</title>
<polygon fill="#8dd3c7" stroke="black" points="672.28,-84.8 669.28,-88.8 648.28,-88.8 645.28,-84.8 543.72,-84.8 543.72,-48.8 672.28,-48.8 672.28,-84.8"/>
<text text-anchor="middle" x="608" y="-62.6" font-family="Times,serif" font-size="14.00">AppRoutingModule</text>
</g>
<!-- AppRoutingModule&#45;&gt;AppModule -->
<g id="edge26" class="edge">
<title>AppRoutingModule&#45;&gt;AppModule</title>
<path fill="none" stroke="black" d="M608,-85.09C608,-107.01 608,-140.8 608,-140.8 608,-140.8 2571.89,-140.8 2571.89,-140.8"/>
<polygon fill="black" stroke="black" points="2571.89,-144.3 2581.89,-140.8 2571.89,-137.3 2571.89,-144.3"/>
</g>
<!-- CalculationService -->
<g id="node28" class="node">
<title>CalculationService</title>
<ellipse fill="#fdb462" stroke="black" cx="435" cy="-66.8" rx="84.52" ry="18"/>
<text text-anchor="middle" x="435" y="-62.6" font-family="Times,serif" font-size="14.00">CalculationService</text>
</g>
<!-- CalculationService&#45;&gt;AppModule -->
<g id="edge27" class="edge">
<title>CalculationService&#45;&gt;AppModule</title>
<path fill="none" stroke="black" d="M435,-84.81C435,-107.29 435,-142.8 435,-142.8 435,-142.8 2572.23,-142.8 2572.23,-142.8"/>
<polygon fill="black" stroke="black" points="2572.23,-146.3 2582.23,-142.8 2572.23,-139.3 2572.23,-146.3"/>
</g>
<!-- MenuService -->
<g id="node29" class="node">
<title>MenuService</title>
<ellipse fill="#fdb462" stroke="black" cx="270" cy="-66.8" rx="62.55" ry="18"/>
<text text-anchor="middle" x="270" y="-62.6" font-family="Times,serif" font-size="14.00">MenuService</text>
</g>
<!-- MenuService&#45;&gt;AppModule -->
<g id="edge28" class="edge">
<title>MenuService&#45;&gt;AppModule</title>
<path fill="none" stroke="black" d="M270,-85.12C270,-108.46 270,-145.8 270,-145.8 270,-145.8 2572.14,-145.8 2572.14,-145.8"/>
<polygon fill="black" stroke="black" points="2572.14,-149.3 2582.14,-145.8 2572.14,-142.3 2572.14,-149.3"/>
</g>
<!-- NavigationService -->
<g id="node30" class="node">
<title>NavigationService</title>
<ellipse fill="#fdb462" stroke="black" cx="107" cy="-66.8" rx="82.81" ry="18"/>
<text text-anchor="middle" x="107" y="-62.6" font-family="Times,serif" font-size="14.00">NavigationService</text>
</g>
<!-- NavigationService&#45;&gt;AppModule -->
<g id="edge29" class="edge">
<title>NavigationService&#45;&gt;AppModule</title>
<path fill="none" stroke="black" d="M107,-85.18C107,-109.08 107,-147.8 107,-147.8 107,-147.8 2572.15,-147.8 2572.15,-147.8"/>
<polygon fill="black" stroke="black" points="2572.15,-151.3 2582.15,-147.8 2572.15,-144.3 2572.15,-151.3"/>
</g>
</g>
</svg>
