<?xml version="1.0" encoding="UTF-8" standalone="no"?>
<!DOCTYPE svg PUBLIC "-//W3C//DTD SVG 1.1//EN"
 "http://www.w3.org/Graphics/SVG/1.1/DTD/svg11.dtd">
<!-- Generated by graphviz version 5.0.0 (20220707.1540)
 -->
<!-- Title: dependencies Pages: 1 -->
<svg width="5683pt" height="247pt"
 viewBox="0.00 0.00 5683.00 246.80" xmlns="http://www.w3.org/2000/svg" xmlns:xlink="http://www.w3.org/1999/xlink">
<g id="graph0" class="graph" transform="scale(1 1) rotate(0) translate(4 242.8)">
<title>dependencies</title>
<polygon fill="white" stroke="transparent" points="-4,4 -4,-242.8 5679,-242.8 5679,4 -4,4"/>
<text text-anchor="middle" x="2837.5" y="-8.2" font-family="sans-serif" font-size="14.00">dependencies</text>
<g id="clust1" class="cluster">
<title>cluster_AppModule</title>
<polygon fill="none" stroke="black" stroke-dasharray="1,5" points="8,-32.8 8,-230.8 5667,-230.8 5667,-32.8 8,-32.8"/>
</g>
<g id="clust32" class="cluster">
<title>cluster_AppModule_providers</title>
<polygon fill="none" stroke="black" points="5147,-40.8 5147,-92.8 5659,-92.8 5659,-40.8 5147,-40.8"/>
</g>
<g id="clust29" class="cluster">
<title>cluster_AppModule_imports</title>
<polygon fill="none" stroke="black" points="4995,-40.8 4995,-92.8 5139,-92.8 5139,-40.8 4995,-40.8"/>
</g>
<g id="clust31" class="cluster">
<title>cluster_AppModule_bootstrap</title>
<polygon fill="none" stroke="black" points="2742,-170.8 2742,-222.8 2866,-222.8 2866,-170.8 2742,-170.8"/>
</g>
<g id="clust2" class="cluster">
<title>cluster_AppModule_declarations</title>
<polygon fill="none" stroke="black" points="16,-40.8 16,-92.8 4987,-92.8 4987,-40.8 16,-40.8"/>
</g>
<!-- AppComponent -->
<g id="node1" class="node">
<title>AppComponent</title>
<polygon fill="#ffffb3" stroke="black" points="4978.94,-84.8 4873.06,-84.8 4873.06,-48.8 4978.94,-48.8 4978.94,-84.8"/>
<text text-anchor="middle" x="4926" y="-62.6" font-family="Times,serif" font-size="14.00">AppComponent</text>
</g>
<!-- AppModule -->
<g id="node27" class="node">
<title>AppModule</title>
<polygon fill="#8dd3c7" stroke="black" points="2845.66,-149.8 2842.66,-153.8 2821.66,-153.8 2818.66,-149.8 2762.34,-149.8 2762.34,-113.8 2845.66,-113.8 2845.66,-149.8"/>
<text text-anchor="middle" x="2804" y="-127.6" font-family="Times,serif" font-size="14.00">AppModule</text>
</g>
<!-- AppComponent&#45;&gt;AppModule -->
<g id="edge1" class="edge">
<title>AppComponent&#45;&gt;AppModule</title>
<path fill="none" stroke="black" d="M4926,-85.08C4926,-106.12 4926,-137.8 4926,-137.8 4926,-137.8 2855.91,-137.8 2855.91,-137.8"/>
<polygon fill="black" stroke="black" points="2855.91,-134.3 2845.91,-137.8 2855.91,-141.3 2855.91,-134.3"/>
</g>
<!-- BarDiagramBothComponent -->
<g id="node2" class="node">
<title>BarDiagramBothComponent</title>
<polygon fill="#ffffb3" stroke="black" points="4854.75,-84.8 4677.25,-84.8 4677.25,-48.8 4854.75,-48.8 4854.75,-84.8"/>
<text text-anchor="middle" x="4766" y="-62.6" font-family="Times,serif" font-size="14.00">BarDiagramBothComponent</text>
</g>
<!-- BarDiagramBothComponent&#45;&gt;AppModule -->
<g id="edge2" class="edge">
<title>BarDiagramBothComponent&#45;&gt;AppModule</title>
<path fill="none" stroke="black" d="M4766,-84.93C4766,-105.37 4766,-135.8 4766,-135.8 4766,-135.8 2855.89,-135.8 2855.89,-135.8"/>
<polygon fill="black" stroke="black" points="2855.89,-132.3 2845.89,-135.8 2855.89,-139.3 2855.89,-132.3"/>
</g>
<!-- BarDiagramCompareComponent -->
<g id="node3" class="node">
<title>BarDiagramCompareComponent</title>
<polygon fill="#ffffb3" stroke="black" points="4658.84,-84.8 4457.16,-84.8 4457.16,-48.8 4658.84,-48.8 4658.84,-84.8"/>
<text text-anchor="middle" x="4558" y="-62.6" font-family="Times,serif" font-size="14.00">BarDiagramCompareComponent</text>
</g>
<!-- BarDiagramCompareComponent&#45;&gt;AppModule -->
<g id="edge3" class="edge">
<title>BarDiagramCompareComponent&#45;&gt;AppModule</title>
<path fill="none" stroke="black" d="M4558,-85.11C4558,-104.95 4558,-133.8 4558,-133.8 4558,-133.8 2856.06,-133.8 2856.06,-133.8"/>
<polygon fill="black" stroke="black" points="2856.06,-130.3 2846.06,-133.8 2856.06,-137.3 2856.06,-130.3"/>
</g>
<!-- BarDiagramComponent -->
<g id="node4" class="node">
<title>BarDiagramComponent</title>
<polygon fill="#ffffb3" stroke="black" points="4439.03,-84.8 4288.97,-84.8 4288.97,-48.8 4439.03,-48.8 4439.03,-84.8"/>
<text text-anchor="middle" x="4364" y="-62.6" font-family="Times,serif" font-size="14.00">BarDiagramComponent</text>
</g>
<!-- BarDiagramComponent&#45;&gt;AppModule -->
<g id="edge4" class="edge">
<title>BarDiagramComponent&#45;&gt;AppModule</title>
<path fill="none" stroke="black" d="M4364,-84.97C4364,-103.89 4364,-130.8 4364,-130.8 4364,-130.8 2855.73,-130.8 2855.73,-130.8"/>
<polygon fill="black" stroke="black" points="2855.73,-127.3 2845.73,-130.8 2855.73,-134.3 2855.73,-127.3"/>
</g>
<!-- CalculationDiagramCompareComponent -->
<g id="node5" class="node">
<title>CalculationDiagramCompareComponent</title>
<polygon fill="#ffffb3" stroke="black" points="4271.17,-84.8 4024.83,-84.8 4024.83,-48.8 4271.17,-48.8 4271.17,-84.8"/>
<text text-anchor="middle" x="4148" y="-62.6" font-family="Times,serif" font-size="14.00">CalculationDiagramCompareComponent</text>
</g>
<!-- CalculationDiagramCompareComponent&#45;&gt;AppModule -->
<g id="edge5" class="edge">
<title>CalculationDiagramCompareComponent&#45;&gt;AppModule</title>
<path fill="none" stroke="black" d="M4148,-85.07C4148,-103.36 4148,-128.8 4148,-128.8 4148,-128.8 2855.7,-128.8 2855.7,-128.8"/>
<polygon fill="black" stroke="black" points="2855.7,-125.3 2845.7,-128.8 2855.7,-132.3 2855.7,-125.3"/>
</g>
<!-- CalculationDiagramComponent -->
<g id="node6" class="node">
<title>CalculationDiagramComponent</title>
<polygon fill="#ffffb3" stroke="black" points="4006.35,-84.8 3811.65,-84.8 3811.65,-48.8 4006.35,-48.8 4006.35,-84.8"/>
<text text-anchor="middle" x="3909" y="-62.6" font-family="Times,serif" font-size="14.00">CalculationDiagramComponent</text>
</g>
<!-- CalculationDiagramComponent&#45;&gt;AppModule -->
<g id="edge6" class="edge">
<title>CalculationDiagramComponent&#45;&gt;AppModule</title>
<path fill="none" stroke="black" d="M3909,-84.82C3909,-102.17 3909,-125.8 3909,-125.8 3909,-125.8 2855.97,-125.8 2855.97,-125.8"/>
<polygon fill="black" stroke="black" points="2855.97,-122.3 2845.97,-125.8 2855.97,-129.3 2855.97,-122.3"/>
</g>
<!-- CalculationListComponent -->
<g id="node7" class="node">
<title>CalculationListComponent</title>
<polygon fill="#ffffb3" stroke="black" points="3793.65,-84.8 3626.35,-84.8 3626.35,-48.8 3793.65,-48.8 3793.65,-84.8"/>
<text text-anchor="middle" x="3710" y="-62.6" font-family="Times,serif" font-size="14.00">CalculationListComponent</text>
</g>
<!-- CalculationListComponent&#45;&gt;AppModule -->
<g id="edge7" class="edge">
<title>CalculationListComponent&#45;&gt;AppModule</title>
<path fill="none" stroke="black" d="M3710,-84.84C3710,-101.53 3710,-123.8 3710,-123.8 3710,-123.8 2855.88,-123.8 2855.88,-123.8"/>
<polygon fill="black" stroke="black" points="2855.88,-120.3 2845.88,-123.8 2855.88,-127.3 2855.88,-120.3"/>
</g>
<!-- CalculationSelectCompareComponent -->
<g id="node8" class="node">
<title>CalculationSelectCompareComponent</title>
<polygon fill="#ffffb3" stroke="black" points="3607.89,-84.8 3376.11,-84.8 3376.11,-48.8 3607.89,-48.8 3607.89,-84.8"/>
<text text-anchor="middle" x="3492" y="-62.6" font-family="Times,serif" font-size="14.00">CalculationSelectCompareComponent</text>
</g>
<!-- CalculationSelectCompareComponent&#45;&gt;AppModule -->
<g id="edge8" class="edge">
<title>CalculationSelectCompareComponent&#45;&gt;AppModule</title>
<path fill="none" stroke="black" d="M3492,-84.81C3492,-100.85 3492,-121.8 3492,-121.8 3492,-121.8 2855.74,-121.8 2855.74,-121.8"/>
<polygon fill="black" stroke="black" points="2855.74,-118.3 2845.74,-121.8 2855.74,-125.3 2855.74,-118.3"/>
</g>
<!-- CreateCalculationComponent -->
<g id="node9" class="node">
<title>CreateCalculationComponent</title>
<polygon fill="#ffffb3" stroke="black" points="3358.4,-84.8 3175.6,-84.8 3175.6,-48.8 3358.4,-48.8 3358.4,-84.8"/>
<text text-anchor="middle" x="3267" y="-62.6" font-family="Times,serif" font-size="14.00">CreateCalculationComponent</text>
</g>
<!-- CreateCalculationComponent&#45;&gt;AppModule -->
<g id="edge9" class="edge">
<title>CreateCalculationComponent&#45;&gt;AppModule</title>
<path fill="none" stroke="black" d="M3267,-84.99C3267,-99.98 3267,-118.8 3267,-118.8 3267,-118.8 2855.9,-118.8 2855.9,-118.8"/>
<polygon fill="black" stroke="black" points="2855.9,-115.3 2845.9,-118.8 2855.9,-122.3 2855.9,-115.3"/>
</g>
<!-- CreateModuleComponent -->
<g id="node10" class="node">
<title>CreateModuleComponent</title>
<polygon fill="#ffffb3" stroke="black" points="3157.91,-84.8 2996.09,-84.8 2996.09,-48.8 3157.91,-48.8 3157.91,-84.8"/>
<text text-anchor="middle" x="3077" y="-62.6" font-family="Times,serif" font-size="14.00">CreateModuleComponent</text>
</g>
<!-- CreateModuleComponent&#45;&gt;AppModule -->
<g id="edge10" class="edge">
<title>CreateModuleComponent&#45;&gt;AppModule</title>
<path fill="none" stroke="black" d="M3077,-84.85C3077,-99.17 3077,-116.8 3077,-116.8 3077,-116.8 2855.76,-116.8 2855.76,-116.8"/>
<polygon fill="black" stroke="black" points="2855.76,-113.3 2845.76,-116.8 2855.76,-120.3 2855.76,-113.3"/>
</g>
<!-- CreateTypeComponent -->
<g id="node11" class="node">
<title>CreateTypeComponent</title>
<polygon fill="#ffffb3" stroke="black" points="2978.13,-84.8 2831.87,-84.8 2831.87,-48.8 2978.13,-48.8 2978.13,-84.8"/>
<text text-anchor="middle" x="2905" y="-62.6" font-family="Times,serif" font-size="14.00">CreateTypeComponent</text>
</g>
<!-- CreateTypeComponent&#45;&gt;AppModule -->
<g id="edge11" class="edge">
<title>CreateTypeComponent&#45;&gt;AppModule</title>
<path fill="none" stroke="black" d="M2838.76,-84.91C2838.76,-84.91 2838.76,-103.79 2838.76,-103.79"/>
<polygon fill="black" stroke="black" points="2835.26,-103.79 2838.76,-113.79 2842.26,-103.79 2835.26,-103.79"/>
</g>
<!-- DiagramCompareDialogComponent -->
<g id="node12" class="node">
<title>DiagramCompareDialogComponent</title>
<polygon fill="#ffffb3" stroke="black" points="2813.73,-84.8 2594.27,-84.8 2594.27,-48.8 2813.73,-48.8 2813.73,-84.8"/>
<text text-anchor="middle" x="2704" y="-62.6" font-family="Times,serif" font-size="14.00">DiagramCompareDialogComponent</text>
</g>
<!-- DiagramCompareDialogComponent&#45;&gt;AppModule -->
<g id="edge12" class="edge">
<title>DiagramCompareDialogComponent&#45;&gt;AppModule</title>
<path fill="none" stroke="black" d="M2788.02,-84.91C2788.02,-84.91 2788.02,-103.79 2788.02,-103.79"/>
<polygon fill="black" stroke="black" points="2784.52,-103.79 2788.02,-113.79 2791.52,-103.79 2784.52,-103.79"/>
</g>
<!-- DiagramDialogComponent -->
<g id="node13" class="node">
<title>DiagramDialogComponent</title>
<polygon fill="#ffffb3" stroke="black" points="2576.41,-84.8 2407.59,-84.8 2407.59,-48.8 2576.41,-48.8 2576.41,-84.8"/>
<text text-anchor="middle" x="2492" y="-62.6" font-family="Times,serif" font-size="14.00">DiagramDialogComponent</text>
</g>
<!-- DiagramDialogComponent&#45;&gt;AppModule -->
<g id="edge13" class="edge">
<title>DiagramDialogComponent&#45;&gt;AppModule</title>
<path fill="none" stroke="black" d="M2492,-84.85C2492,-99.17 2492,-116.8 2492,-116.8 2492,-116.8 2752.25,-116.8 2752.25,-116.8"/>
<polygon fill="black" stroke="black" points="2752.25,-120.3 2762.25,-116.8 2752.25,-113.3 2752.25,-120.3"/>
</g>
<!-- EmissionItemComponent -->
<g id="node14" class="node">
<title>EmissionItemComponent</title>
<polygon fill="#ffffb3" stroke="black" points="2389.6,-84.8 2230.4,-84.8 2230.4,-48.8 2389.6,-48.8 2389.6,-84.8"/>
<text text-anchor="middle" x="2310" y="-62.6" font-family="Times,serif" font-size="14.00">EmissionItemComponent</text>
</g>
<!-- EmissionItemComponent&#45;&gt;AppModule -->
<g id="edge14" class="edge">
<title>EmissionItemComponent&#45;&gt;AppModule</title>
<path fill="none" stroke="black" d="M2310,-84.99C2310,-99.98 2310,-118.8 2310,-118.8 2310,-118.8 2752.31,-118.8 2752.31,-118.8"/>
<polygon fill="black" stroke="black" points="2752.31,-122.3 2762.31,-118.8 2752.31,-115.3 2752.31,-122.3"/>
</g>
<!-- EmissionListComponent -->
<g id="node15" class="node">
<title>EmissionListComponent</title>
<polygon fill="#ffffb3" stroke="black" points="2212.73,-84.8 2057.27,-84.8 2057.27,-48.8 2212.73,-48.8 2212.73,-84.8"/>
<text text-anchor="middle" x="2135" y="-62.6" font-family="Times,serif" font-size="14.00">EmissionListComponent</text>
</g>
<!-- EmissionListComponent&#45;&gt;AppModule -->
<g id="edge15" class="edge">
<title>EmissionListComponent&#45;&gt;AppModule</title>
<path fill="none" stroke="black" d="M2135,-84.81C2135,-100.85 2135,-121.8 2135,-121.8 2135,-121.8 2752.15,-121.8 2752.15,-121.8"/>
<polygon fill="black" stroke="black" points="2752.15,-125.3 2762.15,-121.8 2752.15,-118.3 2752.15,-125.3"/>
</g>
<!-- FactorEmissionModuleComponent -->
<g id="node16" class="node">
<title>FactorEmissionModuleComponent</title>
<polygon fill="#ffffb3" stroke="black" points="2039.27,-84.8 1826.73,-84.8 1826.73,-48.8 2039.27,-48.8 2039.27,-84.8"/>
<text text-anchor="middle" x="1933" y="-62.6" font-family="Times,serif" font-size="14.00">FactorEmissionModuleComponent</text>
</g>
<!-- FactorEmissionModuleComponent&#45;&gt;AppModule -->
<g id="edge16" class="edge">
<title>FactorEmissionModuleComponent&#45;&gt;AppModule</title>
<path fill="none" stroke="black" d="M1933,-84.84C1933,-101.53 1933,-123.8 1933,-123.8 1933,-123.8 2752.28,-123.8 2752.28,-123.8"/>
<polygon fill="black" stroke="black" points="2752.28,-127.3 2762.28,-123.8 2752.28,-120.3 2752.28,-127.3"/>
</g>
<!-- FileUploadComponent -->
<g id="node17" class="node">
<title>FileUploadComponent</title>
<polygon fill="#ffffb3" stroke="black" points="1808.32,-84.8 1663.68,-84.8 1663.68,-48.8 1808.32,-48.8 1808.32,-84.8"/>
<text text-anchor="middle" x="1736" y="-62.6" font-family="Times,serif" font-size="14.00">FileUploadComponent</text>
</g>
<!-- FileUploadComponent&#45;&gt;AppModule -->
<g id="edge17" class="edge">
<title>FileUploadComponent&#45;&gt;AppModule</title>
<path fill="none" stroke="black" d="M1736,-84.82C1736,-102.17 1736,-125.8 1736,-125.8 1736,-125.8 2752.13,-125.8 2752.13,-125.8"/>
<polygon fill="black" stroke="black" points="2752.13,-129.3 2762.13,-125.8 2752.13,-122.3 2752.13,-129.3"/>
</g>
<!-- ImportFileDialogComponent -->
<g id="node18" class="node">
<title>ImportFileDialogComponent</title>
<polygon fill="#ffffb3" stroke="black" points="1645.82,-84.8 1466.18,-84.8 1466.18,-48.8 1645.82,-48.8 1645.82,-84.8"/>
<text text-anchor="middle" x="1556" y="-62.6" font-family="Times,serif" font-size="14.00">ImportFileDialogComponent</text>
</g>
<!-- ImportFileDialogComponent&#45;&gt;AppModule -->
<g id="edge18" class="edge">
<title>ImportFileDialogComponent&#45;&gt;AppModule</title>
<path fill="none" stroke="black" d="M1556,-85.07C1556,-103.36 1556,-128.8 1556,-128.8 1556,-128.8 2752.12,-128.8 2752.12,-128.8"/>
<polygon fill="black" stroke="black" points="2752.12,-132.3 2762.12,-128.8 2752.12,-125.3 2752.12,-132.3"/>
</g>
<!-- KonamiDialogComponent -->
<g id="node19" class="node">
<title>KonamiDialogComponent</title>
<polygon fill="#ffffb3" stroke="black" points="1448.04,-84.8 1283.96,-84.8 1283.96,-48.8 1448.04,-48.8 1448.04,-84.8"/>
<text text-anchor="middle" x="1366" y="-62.6" font-family="Times,serif" font-size="14.00">KonamiDialogComponent</text>
</g>
<!-- KonamiDialogComponent&#45;&gt;AppModule -->
<g id="edge19" class="edge">
<title>KonamiDialogComponent&#45;&gt;AppModule</title>
<path fill="none" stroke="black" d="M1366,-84.97C1366,-103.89 1366,-130.8 1366,-130.8 1366,-130.8 2752.13,-130.8 2752.13,-130.8"/>
<polygon fill="black" stroke="black" points="2752.13,-134.3 2762.13,-130.8 2752.13,-127.3 2752.13,-134.3"/>
</g>
<!-- NavigationComponent -->
<g id="node20" class="node">
<title>NavigationComponent</title>
<polygon fill="#ffffb3" stroke="black" points="1265.54,-84.8 1122.46,-84.8 1122.46,-48.8 1265.54,-48.8 1265.54,-84.8"/>
<text text-anchor="middle" x="1194" y="-62.6" font-family="Times,serif" font-size="14.00">NavigationComponent</text>
</g>
<!-- NavigationComponent&#45;&gt;AppModule -->
<g id="edge20" class="edge">
<title>NavigationComponent&#45;&gt;AppModule</title>
<path fill="none" stroke="black" d="M1194,-85.11C1194,-104.95 1194,-133.8 1194,-133.8 1194,-133.8 2752.17,-133.8 2752.17,-133.8"/>
<polygon fill="black" stroke="black" points="2752.17,-137.3 2762.17,-133.8 2752.17,-130.3 2752.17,-137.3"/>
</g>
<!-- PieDiagramComponent -->
<g id="node21" class="node">
<title>PieDiagramComponent</title>
<polygon fill="#ffffb3" stroke="black" points="1104.2,-84.8 955.8,-84.8 955.8,-48.8 1104.2,-48.8 1104.2,-84.8"/>
<text text-anchor="middle" x="1030" y="-62.6" font-family="Times,serif" font-size="14.00">PieDiagramComponent</text>
</g>
<!-- PieDiagramComponent&#45;&gt;AppModule -->
<g id="edge21" class="edge">
<title>PieDiagramComponent&#45;&gt;AppModule</title>
<path fill="none" stroke="black" d="M1030,-84.93C1030,-105.37 1030,-135.8 1030,-135.8 1030,-135.8 2752.33,-135.8 2752.33,-135.8"/>
<polygon fill="black" stroke="black" points="2752.33,-139.3 2762.33,-135.8 2752.33,-132.3 2752.33,-139.3"/>
</g>
<!-- SettingsComponent -->
<g id="node22" class="node">
<title>SettingsComponent</title>
<polygon fill="#ffffb3" stroke="black" points="938.45,-84.8 811.55,-84.8 811.55,-48.8 938.45,-48.8 938.45,-84.8"/>
<text text-anchor="middle" x="875" y="-62.6" font-family="Times,serif" font-size="14.00">SettingsComponent</text>
</g>
<!-- SettingsComponent&#45;&gt;AppModule -->
<g id="edge22" class="edge">
<title>SettingsComponent&#45;&gt;AppModule</title>
<path fill="none" stroke="black" d="M875,-85.08C875,-106.12 875,-137.8 875,-137.8 875,-137.8 2751.92,-137.8 2751.92,-137.8"/>
<polygon fill="black" stroke="black" points="2751.92,-141.3 2761.92,-137.8 2751.92,-134.3 2751.92,-141.3"/>
</g>
<!-- SpecificCalculationListComponent -->
<g id="node23" class="node">
<title>SpecificCalculationListComponent</title>
<polygon fill="#ffffb3" stroke="black" points="793.52,-84.8 580.48,-84.8 580.48,-48.8 793.52,-48.8 793.52,-84.8"/>
<text text-anchor="middle" x="687" y="-62.6" font-family="Times,serif" font-size="14.00">SpecificCalculationListComponent</text>
</g>
<!-- SpecificCalculationListComponent&#45;&gt;AppModule -->
<g id="edge23" class="edge">
<title>SpecificCalculationListComponent&#45;&gt;AppModule</title>
<path fill="none" stroke="black" d="M687,-85.09C687,-107.01 687,-140.8 687,-140.8 687,-140.8 2752.19,-140.8 2752.19,-140.8"/>
<polygon fill="black" stroke="black" points="2752.19,-144.3 2762.19,-140.8 2752.19,-137.3 2752.19,-144.3"/>
</g>
<!-- TreeDiagramComponent -->
<g id="node24" class="node">
<title>TreeDiagramComponent</title>
<polygon fill="#ffffb3" stroke="black" points="561.95,-84.8 406.05,-84.8 406.05,-48.8 561.95,-48.8 561.95,-84.8"/>
<text text-anchor="middle" x="484" y="-62.6" font-family="Times,serif" font-size="14.00">TreeDiagramComponent</text>
</g>
<!-- TreeDiagramComponent&#45;&gt;AppModule -->
<g id="edge24" class="edge">
<title>TreeDiagramComponent&#45;&gt;AppModule</title>
<path fill="none" stroke="black" d="M484,-84.81C484,-107.29 484,-142.8 484,-142.8 484,-142.8 2752.25,-142.8 2752.25,-142.8"/>
<polygon fill="black" stroke="black" points="2752.25,-146.3 2762.25,-142.8 2752.25,-139.3 2752.25,-146.3"/>
</g>
<!-- TypeEmissionModuleComponent -->
<g id="node25" class="node">
<title>TypeEmissionModuleComponent</title>
<polygon fill="#ffffb3" stroke="black" points="387.77,-84.8 182.23,-84.8 182.23,-48.8 387.77,-48.8 387.77,-84.8"/>
<text text-anchor="middle" x="285" y="-62.6" font-family="Times,serif" font-size="14.00">TypeEmissionModuleComponent</text>
</g>
<!-- TypeEmissionModuleComponent&#45;&gt;AppModule -->
<g id="edge25" class="edge">
<title>TypeEmissionModuleComponent&#45;&gt;AppModule</title>
<path fill="none" stroke="black" d="M285,-85.12C285,-108.46 285,-145.8 285,-145.8 285,-145.8 2752.12,-145.8 2752.12,-145.8"/>
<polygon fill="black" stroke="black" points="2752.12,-149.3 2762.12,-145.8 2752.12,-142.3 2752.12,-149.3"/>
</g>
<!-- TypeInputComponent -->
<g id="node26" class="node">
<title>TypeInputComponent</title>
<polygon fill="#ffffb3" stroke="black" points="163.65,-84.8 24.35,-84.8 24.35,-48.8 163.65,-48.8 163.65,-84.8"/>
<text text-anchor="middle" x="94" y="-62.6" font-family="Times,serif" font-size="14.00">TypeInputComponent</text>
</g>
<!-- TypeInputComponent&#45;&gt;AppModule -->
<g id="edge26" class="edge">
<title>TypeInputComponent&#45;&gt;AppModule</title>
<path fill="none" stroke="black" d="M94,-85.18C94,-109.08 94,-147.8 94,-147.8 94,-147.8 2752.25,-147.8 2752.25,-147.8"/>
<polygon fill="black" stroke="black" points="2752.25,-151.3 2762.25,-147.8 2752.25,-144.3 2752.25,-151.3"/>
</g>
<!-- AppComponent  -->
<g id="node29" class="node">
<title>AppComponent </title>
<polygon fill="#80b1d3" stroke="black" points="2858.44,-214.8 2749.56,-214.8 2749.56,-178.8 2858.44,-178.8 2858.44,-214.8"/>
<text text-anchor="middle" x="2804" y="-192.6" font-family="Times,serif" font-size="14.00">AppComponent </text>
</g>
<!-- AppModule&#45;&gt;AppComponent  -->
<g id="edge28" class="edge">
<title>AppModule&#45;&gt;AppComponent </title>
<path fill="none" stroke="black" stroke-dasharray="1,5" d="M2804,-149.91C2804,-149.91 2804,-168.79 2804,-168.79"/>
<polygon fill="black" stroke="black" points="2800.5,-168.79 2804,-178.79 2807.5,-168.79 2800.5,-168.79"/>
</g>
<!-- AppRoutingModule -->
<g id="node28" class="node">
<title>AppRoutingModule</title>
<polygon fill="#8dd3c7" stroke="black" points="5131.28,-84.8 5128.28,-88.8 5107.28,-88.8 5104.28,-84.8 5002.72,-84.8 5002.72,-48.8 5131.28,-48.8 5131.28,-84.8"/>
<text text-anchor="middle" x="5067" y="-62.6" font-family="Times,serif" font-size="14.00">AppRoutingModule</text>
</g>
<!-- AppRoutingModule&#45;&gt;AppModule -->
<g id="edge27" class="edge">
<title>AppRoutingModule&#45;&gt;AppModule</title>
<path fill="none" stroke="black" d="M5067,-85.09C5067,-107.01 5067,-140.8 5067,-140.8 5067,-140.8 2855.7,-140.8 2855.7,-140.8"/>
<polygon fill="black" stroke="black" points="2855.7,-137.3 2845.7,-140.8 2855.7,-144.3 2855.7,-137.3"/>
</g>
<!-- CalculationService -->
<g id="node30" class="node">
<title>CalculationService</title>
<ellipse fill="#fdb462" stroke="black" cx="5566" cy="-66.8" rx="84.52" ry="18"/>
<text text-anchor="middle" x="5566" y="-62.6" font-family="Times,serif" font-size="14.00">CalculationService</text>
</g>
<!-- CalculationService&#45;&gt;AppModule -->
<g id="edge29" class="edge">
<title>CalculationService&#45;&gt;AppModule</title>
<path fill="none" stroke="black" d="M5566,-85.18C5566,-109.08 5566,-147.8 5566,-147.8 5566,-147.8 2855.73,-147.8 2855.73,-147.8"/>
<polygon fill="black" stroke="black" points="2855.73,-144.3 2845.73,-147.8 2855.73,-151.3 2855.73,-144.3"/>
</g>
<!-- MenuService -->
<g id="node31" class="node">
<title>MenuService</title>
<ellipse fill="#fdb462" stroke="black" cx="5401" cy="-66.8" rx="62.55" ry="18"/>
<text text-anchor="middle" x="5401" y="-62.6" font-family="Times,serif" font-size="14.00">MenuService</text>
</g>
<!-- MenuService&#45;&gt;AppModule -->
<g id="edge30" class="edge">
<title>MenuService&#45;&gt;AppModule</title>
<path fill="none" stroke="black" d="M5401,-85.12C5401,-108.46 5401,-145.8 5401,-145.8 5401,-145.8 2855.84,-145.8 2855.84,-145.8"/>
<polygon fill="black" stroke="black" points="2855.84,-142.3 2845.84,-145.8 2855.84,-149.3 2855.84,-142.3"/>
</g>
<!-- NavigationService -->
<g id="node32" class="node">
<title>NavigationService</title>
<ellipse fill="#fdb462" stroke="black" cx="5238" cy="-66.8" rx="82.81" ry="18"/>
<text text-anchor="middle" x="5238" y="-62.6" font-family="Times,serif" font-size="14.00">NavigationService</text>
</g>
<!-- NavigationService&#45;&gt;AppModule -->
<g id="edge31" class="edge">
<title>NavigationService&#45;&gt;AppModule</title>
<path fill="none" stroke="black" d="M5238,-84.81C5238,-107.29 5238,-142.8 5238,-142.8 5238,-142.8 2855.73,-142.8 2855.73,-142.8"/>
<polygon fill="black" stroke="black" points="2855.73,-139.3 2845.73,-142.8 2855.73,-146.3 2855.73,-139.3"/>
</g>
</g>
</svg>
