<?xml version="1.0" encoding="UTF-8" standalone="no"?>
<!DOCTYPE svg PUBLIC "-//W3C//DTD SVG 1.1//EN"
 "http://www.w3.org/Graphics/SVG/1.1/DTD/svg11.dtd">
<!-- Generated by graphviz version 5.0.0 (20220707.1540)
 -->
<!-- Title: dependencies Pages: 1 -->
<svg width="5875pt" height="247pt"
 viewBox="0.00 0.00 5875.00 246.80" xmlns="http://www.w3.org/2000/svg" xmlns:xlink="http://www.w3.org/1999/xlink">
<g id="graph0" class="graph" transform="scale(1 1) rotate(0) translate(4 242.8)">
<title>dependencies</title>
<polygon fill="white" stroke="transparent" points="-4,4 -4,-242.8 5871,-242.8 5871,4 -4,4"/>
<text text-anchor="middle" x="2933.5" y="-8.2" font-family="sans-serif" font-size="14.00">dependencies</text>
<g id="clust1" class="cluster">
<title>cluster_AppModule</title>
<polygon fill="none" stroke="black" stroke-dasharray="1,5" points="8,-32.8 8,-230.8 5859,-230.8 5859,-32.8 8,-32.8"/>
</g>
<g id="clust30" class="cluster">
<title>cluster_AppModule_imports</title>
<polygon fill="none" stroke="black" points="5707,-40.8 5707,-92.8 5851,-92.8 5851,-40.8 5707,-40.8"/>
</g>
<g id="clust32" class="cluster">
<title>cluster_AppModule_bootstrap</title>
<polygon fill="none" stroke="black" points="2843,-170.8 2843,-222.8 2967,-222.8 2967,-170.8 2843,-170.8"/>
</g>
<g id="clust33" class="cluster">
<title>cluster_AppModule_providers</title>
<polygon fill="none" stroke="black" points="5187,-40.8 5187,-92.8 5699,-92.8 5699,-40.8 5187,-40.8"/>
</g>
<g id="clust2" class="cluster">
<title>cluster_AppModule_declarations</title>
<polygon fill="none" stroke="black" points="16,-40.8 16,-92.8 5179,-92.8 5179,-40.8 16,-40.8"/>
</g>
<!-- AppComponent -->
<g id="node1" class="node">
<title>AppComponent</title>
<polygon fill="#ffffb3" stroke="black" points="5170.94,-84.8 5065.06,-84.8 5065.06,-48.8 5170.94,-48.8 5170.94,-84.8"/>
<text text-anchor="middle" x="5118" y="-62.6" font-family="Times,serif" font-size="14.00">AppComponent</text>
</g>
<!-- AppModule -->
<g id="node28" class="node">
<title>AppModule</title>
<polygon fill="#8dd3c7" stroke="black" points="2946.66,-149.8 2943.66,-153.8 2922.66,-153.8 2919.66,-149.8 2863.34,-149.8 2863.34,-113.8 2946.66,-113.8 2946.66,-149.8"/>
<text text-anchor="middle" x="2905" y="-127.6" font-family="Times,serif" font-size="14.00">AppModule</text>
</g>
<!-- AppComponent&#45;&gt;AppModule -->
<g id="edge1" class="edge">
<title>AppComponent&#45;&gt;AppModule</title>
<path fill="none" stroke="black" d="M5118,-84.97C5118,-106.3 5118,-138.8 5118,-138.8 5118,-138.8 2956.74,-138.8 2956.74,-138.8"/>
<polygon fill="black" stroke="black" points="2956.74,-135.3 2946.74,-138.8 2956.74,-142.3 2956.74,-135.3"/>
</g>
<!-- BarDiagramBothComponent -->
<g id="node2" class="node">
<title>BarDiagramBothComponent</title>
<polygon fill="#ffffb3" stroke="black" points="5046.75,-84.8 4869.25,-84.8 4869.25,-48.8 5046.75,-48.8 5046.75,-84.8"/>
<text text-anchor="middle" x="4958" y="-62.6" font-family="Times,serif" font-size="14.00">BarDiagramBothComponent</text>
</g>
<!-- BarDiagramBothComponent&#45;&gt;AppModule -->
<g id="edge2" class="edge">
<title>BarDiagramBothComponent&#45;&gt;AppModule</title>
<path fill="none" stroke="black" d="M4958,-84.83C4958,-105.57 4958,-136.8 4958,-136.8 4958,-136.8 2956.94,-136.8 2956.94,-136.8"/>
<polygon fill="black" stroke="black" points="2956.94,-133.3 2946.94,-136.8 2956.94,-140.3 2956.94,-133.3"/>
</g>
<!-- BarDiagramCompareComponent -->
<g id="node3" class="node">
<title>BarDiagramCompareComponent</title>
<polygon fill="#ffffb3" stroke="black" points="4850.84,-84.8 4649.16,-84.8 4649.16,-48.8 4850.84,-48.8 4850.84,-84.8"/>
<text text-anchor="middle" x="4750" y="-62.6" font-family="Times,serif" font-size="14.00">BarDiagramCompareComponent</text>
</g>
<!-- BarDiagramCompareComponent&#45;&gt;AppModule -->
<g id="edge3" class="edge">
<title>BarDiagramCompareComponent&#45;&gt;AppModule</title>
<path fill="none" stroke="black" d="M4750,-85.02C4750,-105.17 4750,-134.8 4750,-134.8 4750,-134.8 2957,-134.8 2957,-134.8"/>
<polygon fill="black" stroke="black" points="2957,-131.3 2947,-134.8 2957,-138.3 2957,-131.3"/>
</g>
<!-- BarDiagramComponent -->
<g id="node4" class="node">
<title>BarDiagramComponent</title>
<polygon fill="#ffffb3" stroke="black" points="4631.03,-84.8 4480.97,-84.8 4480.97,-48.8 4631.03,-48.8 4631.03,-84.8"/>
<text text-anchor="middle" x="4556" y="-62.6" font-family="Times,serif" font-size="14.00">BarDiagramComponent</text>
</g>
<!-- BarDiagramComponent&#45;&gt;AppModule -->
<g id="edge4" class="edge">
<title>BarDiagramComponent&#45;&gt;AppModule</title>
<path fill="none" stroke="black" d="M4556,-84.91C4556,-104.14 4556,-131.8 4556,-131.8 4556,-131.8 2957.05,-131.8 2957.05,-131.8"/>
<polygon fill="black" stroke="black" points="2957.05,-128.3 2947.05,-131.8 2957.05,-135.3 2957.05,-128.3"/>
</g>
<!-- CalculationCardComponent -->
<g id="node5" class="node">
<title>CalculationCardComponent</title>
<polygon fill="#ffffb3" stroke="black" points="4462.58,-84.8 4289.42,-84.8 4289.42,-48.8 4462.58,-48.8 4462.58,-84.8"/>
<text text-anchor="middle" x="4376" y="-62.6" font-family="Times,serif" font-size="14.00">CalculationCardComponent</text>
</g>
<!-- CalculationCardComponent&#45;&gt;AppModule -->
<g id="edge5" class="edge">
<title>CalculationCardComponent&#45;&gt;AppModule</title>
<path fill="none" stroke="black" d="M4376,-85.02C4376,-103.63 4376,-129.8 4376,-129.8 4376,-129.8 2957.05,-129.8 2957.05,-129.8"/>
<polygon fill="black" stroke="black" points="2957.05,-126.3 2947.05,-129.8 2957.05,-133.3 2957.05,-126.3"/>
</g>
<!-- CalculationDiagramCompareComponent -->
<g id="node6" class="node">
<title>CalculationDiagramCompareComponent</title>
<polygon fill="#ffffb3" stroke="black" points="4271.17,-84.8 4024.83,-84.8 4024.83,-48.8 4271.17,-48.8 4271.17,-84.8"/>
<text text-anchor="middle" x="4148" y="-62.6" font-family="Times,serif" font-size="14.00">CalculationDiagramCompareComponent</text>
</g>
<!-- CalculationDiagramCompareComponent&#45;&gt;AppModule -->
<g id="edge6" class="edge">
<title>CalculationDiagramCompareComponent&#45;&gt;AppModule</title>
<path fill="none" stroke="black" d="M4148,-85.1C4148,-103.07 4148,-127.8 4148,-127.8 4148,-127.8 2956.71,-127.8 2956.71,-127.8"/>
<polygon fill="black" stroke="black" points="2956.71,-124.3 2946.71,-127.8 2956.71,-131.3 2956.71,-124.3"/>
</g>
<!-- CalculationDiagramComponent -->
<g id="node7" class="node">
<title>CalculationDiagramComponent</title>
<polygon fill="#ffffb3" stroke="black" points="4006.35,-84.8 3811.65,-84.8 3811.65,-48.8 4006.35,-48.8 4006.35,-84.8"/>
<text text-anchor="middle" x="3909" y="-62.6" font-family="Times,serif" font-size="14.00">CalculationDiagramComponent</text>
</g>
<!-- CalculationDiagramComponent&#45;&gt;AppModule -->
<g id="edge7" class="edge">
<title>CalculationDiagramComponent&#45;&gt;AppModule</title>
<path fill="none" stroke="black" d="M3909,-84.82C3909,-102.17 3909,-125.8 3909,-125.8 3909,-125.8 2956.86,-125.8 2956.86,-125.8"/>
<polygon fill="black" stroke="black" points="2956.86,-122.3 2946.86,-125.8 2956.86,-129.3 2956.86,-122.3"/>
</g>
<!-- CalculationListComponent -->
<g id="node8" class="node">
<title>CalculationListComponent</title>
<polygon fill="#ffffb3" stroke="black" points="3793.65,-84.8 3626.35,-84.8 3626.35,-48.8 3793.65,-48.8 3793.65,-84.8"/>
<text text-anchor="middle" x="3710" y="-62.6" font-family="Times,serif" font-size="14.00">CalculationListComponent</text>
</g>
<!-- CalculationListComponent&#45;&gt;AppModule -->
<g id="edge8" class="edge">
<title>CalculationListComponent&#45;&gt;AppModule</title>
<path fill="none" stroke="black" d="M3710,-84.83C3710,-101.2 3710,-122.8 3710,-122.8 3710,-122.8 2956.87,-122.8 2956.87,-122.8"/>
<polygon fill="black" stroke="black" points="2956.87,-119.3 2946.87,-122.8 2956.87,-126.3 2956.87,-119.3"/>
</g>
<!-- CalculationSelectCompareComponent -->
<g id="node9" class="node">
<title>CalculationSelectCompareComponent</title>
<polygon fill="#ffffb3" stroke="black" points="3607.89,-84.8 3376.11,-84.8 3376.11,-48.8 3607.89,-48.8 3607.89,-84.8"/>
<text text-anchor="middle" x="3492" y="-62.6" font-family="Times,serif" font-size="14.00">CalculationSelectCompareComponent</text>
</g>
<!-- CalculationSelectCompareComponent&#45;&gt;AppModule -->
<g id="edge9" class="edge">
<title>CalculationSelectCompareComponent&#45;&gt;AppModule</title>
<path fill="none" stroke="black" d="M3492,-85.08C3492,-100.75 3492,-120.8 3492,-120.8 3492,-120.8 2956.75,-120.8 2956.75,-120.8"/>
<polygon fill="black" stroke="black" points="2956.75,-117.3 2946.75,-120.8 2956.74,-124.3 2956.75,-117.3"/>
</g>
<!-- CreateCalculationComponent -->
<g id="node10" class="node">
<title>CreateCalculationComponent</title>
<polygon fill="#ffffb3" stroke="black" points="3358.4,-84.8 3175.6,-84.8 3175.6,-48.8 3358.4,-48.8 3358.4,-84.8"/>
<text text-anchor="middle" x="3267" y="-62.6" font-family="Times,serif" font-size="14.00">CreateCalculationComponent</text>
</g>
<!-- CreateCalculationComponent&#45;&gt;AppModule -->
<g id="edge10" class="edge">
<title>CreateCalculationComponent&#45;&gt;AppModule</title>
<path fill="none" stroke="black" d="M3267,-84.99C3267,-99.98 3267,-118.8 3267,-118.8 3267,-118.8 2956.88,-118.8 2956.88,-118.8"/>
<polygon fill="black" stroke="black" points="2956.88,-115.3 2946.88,-118.8 2956.88,-122.3 2956.88,-115.3"/>
</g>
<!-- CreateModuleComponent -->
<g id="node11" class="node">
<title>CreateModuleComponent</title>
<polygon fill="#ffffb3" stroke="black" points="3157.91,-84.8 2996.09,-84.8 2996.09,-48.8 3157.91,-48.8 3157.91,-84.8"/>
<text text-anchor="middle" x="3077" y="-62.6" font-family="Times,serif" font-size="14.00">CreateModuleComponent</text>
</g>
<!-- CreateModuleComponent&#45;&gt;AppModule -->
<g id="edge11" class="edge">
<title>CreateModuleComponent&#45;&gt;AppModule</title>
<path fill="none" stroke="black" d="M3077,-84.85C3077,-99.17 3077,-116.8 3077,-116.8 3077,-116.8 2957.08,-116.8 2957.08,-116.8"/>
<polygon fill="black" stroke="black" points="2957.08,-113.3 2947.08,-116.8 2957.08,-120.3 2957.08,-113.3"/>
</g>
<!-- CreateTypeComponent -->
<g id="node12" class="node">
<title>CreateTypeComponent</title>
<polygon fill="#ffffb3" stroke="black" points="2978.13,-84.8 2831.87,-84.8 2831.87,-48.8 2978.13,-48.8 2978.13,-84.8"/>
<text text-anchor="middle" x="2905" y="-62.6" font-family="Times,serif" font-size="14.00">CreateTypeComponent</text>
</g>
<!-- CreateTypeComponent&#45;&gt;AppModule -->
<g id="edge12" class="edge">
<title>CreateTypeComponent&#45;&gt;AppModule</title>
<path fill="none" stroke="black" d="M2905,-84.91C2905,-84.91 2905,-103.79 2905,-103.79"/>
<polygon fill="black" stroke="black" points="2901.5,-103.79 2905,-113.79 2908.5,-103.79 2901.5,-103.79"/>
</g>
<!-- DiagramCompareDialogComponent -->
<g id="node13" class="node">
<title>DiagramCompareDialogComponent</title>
<polygon fill="#ffffb3" stroke="black" points="2813.73,-84.8 2594.27,-84.8 2594.27,-48.8 2813.73,-48.8 2813.73,-84.8"/>
<text text-anchor="middle" x="2704" y="-62.6" font-family="Times,serif" font-size="14.00">DiagramCompareDialogComponent</text>
</g>
<!-- DiagramCompareDialogComponent&#45;&gt;AppModule -->
<g id="edge13" class="edge">
<title>DiagramCompareDialogComponent&#45;&gt;AppModule</title>
<path fill="none" stroke="black" d="M2704,-84.85C2704,-99.17 2704,-116.8 2704,-116.8 2704,-116.8 2852.86,-116.8 2852.86,-116.8"/>
<polygon fill="black" stroke="black" points="2852.86,-120.3 2862.86,-116.8 2852.86,-113.3 2852.86,-120.3"/>
</g>
<!-- DiagramDialogComponent -->
<g id="node14" class="node">
<title>DiagramDialogComponent</title>
<polygon fill="#ffffb3" stroke="black" points="2576.41,-84.8 2407.59,-84.8 2407.59,-48.8 2576.41,-48.8 2576.41,-84.8"/>
<text text-anchor="middle" x="2492" y="-62.6" font-family="Times,serif" font-size="14.00">DiagramDialogComponent</text>
</g>
<!-- DiagramDialogComponent&#45;&gt;AppModule -->
<g id="edge14" class="edge">
<title>DiagramDialogComponent&#45;&gt;AppModule</title>
<path fill="none" stroke="black" d="M2492,-84.99C2492,-99.98 2492,-118.8 2492,-118.8 2492,-118.8 2853.13,-118.8 2853.13,-118.8"/>
<polygon fill="black" stroke="black" points="2853.13,-122.3 2863.13,-118.8 2853.13,-115.3 2853.13,-122.3"/>
</g>
<!-- EmissionItemComponent -->
<g id="node15" class="node">
<title>EmissionItemComponent</title>
<polygon fill="#ffffb3" stroke="black" points="2389.6,-84.8 2230.4,-84.8 2230.4,-48.8 2389.6,-48.8 2389.6,-84.8"/>
<text text-anchor="middle" x="2310" y="-62.6" font-family="Times,serif" font-size="14.00">EmissionItemComponent</text>
</g>
<!-- EmissionItemComponent&#45;&gt;AppModule -->
<g id="edge15" class="edge">
<title>EmissionItemComponent&#45;&gt;AppModule</title>
<path fill="none" stroke="black" d="M2310,-85.08C2310,-100.75 2310,-120.8 2310,-120.8 2310,-120.8 2853.16,-120.8 2853.16,-120.8"/>
<polygon fill="black" stroke="black" points="2853.16,-124.3 2863.16,-120.8 2853.16,-117.3 2853.16,-124.3"/>
</g>
<!-- EmissionListComponent -->
<g id="node16" class="node">
<title>EmissionListComponent</title>
<polygon fill="#ffffb3" stroke="black" points="2212.73,-84.8 2057.27,-84.8 2057.27,-48.8 2212.73,-48.8 2212.73,-84.8"/>
<text text-anchor="middle" x="2135" y="-62.6" font-family="Times,serif" font-size="14.00">EmissionListComponent</text>
</g>
<!-- EmissionListComponent&#45;&gt;AppModule -->
<g id="edge16" class="edge">
<title>EmissionListComponent&#45;&gt;AppModule</title>
<path fill="none" stroke="black" d="M2135,-84.83C2135,-101.2 2135,-122.8 2135,-122.8 2135,-122.8 2853.33,-122.8 2853.33,-122.8"/>
<polygon fill="black" stroke="black" points="2853.33,-126.3 2863.33,-122.8 2853.33,-119.3 2853.33,-126.3"/>
</g>
<!-- FactorEmissionModuleComponent -->
<g id="node17" class="node">
<title>FactorEmissionModuleComponent</title>
<polygon fill="#ffffb3" stroke="black" points="2039.27,-84.8 1826.73,-84.8 1826.73,-48.8 2039.27,-48.8 2039.27,-84.8"/>
<text text-anchor="middle" x="1933" y="-62.6" font-family="Times,serif" font-size="14.00">FactorEmissionModuleComponent</text>
</g>
<!-- FactorEmissionModuleComponent&#45;&gt;AppModule -->
<g id="edge17" class="edge">
<title>FactorEmissionModuleComponent&#45;&gt;AppModule</title>
<path fill="none" stroke="black" d="M1933,-84.82C1933,-102.17 1933,-125.8 1933,-125.8 1933,-125.8 2853.23,-125.8 2853.23,-125.8"/>
<polygon fill="black" stroke="black" points="2853.23,-129.3 2863.23,-125.8 2853.23,-122.3 2853.23,-129.3"/>
</g>
<!-- FileUploadComponent -->
<g id="node18" class="node">
<title>FileUploadComponent</title>
<polygon fill="#ffffb3" stroke="black" points="1808.32,-84.8 1663.68,-84.8 1663.68,-48.8 1808.32,-48.8 1808.32,-84.8"/>
<text text-anchor="middle" x="1736" y="-62.6" font-family="Times,serif" font-size="14.00">FileUploadComponent</text>
</g>
<!-- FileUploadComponent&#45;&gt;AppModule -->
<g id="edge18" class="edge">
<title>FileUploadComponent&#45;&gt;AppModule</title>
<path fill="none" stroke="black" d="M1736,-85.1C1736,-103.07 1736,-127.8 1736,-127.8 1736,-127.8 2853.05,-127.8 2853.05,-127.8"/>
<polygon fill="black" stroke="black" points="2853.05,-131.3 2863.05,-127.8 2853.05,-124.3 2853.05,-131.3"/>
</g>
<!-- ImportFileDialogComponent -->
<g id="node19" class="node">
<title>ImportFileDialogComponent</title>
<polygon fill="#ffffb3" stroke="black" points="1645.82,-84.8 1466.18,-84.8 1466.18,-48.8 1645.82,-48.8 1645.82,-84.8"/>
<text text-anchor="middle" x="1556" y="-62.6" font-family="Times,serif" font-size="14.00">ImportFileDialogComponent</text>
</g>
<!-- ImportFileDialogComponent&#45;&gt;AppModule -->
<g id="edge19" class="edge">
<title>ImportFileDialogComponent&#45;&gt;AppModule</title>
<path fill="none" stroke="black" d="M1556,-85.02C1556,-103.63 1556,-129.8 1556,-129.8 1556,-129.8 2853.15,-129.8 2853.15,-129.8"/>
<polygon fill="black" stroke="black" points="2853.15,-133.3 2863.15,-129.8 2853.15,-126.3 2853.15,-133.3"/>
</g>
<!-- KonamiDialogComponent -->
<g id="node20" class="node">
<title>KonamiDialogComponent</title>
<polygon fill="#ffffb3" stroke="black" points="1448.04,-84.8 1283.96,-84.8 1283.96,-48.8 1448.04,-48.8 1448.04,-84.8"/>
<text text-anchor="middle" x="1366" y="-62.6" font-family="Times,serif" font-size="14.00">KonamiDialogComponent</text>
</g>
<!-- KonamiDialogComponent&#45;&gt;AppModule -->
<g id="edge20" class="edge">
<title>KonamiDialogComponent&#45;&gt;AppModule</title>
<path fill="none" stroke="black" d="M1366,-84.91C1366,-104.14 1366,-131.8 1366,-131.8 1366,-131.8 2853.04,-131.8 2853.04,-131.8"/>
<polygon fill="black" stroke="black" points="2853.04,-135.3 2863.04,-131.8 2853.04,-128.3 2853.04,-135.3"/>
</g>
<!-- NavigationComponent -->
<g id="node21" class="node">
<title>NavigationComponent</title>
<polygon fill="#ffffb3" stroke="black" points="1265.54,-84.8 1122.46,-84.8 1122.46,-48.8 1265.54,-48.8 1265.54,-84.8"/>
<text text-anchor="middle" x="1194" y="-62.6" font-family="Times,serif" font-size="14.00">NavigationComponent</text>
</g>
<!-- NavigationComponent&#45;&gt;AppModule -->
<g id="edge21" class="edge">
<title>NavigationComponent&#45;&gt;AppModule</title>
<path fill="none" stroke="black" d="M1194,-85.02C1194,-105.17 1194,-134.8 1194,-134.8 1194,-134.8 2853.13,-134.8 2853.13,-134.8"/>
<polygon fill="black" stroke="black" points="2853.13,-138.3 2863.13,-134.8 2853.13,-131.3 2853.13,-138.3"/>
</g>
<!-- PieDiagramComponent -->
<g id="node22" class="node">
<title>PieDiagramComponent</title>
<polygon fill="#ffffb3" stroke="black" points="1104.2,-84.8 955.8,-84.8 955.8,-48.8 1104.2,-48.8 1104.2,-84.8"/>
<text text-anchor="middle" x="1030" y="-62.6" font-family="Times,serif" font-size="14.00">PieDiagramComponent</text>
</g>
<!-- PieDiagramComponent&#45;&gt;AppModule -->
<g id="edge22" class="edge">
<title>PieDiagramComponent&#45;&gt;AppModule</title>
<path fill="none" stroke="black" d="M1030,-84.83C1030,-105.57 1030,-136.8 1030,-136.8 1030,-136.8 2853.21,-136.8 2853.21,-136.8"/>
<polygon fill="black" stroke="black" points="2853.21,-140.3 2863.21,-136.8 2853.21,-133.3 2853.21,-140.3"/>
</g>
<!-- SettingsComponent -->
<g id="node23" class="node">
<title>SettingsComponent</title>
<polygon fill="#ffffb3" stroke="black" points="938.45,-84.8 811.55,-84.8 811.55,-48.8 938.45,-48.8 938.45,-84.8"/>
<text text-anchor="middle" x="875" y="-62.6" font-family="Times,serif" font-size="14.00">SettingsComponent</text>
</g>
<!-- SettingsComponent&#45;&gt;AppModule -->
<g id="edge23" class="edge">
<title>SettingsComponent&#45;&gt;AppModule</title>
<path fill="none" stroke="black" d="M875,-84.97C875,-106.3 875,-138.8 875,-138.8 875,-138.8 2853.07,-138.8 2853.07,-138.8"/>
<polygon fill="black" stroke="black" points="2853.07,-142.3 2863.07,-138.8 2853.07,-135.3 2853.07,-142.3"/>
</g>
<!-- SpecificCalculationListComponent -->
<g id="node24" class="node">
<title>SpecificCalculationListComponent</title>
<polygon fill="#ffffb3" stroke="black" points="793.52,-84.8 580.48,-84.8 580.48,-48.8 793.52,-48.8 793.52,-84.8"/>
<text text-anchor="middle" x="687" y="-62.6" font-family="Times,serif" font-size="14.00">SpecificCalculationListComponent</text>
</g>
<!-- SpecificCalculationListComponent&#45;&gt;AppModule -->
<g id="edge24" class="edge">
<title>SpecificCalculationListComponent&#45;&gt;AppModule</title>
<path fill="none" stroke="black" d="M687,-85.09C687,-107.01 687,-140.8 687,-140.8 687,-140.8 2853.16,-140.8 2853.16,-140.8"/>
<polygon fill="black" stroke="black" points="2853.16,-144.3 2863.16,-140.8 2853.16,-137.3 2853.16,-144.3"/>
</g>
<!-- TreeDiagramComponent -->
<g id="node25" class="node">
<title>TreeDiagramComponent</title>
<polygon fill="#ffffb3" stroke="black" points="561.95,-84.8 406.05,-84.8 406.05,-48.8 561.95,-48.8 561.95,-84.8"/>
<text text-anchor="middle" x="484" y="-62.6" font-family="Times,serif" font-size="14.00">TreeDiagramComponent</text>
</g>
<!-- TreeDiagramComponent&#45;&gt;AppModule -->
<g id="edge25" class="edge">
<title>TreeDiagramComponent&#45;&gt;AppModule</title>
<path fill="none" stroke="black" d="M484,-85.05C484,-107.82 484,-143.8 484,-143.8 484,-143.8 2853.23,-143.8 2853.23,-143.8"/>
<polygon fill="black" stroke="black" points="2853.23,-147.3 2863.23,-143.8 2853.23,-140.3 2853.23,-147.3"/>
</g>
<!-- TypeEmissionModuleComponent -->
<g id="node26" class="node">
<title>TypeEmissionModuleComponent</title>
<polygon fill="#ffffb3" stroke="black" points="387.77,-84.8 182.23,-84.8 182.23,-48.8 387.77,-48.8 387.77,-84.8"/>
<text text-anchor="middle" x="285" y="-62.6" font-family="Times,serif" font-size="14.00">TypeEmissionModuleComponent</text>
</g>
<!-- TypeEmissionModuleComponent&#45;&gt;AppModule -->
<g id="edge26" class="edge">
<title>TypeEmissionModuleComponent&#45;&gt;AppModule</title>
<path fill="none" stroke="black" d="M285,-85.12C285,-108.46 285,-145.8 285,-145.8 285,-145.8 2853.32,-145.8 2853.32,-145.8"/>
<polygon fill="black" stroke="black" points="2853.32,-149.3 2863.32,-145.8 2853.32,-142.3 2853.32,-149.3"/>
</g>
<!-- TypeInputComponent -->
<g id="node27" class="node">
<title>TypeInputComponent</title>
<polygon fill="#ffffb3" stroke="black" points="163.65,-84.8 24.35,-84.8 24.35,-48.8 163.65,-48.8 163.65,-84.8"/>
<text text-anchor="middle" x="94" y="-62.6" font-family="Times,serif" font-size="14.00">TypeInputComponent</text>
</g>
<!-- TypeInputComponent&#45;&gt;AppModule -->
<g id="edge27" class="edge">
<title>TypeInputComponent&#45;&gt;AppModule</title>
<path fill="none" stroke="black" d="M94,-85.18C94,-109.08 94,-147.8 94,-147.8 94,-147.8 2853.08,-147.8 2853.08,-147.8"/>
<polygon fill="black" stroke="black" points="2853.08,-151.3 2863.08,-147.8 2853.08,-144.3 2853.08,-151.3"/>
</g>
<!-- AppComponent  -->
<g id="node30" class="node">
<title>AppComponent </title>
<polygon fill="#80b1d3" stroke="black" points="2959.44,-214.8 2850.56,-214.8 2850.56,-178.8 2959.44,-178.8 2959.44,-214.8"/>
<text text-anchor="middle" x="2905" y="-192.6" font-family="Times,serif" font-size="14.00">AppComponent </text>
</g>
<!-- AppModule&#45;&gt;AppComponent  -->
<g id="edge29" class="edge">
<title>AppModule&#45;&gt;AppComponent </title>
<path fill="none" stroke="black" stroke-dasharray="1,5" d="M2905,-149.91C2905,-149.91 2905,-168.79 2905,-168.79"/>
<polygon fill="black" stroke="black" points="2901.5,-168.79 2905,-178.79 2908.5,-168.79 2901.5,-168.79"/>
</g>
<!-- AppRoutingModule -->
<g id="node29" class="node">
<title>AppRoutingModule</title>
<polygon fill="#8dd3c7" stroke="black" points="5843.28,-84.8 5840.28,-88.8 5819.28,-88.8 5816.28,-84.8 5714.72,-84.8 5714.72,-48.8 5843.28,-48.8 5843.28,-84.8"/>
<text text-anchor="middle" x="5779" y="-62.6" font-family="Times,serif" font-size="14.00">AppRoutingModule</text>
</g>
<!-- AppRoutingModule&#45;&gt;AppModule -->
<g id="edge28" class="edge">
<title>AppRoutingModule&#45;&gt;AppModule</title>
<path fill="none" stroke="black" d="M5779,-85.18C5779,-109.08 5779,-147.8 5779,-147.8 5779,-147.8 2956.74,-147.8 2956.74,-147.8"/>
<polygon fill="black" stroke="black" points="2956.74,-144.3 2946.74,-147.8 2956.74,-151.3 2956.74,-144.3"/>
</g>
<!-- CalculationService -->
<g id="node31" class="node">
<title>CalculationService</title>
<ellipse fill="#fdb462" stroke="black" cx="5606" cy="-66.8" rx="84.52" ry="18"/>
<text text-anchor="middle" x="5606" y="-62.6" font-family="Times,serif" font-size="14.00">CalculationService</text>
</g>
<!-- CalculationService&#45;&gt;AppModule -->
<g id="edge30" class="edge">
<title>CalculationService&#45;&gt;AppModule</title>
<path fill="none" stroke="black" d="M5606,-85.12C5606,-108.46 5606,-145.8 5606,-145.8 5606,-145.8 2956.88,-145.8 2956.88,-145.8"/>
<polygon fill="black" stroke="black" points="2956.88,-142.3 2946.88,-145.8 2956.88,-149.3 2956.88,-142.3"/>
</g>
<!-- MenuService -->
<g id="node32" class="node">
<title>MenuService</title>
<ellipse fill="#fdb462" stroke="black" cx="5441" cy="-66.8" rx="62.55" ry="18"/>
<text text-anchor="middle" x="5441" y="-62.6" font-family="Times,serif" font-size="14.00">MenuService</text>
</g>
<!-- MenuService&#45;&gt;AppModule -->
<g id="edge31" class="edge">
<title>MenuService&#45;&gt;AppModule</title>
<path fill="none" stroke="black" d="M5441,-85.05C5441,-107.82 5441,-143.8 5441,-143.8 5441,-143.8 2956.9,-143.8 2956.9,-143.8"/>
<polygon fill="black" stroke="black" points="2956.9,-140.3 2946.9,-143.8 2956.9,-147.3 2956.9,-140.3"/>
</g>
<!-- NavigationService -->
<g id="node33" class="node">
<title>NavigationService</title>
<ellipse fill="#fdb462" stroke="black" cx="5278" cy="-66.8" rx="82.81" ry="18"/>
<text text-anchor="middle" x="5278" y="-62.6" font-family="Times,serif" font-size="14.00">NavigationService</text>
</g>
<!-- NavigationService&#45;&gt;AppModule -->
<g id="edge32" class="edge">
<title>NavigationService&#45;&gt;AppModule</title>
<path fill="none" stroke="black" d="M5278,-85.09C5278,-107.01 5278,-140.8 5278,-140.8 5278,-140.8 2956.69,-140.8 2956.69,-140.8"/>
<polygon fill="black" stroke="black" points="2956.69,-137.3 2946.69,-140.8 2956.69,-144.3 2956.69,-137.3"/>
</g>
</g>
</svg>
