<?xml version="1.0" encoding="UTF-8" standalone="no"?>
<!DOCTYPE svg PUBLIC "-//W3C//DTD SVG 1.1//EN"
 "http://www.w3.org/Graphics/SVG/1.1/DTD/svg11.dtd">
<!-- Generated by graphviz version 5.0.0 (20220707.1540)
 -->
<!-- Title: dependencies Pages: 1 -->
<svg width="5568pt" height="174pt"
 viewBox="0.00 0.00 5568.00 173.80" xmlns="http://www.w3.org/2000/svg" xmlns:xlink="http://www.w3.org/1999/xlink">
<g id="graph0" class="graph" transform="scale(1 1) rotate(0) translate(4 169.8)">
<title>dependencies</title>
<polygon fill="white" stroke="transparent" points="-4,4 -4,-169.8 5564,-169.8 5564,4 -4,4"/>
<text text-anchor="middle" x="2780" y="-8.2" font-family="sans-serif" font-size="14.00">dependencies</text>
<g id="clust1" class="cluster">
<title>cluster_AppModule</title>
<polygon fill="none" stroke="black" stroke-dasharray="1,5" points="8,-32.8 8,-157.8 5552,-157.8 5552,-32.8 8,-32.8"/>
</g>
<g id="clust28" class="cluster">
<title>cluster_AppModule_imports</title>
<polygon fill="none" stroke="black" points="5400,-40.8 5400,-92.8 5544,-92.8 5544,-40.8 5400,-40.8"/>
</g>
<g id="clust2" class="cluster">
<title>cluster_AppModule_declarations</title>
<polygon fill="none" stroke="black" points="536,-40.8 536,-92.8 5392,-92.8 5392,-40.8 536,-40.8"/>
</g>
<g id="clust31" class="cluster">
<title>cluster_AppModule_providers</title>
<polygon fill="none" stroke="black" points="16,-40.8 16,-92.8 528,-92.8 528,-40.8 16,-40.8"/>
</g>
<!-- BarDiagramBothComponent -->
<g id="node1" class="node">
<title>BarDiagramBothComponent</title>
<polygon fill="#ffffb3" stroke="black" points="5383.75,-84.8 5206.25,-84.8 5206.25,-48.8 5383.75,-48.8 5383.75,-84.8"/>
<text text-anchor="middle" x="5295" y="-62.6" font-family="Times,serif" font-size="14.00">BarDiagramBothComponent</text>
</g>
<!-- AppModule -->
<g id="node26" class="node">
<title>AppModule</title>
<polygon fill="#8dd3c7" stroke="black" points="2688.66,-149.8 2685.66,-153.8 2664.66,-153.8 2661.66,-149.8 2605.34,-149.8 2605.34,-113.8 2688.66,-113.8 2688.66,-149.8"/>
<text text-anchor="middle" x="2647" y="-127.6" font-family="Times,serif" font-size="14.00">AppModule</text>
</g>
<!-- BarDiagramBothComponent&#45;&gt;AppModule -->
<g id="edge1" class="edge">
<title>BarDiagramBothComponent&#45;&gt;AppModule</title>
<path fill="none" stroke="black" d="M5295,-85.12C5295,-108.46 5295,-145.8 5295,-145.8 5295,-145.8 2698.86,-145.8 2698.86,-145.8"/>
<polygon fill="black" stroke="black" points="2698.86,-142.3 2688.86,-145.8 2698.86,-149.3 2698.86,-142.3"/>
</g>
<!-- BarDiagramCompareComponent -->
<g id="node2" class="node">
<title>BarDiagramCompareComponent</title>
<polygon fill="#ffffb3" stroke="black" points="5187.84,-84.8 4986.16,-84.8 4986.16,-48.8 5187.84,-48.8 5187.84,-84.8"/>
<text text-anchor="middle" x="5087" y="-62.6" font-family="Times,serif" font-size="14.00">BarDiagramCompareComponent</text>
</g>
<!-- BarDiagramCompareComponent&#45;&gt;AppModule -->
<g id="edge2" class="edge">
<title>BarDiagramCompareComponent&#45;&gt;AppModule</title>
<path fill="none" stroke="black" d="M5087,-84.81C5087,-107.29 5087,-142.8 5087,-142.8 5087,-142.8 2698.84,-142.8 2698.84,-142.8"/>
<polygon fill="black" stroke="black" points="2698.84,-139.3 2688.84,-142.8 2698.84,-146.3 2698.84,-139.3"/>
</g>
<!-- BarDiagramComponent -->
<g id="node3" class="node">
<title>BarDiagramComponent</title>
<polygon fill="#ffffb3" stroke="black" points="4968.03,-84.8 4817.97,-84.8 4817.97,-48.8 4968.03,-48.8 4968.03,-84.8"/>
<text text-anchor="middle" x="4893" y="-62.6" font-family="Times,serif" font-size="14.00">BarDiagramComponent</text>
</g>
<!-- BarDiagramComponent&#45;&gt;AppModule -->
<g id="edge3" class="edge">
<title>BarDiagramComponent&#45;&gt;AppModule</title>
<path fill="none" stroke="black" d="M4893,-85.09C4893,-107.01 4893,-140.8 4893,-140.8 4893,-140.8 2698.88,-140.8 2698.88,-140.8"/>
<polygon fill="black" stroke="black" points="2698.88,-137.3 2688.88,-140.8 2698.88,-144.3 2698.88,-137.3"/>
</g>
<!-- CalculationCardComponent -->
<g id="node4" class="node">
<title>CalculationCardComponent</title>
<polygon fill="#ffffb3" stroke="black" points="4799.58,-84.8 4626.42,-84.8 4626.42,-48.8 4799.58,-48.8 4799.58,-84.8"/>
<text text-anchor="middle" x="4713" y="-62.6" font-family="Times,serif" font-size="14.00">CalculationCardComponent</text>
</g>
<!-- CalculationCardComponent&#45;&gt;AppModule -->
<g id="edge4" class="edge">
<title>CalculationCardComponent&#45;&gt;AppModule</title>
<path fill="none" stroke="black" d="M4713,-85.08C4713,-106.12 4713,-137.8 4713,-137.8 4713,-137.8 2698.74,-137.8 2698.74,-137.8"/>
<polygon fill="black" stroke="black" points="2698.74,-134.3 2688.74,-137.8 2698.74,-141.3 2698.74,-134.3"/>
</g>
<!-- CalculationDiagramCompareComponent -->
<g id="node5" class="node">
<title>CalculationDiagramCompareComponent</title>
<polygon fill="#ffffb3" stroke="black" points="4608.17,-84.8 4361.83,-84.8 4361.83,-48.8 4608.17,-48.8 4608.17,-84.8"/>
<text text-anchor="middle" x="4485" y="-62.6" font-family="Times,serif" font-size="14.00">CalculationDiagramCompareComponent</text>
</g>
<!-- CalculationDiagramCompareComponent&#45;&gt;AppModule -->
<g id="edge5" class="edge">
<title>CalculationDiagramCompareComponent&#45;&gt;AppModule</title>
<path fill="none" stroke="black" d="M4485,-84.93C4485,-105.37 4485,-135.8 4485,-135.8 4485,-135.8 2698.84,-135.8 2698.84,-135.8"/>
<polygon fill="black" stroke="black" points="2698.84,-132.3 2688.84,-135.8 2698.84,-139.3 2698.84,-132.3"/>
</g>
<!-- CalculationDiagramComponent -->
<g id="node6" class="node">
<title>CalculationDiagramComponent</title>
<polygon fill="#ffffb3" stroke="black" points="4343.35,-84.8 4148.65,-84.8 4148.65,-48.8 4343.35,-48.8 4343.35,-84.8"/>
<text text-anchor="middle" x="4246" y="-62.6" font-family="Times,serif" font-size="14.00">CalculationDiagramComponent</text>
</g>
<!-- CalculationDiagramComponent&#45;&gt;AppModule -->
<g id="edge6" class="edge">
<title>CalculationDiagramComponent&#45;&gt;AppModule</title>
<path fill="none" stroke="black" d="M4246,-85.11C4246,-104.95 4246,-133.8 4246,-133.8 4246,-133.8 2698.95,-133.8 2698.95,-133.8"/>
<polygon fill="black" stroke="black" points="2698.95,-130.3 2688.95,-133.8 2698.95,-137.3 2698.95,-130.3"/>
</g>
<!-- CalculationListComponent -->
<g id="node7" class="node">
<title>CalculationListComponent</title>
<polygon fill="#ffffb3" stroke="black" points="4130.65,-84.8 3963.35,-84.8 3963.35,-48.8 4130.65,-48.8 4130.65,-84.8"/>
<text text-anchor="middle" x="4047" y="-62.6" font-family="Times,serif" font-size="14.00">CalculationListComponent</text>
</g>
<!-- CalculationListComponent&#45;&gt;AppModule -->
<g id="edge7" class="edge">
<title>CalculationListComponent&#45;&gt;AppModule</title>
<path fill="none" stroke="black" d="M4047,-84.97C4047,-103.89 4047,-130.8 4047,-130.8 4047,-130.8 2698.9,-130.8 2698.9,-130.8"/>
<polygon fill="black" stroke="black" points="2698.9,-127.3 2688.9,-130.8 2698.9,-134.3 2698.9,-127.3"/>
</g>
<!-- CalculationSelectCompareComponent -->
<g id="node8" class="node">
<title>CalculationSelectCompareComponent</title>
<polygon fill="#ffffb3" stroke="black" points="3944.89,-84.8 3713.11,-84.8 3713.11,-48.8 3944.89,-48.8 3944.89,-84.8"/>
<text text-anchor="middle" x="3829" y="-62.6" font-family="Times,serif" font-size="14.00">CalculationSelectCompareComponent</text>
</g>
<!-- CalculationSelectCompareComponent&#45;&gt;AppModule -->
<g id="edge8" class="edge">
<title>CalculationSelectCompareComponent&#45;&gt;AppModule</title>
<path fill="none" stroke="black" d="M3829,-85.07C3829,-103.36 3829,-128.8 3829,-128.8 3829,-128.8 2698.72,-128.8 2698.72,-128.8"/>
<polygon fill="black" stroke="black" points="2698.72,-125.3 2688.72,-128.8 2698.72,-132.3 2698.72,-125.3"/>
</g>
<!-- CreateCalculationComponent -->
<g id="node9" class="node">
<title>CreateCalculationComponent</title>
<polygon fill="#ffffb3" stroke="black" points="3695.4,-84.8 3512.6,-84.8 3512.6,-48.8 3695.4,-48.8 3695.4,-84.8"/>
<text text-anchor="middle" x="3604" y="-62.6" font-family="Times,serif" font-size="14.00">CreateCalculationComponent</text>
</g>
<!-- CreateCalculationComponent&#45;&gt;AppModule -->
<g id="edge9" class="edge">
<title>CreateCalculationComponent&#45;&gt;AppModule</title>
<path fill="none" stroke="black" d="M3604,-84.82C3604,-102.17 3604,-125.8 3604,-125.8 3604,-125.8 2698.74,-125.8 2698.74,-125.8"/>
<polygon fill="black" stroke="black" points="2698.74,-122.3 2688.74,-125.8 2698.74,-129.3 2698.74,-122.3"/>
</g>
<!-- CreateModuleComponent -->
<g id="node10" class="node">
<title>CreateModuleComponent</title>
<polygon fill="#ffffb3" stroke="black" points="3494.91,-84.8 3333.09,-84.8 3333.09,-48.8 3494.91,-48.8 3494.91,-84.8"/>
<text text-anchor="middle" x="3414" y="-62.6" font-family="Times,serif" font-size="14.00">CreateModuleComponent</text>
</g>
<!-- CreateModuleComponent&#45;&gt;AppModule -->
<g id="edge10" class="edge">
<title>CreateModuleComponent&#45;&gt;AppModule</title>
<path fill="none" stroke="black" d="M3414,-84.84C3414,-101.53 3414,-123.8 3414,-123.8 3414,-123.8 2698.78,-123.8 2698.78,-123.8"/>
<polygon fill="black" stroke="black" points="2698.78,-120.3 2688.78,-123.8 2698.78,-127.3 2698.78,-120.3"/>
</g>
<!-- CreateTypeComponent -->
<g id="node11" class="node">
<title>CreateTypeComponent</title>
<polygon fill="#ffffb3" stroke="black" points="3315.13,-84.8 3168.87,-84.8 3168.87,-48.8 3315.13,-48.8 3315.13,-84.8"/>
<text text-anchor="middle" x="3242" y="-62.6" font-family="Times,serif" font-size="14.00">CreateTypeComponent</text>
</g>
<!-- CreateTypeComponent&#45;&gt;AppModule -->
<g id="edge11" class="edge">
<title>CreateTypeComponent&#45;&gt;AppModule</title>
<path fill="none" stroke="black" d="M3242,-84.81C3242,-100.85 3242,-121.8 3242,-121.8 3242,-121.8 2698.84,-121.8 2698.84,-121.8"/>
<polygon fill="black" stroke="black" points="2698.84,-118.3 2688.84,-121.8 2698.84,-125.3 2698.84,-118.3"/>
</g>
<!-- DiagramCompareDialogComponent -->
<g id="node12" class="node">
<title>DiagramCompareDialogComponent</title>
<polygon fill="#ffffb3" stroke="black" points="3150.73,-84.8 2931.27,-84.8 2931.27,-48.8 3150.73,-48.8 3150.73,-84.8"/>
<text text-anchor="middle" x="3041" y="-62.6" font-family="Times,serif" font-size="14.00">DiagramCompareDialogComponent</text>
</g>
<!-- DiagramCompareDialogComponent&#45;&gt;AppModule -->
<g id="edge12" class="edge">
<title>DiagramCompareDialogComponent&#45;&gt;AppModule</title>
<path fill="none" stroke="black" d="M3041,-84.99C3041,-99.98 3041,-118.8 3041,-118.8 3041,-118.8 2698.79,-118.8 2698.79,-118.8"/>
<polygon fill="black" stroke="black" points="2698.79,-115.3 2688.79,-118.8 2698.79,-122.3 2698.79,-115.3"/>
</g>
<!-- DiagramDialogComponent -->
<g id="node13" class="node">
<title>DiagramDialogComponent</title>
<polygon fill="#ffffb3" stroke="black" points="2913.41,-84.8 2744.59,-84.8 2744.59,-48.8 2913.41,-48.8 2913.41,-84.8"/>
<text text-anchor="middle" x="2829" y="-62.6" font-family="Times,serif" font-size="14.00">DiagramDialogComponent</text>
</g>
<!-- DiagramDialogComponent&#45;&gt;AppModule -->
<g id="edge13" class="edge">
<title>DiagramDialogComponent&#45;&gt;AppModule</title>
<path fill="none" stroke="black" d="M2829,-84.85C2829,-99.17 2829,-116.8 2829,-116.8 2829,-116.8 2698.75,-116.8 2698.75,-116.8"/>
<polygon fill="black" stroke="black" points="2698.75,-113.3 2688.75,-116.8 2698.75,-120.3 2698.75,-113.3"/>
</g>
<!-- EmissionItemComponent -->
<g id="node14" class="node">
<title>EmissionItemComponent</title>
<polygon fill="#ffffb3" stroke="black" points="2726.6,-84.8 2567.4,-84.8 2567.4,-48.8 2726.6,-48.8 2726.6,-84.8"/>
<text text-anchor="middle" x="2647" y="-62.6" font-family="Times,serif" font-size="14.00">EmissionItemComponent</text>
</g>
<!-- EmissionItemComponent&#45;&gt;AppModule -->
<g id="edge14" class="edge">
<title>EmissionItemComponent&#45;&gt;AppModule</title>
<path fill="none" stroke="black" d="M2647,-84.91C2647,-84.91 2647,-103.79 2647,-103.79"/>
<polygon fill="black" stroke="black" points="2643.5,-103.79 2647,-113.79 2650.5,-103.79 2643.5,-103.79"/>
</g>
<!-- EmissionListComponent -->
<g id="node15" class="node">
<title>EmissionListComponent</title>
<polygon fill="#ffffb3" stroke="black" points="2549.73,-84.8 2394.27,-84.8 2394.27,-48.8 2549.73,-48.8 2549.73,-84.8"/>
<text text-anchor="middle" x="2472" y="-62.6" font-family="Times,serif" font-size="14.00">EmissionListComponent</text>
</g>
<!-- EmissionListComponent&#45;&gt;AppModule -->
<g id="edge15" class="edge">
<title>EmissionListComponent&#45;&gt;AppModule</title>
<path fill="none" stroke="black" d="M2472,-84.85C2472,-99.17 2472,-116.8 2472,-116.8 2472,-116.8 2595.08,-116.8 2595.08,-116.8"/>
<polygon fill="black" stroke="black" points="2595.08,-120.3 2605.08,-116.8 2595.08,-113.3 2595.08,-120.3"/>
</g>
<!-- FactorEmissionModuleComponent -->
<g id="node16" class="node">
<title>FactorEmissionModuleComponent</title>
<polygon fill="#ffffb3" stroke="black" points="2376.27,-84.8 2163.73,-84.8 2163.73,-48.8 2376.27,-48.8 2376.27,-84.8"/>
<text text-anchor="middle" x="2270" y="-62.6" font-family="Times,serif" font-size="14.00">FactorEmissionModuleComponent</text>
</g>
<!-- FactorEmissionModuleComponent&#45;&gt;AppModule -->
<g id="edge16" class="edge">
<title>FactorEmissionModuleComponent&#45;&gt;AppModule</title>
<path fill="none" stroke="black" d="M2270,-84.99C2270,-99.98 2270,-118.8 2270,-118.8 2270,-118.8 2595.21,-118.8 2595.21,-118.8"/>
<polygon fill="black" stroke="black" points="2595.21,-122.3 2605.21,-118.8 2595.21,-115.3 2595.21,-122.3"/>
</g>
<!-- FileUploadComponent -->
<g id="node17" class="node">
<title>FileUploadComponent</title>
<polygon fill="#ffffb3" stroke="black" points="2145.32,-84.8 2000.68,-84.8 2000.68,-48.8 2145.32,-48.8 2145.32,-84.8"/>
<text text-anchor="middle" x="2073" y="-62.6" font-family="Times,serif" font-size="14.00">FileUploadComponent</text>
</g>
<!-- FileUploadComponent&#45;&gt;AppModule -->
<g id="edge17" class="edge">
<title>FileUploadComponent&#45;&gt;AppModule</title>
<path fill="none" stroke="black" d="M2073,-84.81C2073,-100.85 2073,-121.8 2073,-121.8 2073,-121.8 2595.26,-121.8 2595.26,-121.8"/>
<polygon fill="black" stroke="black" points="2595.26,-125.3 2605.26,-121.8 2595.26,-118.3 2595.26,-125.3"/>
</g>
<!-- ImportFileDialogComponent -->
<g id="node18" class="node">
<title>ImportFileDialogComponent</title>
<polygon fill="#ffffb3" stroke="black" points="1982.82,-84.8 1803.18,-84.8 1803.18,-48.8 1982.82,-48.8 1982.82,-84.8"/>
<text text-anchor="middle" x="1893" y="-62.6" font-family="Times,serif" font-size="14.00">ImportFileDialogComponent</text>
</g>
<!-- ImportFileDialogComponent&#45;&gt;AppModule -->
<g id="edge18" class="edge">
<title>ImportFileDialogComponent&#45;&gt;AppModule</title>
<path fill="none" stroke="black" d="M1893,-84.84C1893,-101.53 1893,-123.8 1893,-123.8 1893,-123.8 2595.12,-123.8 2595.12,-123.8"/>
<polygon fill="black" stroke="black" points="2595.12,-127.3 2605.12,-123.8 2595.12,-120.3 2595.12,-127.3"/>
</g>
<!-- NavigationComponent -->
<g id="node19" class="node">
<title>NavigationComponent</title>
<polygon fill="#ffffb3" stroke="black" points="1785.54,-84.8 1642.46,-84.8 1642.46,-48.8 1785.54,-48.8 1785.54,-84.8"/>
<text text-anchor="middle" x="1714" y="-62.6" font-family="Times,serif" font-size="14.00">NavigationComponent</text>
</g>
<!-- NavigationComponent&#45;&gt;AppModule -->
<g id="edge19" class="edge">
<title>NavigationComponent&#45;&gt;AppModule</title>
<path fill="none" stroke="black" d="M1714,-84.82C1714,-102.17 1714,-125.8 1714,-125.8 1714,-125.8 2595.1,-125.8 2595.1,-125.8"/>
<polygon fill="black" stroke="black" points="2595.1,-129.3 2605.1,-125.8 2595.1,-122.3 2595.1,-129.3"/>
</g>
<!-- PieDiagramComponent -->
<g id="node20" class="node">
<title>PieDiagramComponent</title>
<polygon fill="#ffffb3" stroke="black" points="1624.2,-84.8 1475.8,-84.8 1475.8,-48.8 1624.2,-48.8 1624.2,-84.8"/>
<text text-anchor="middle" x="1550" y="-62.6" font-family="Times,serif" font-size="14.00">PieDiagramComponent</text>
</g>
<!-- PieDiagramComponent&#45;&gt;AppModule -->
<g id="edge20" class="edge">
<title>PieDiagramComponent&#45;&gt;AppModule</title>
<path fill="none" stroke="black" d="M1550,-85.07C1550,-103.36 1550,-128.8 1550,-128.8 1550,-128.8 2595.34,-128.8 2595.34,-128.8"/>
<polygon fill="black" stroke="black" points="2595.34,-132.3 2605.34,-128.8 2595.34,-125.3 2595.34,-132.3"/>
</g>
<!-- SettingsComponent -->
<g id="node21" class="node">
<title>SettingsComponent</title>
<polygon fill="#ffffb3" stroke="black" points="1458.45,-84.8 1331.55,-84.8 1331.55,-48.8 1458.45,-48.8 1458.45,-84.8"/>
<text text-anchor="middle" x="1395" y="-62.6" font-family="Times,serif" font-size="14.00">SettingsComponent</text>
</g>
<!-- SettingsComponent&#45;&gt;AppModule -->
<g id="edge21" class="edge">
<title>SettingsComponent&#45;&gt;AppModule</title>
<path fill="none" stroke="black" d="M1395,-84.97C1395,-103.89 1395,-130.8 1395,-130.8 1395,-130.8 2594.99,-130.8 2594.99,-130.8"/>
<polygon fill="black" stroke="black" points="2594.99,-134.3 2604.99,-130.8 2594.99,-127.3 2594.99,-134.3"/>
</g>
<!-- SpecificCalculationListComponent -->
<g id="node22" class="node">
<title>SpecificCalculationListComponent</title>
<polygon fill="#ffffb3" stroke="black" points="1313.52,-84.8 1100.48,-84.8 1100.48,-48.8 1313.52,-48.8 1313.52,-84.8"/>
<text text-anchor="middle" x="1207" y="-62.6" font-family="Times,serif" font-size="14.00">SpecificCalculationListComponent</text>
</g>
<!-- SpecificCalculationListComponent&#45;&gt;AppModule -->
<g id="edge22" class="edge">
<title>SpecificCalculationListComponent&#45;&gt;AppModule</title>
<path fill="none" stroke="black" d="M1207,-85.11C1207,-104.95 1207,-133.8 1207,-133.8 1207,-133.8 2595.07,-133.8 2595.07,-133.8"/>
<polygon fill="black" stroke="black" points="2595.07,-137.3 2605.07,-133.8 2595.07,-130.3 2595.07,-137.3"/>
</g>
<!-- TreeDiagramComponent -->
<g id="node23" class="node">
<title>TreeDiagramComponent</title>
<polygon fill="#ffffb3" stroke="black" points="1081.95,-84.8 926.05,-84.8 926.05,-48.8 1081.95,-48.8 1081.95,-84.8"/>
<text text-anchor="middle" x="1004" y="-62.6" font-family="Times,serif" font-size="14.00">TreeDiagramComponent</text>
</g>
<!-- TreeDiagramComponent&#45;&gt;AppModule -->
<g id="edge23" class="edge">
<title>TreeDiagramComponent&#45;&gt;AppModule</title>
<path fill="none" stroke="black" d="M1004,-84.93C1004,-105.37 1004,-135.8 1004,-135.8 1004,-135.8 2595.15,-135.8 2595.15,-135.8"/>
<polygon fill="black" stroke="black" points="2595.15,-139.3 2605.15,-135.8 2595.15,-132.3 2595.15,-139.3"/>
</g>
<!-- TypeEmissionModuleComponent -->
<g id="node24" class="node">
<title>TypeEmissionModuleComponent</title>
<polygon fill="#ffffb3" stroke="black" points="907.77,-84.8 702.23,-84.8 702.23,-48.8 907.77,-48.8 907.77,-84.8"/>
<text text-anchor="middle" x="805" y="-62.6" font-family="Times,serif" font-size="14.00">TypeEmissionModuleComponent</text>
</g>
<!-- TypeEmissionModuleComponent&#45;&gt;AppModule -->
<g id="edge24" class="edge">
<title>TypeEmissionModuleComponent&#45;&gt;AppModule</title>
<path fill="none" stroke="black" d="M805,-85.08C805,-106.12 805,-137.8 805,-137.8 805,-137.8 2595.07,-137.8 2595.07,-137.8"/>
<polygon fill="black" stroke="black" points="2595.07,-141.3 2605.07,-137.8 2595.07,-134.3 2595.07,-141.3"/>
</g>
<!-- TypeInputComponent -->
<g id="node25" class="node">
<title>TypeInputComponent</title>
<polygon fill="#ffffb3" stroke="black" points="683.65,-84.8 544.35,-84.8 544.35,-48.8 683.65,-48.8 683.65,-84.8"/>
<text text-anchor="middle" x="614" y="-62.6" font-family="Times,serif" font-size="14.00">TypeInputComponent</text>
</g>
<!-- TypeInputComponent&#45;&gt;AppModule -->
<g id="edge25" class="edge">
<title>TypeInputComponent&#45;&gt;AppModule</title>
<path fill="none" stroke="black" d="M614,-85.09C614,-107.01 614,-140.8 614,-140.8 614,-140.8 2595,-140.8 2595,-140.8"/>
<polygon fill="black" stroke="black" points="2595,-144.3 2605,-140.8 2595,-137.3 2595,-144.3"/>
</g>
<!-- AppRoutingModule -->
<g id="node27" class="node">
<title>AppRoutingModule</title>
<polygon fill="#8dd3c7" stroke="black" points="5536.28,-84.8 5533.28,-88.8 5512.28,-88.8 5509.28,-84.8 5407.72,-84.8 5407.72,-48.8 5536.28,-48.8 5536.28,-84.8"/>
<text text-anchor="middle" x="5472" y="-62.6" font-family="Times,serif" font-size="14.00">AppRoutingModule</text>
</g>
<!-- AppRoutingModule&#45;&gt;AppModule -->
<g id="edge26" class="edge">
<title>AppRoutingModule&#45;&gt;AppModule</title>
<path fill="none" stroke="black" d="M5472,-85.18C5472,-109.08 5472,-147.8 5472,-147.8 5472,-147.8 2698.85,-147.8 2698.85,-147.8"/>
<polygon fill="black" stroke="black" points="2698.85,-144.3 2688.85,-147.8 2698.85,-151.3 2698.85,-144.3"/>
</g>
<!-- CalculationService -->
<g id="node28" class="node">
<title>CalculationService</title>
<ellipse fill="#fdb462" stroke="black" cx="435" cy="-66.8" rx="84.52" ry="18"/>
<text text-anchor="middle" x="435" y="-62.6" font-family="Times,serif" font-size="14.00">CalculationService</text>
</g>
<!-- CalculationService&#45;&gt;AppModule -->
<g id="edge27" class="edge">
<title>CalculationService&#45;&gt;AppModule</title>
<path fill="none" stroke="black" d="M435,-84.81C435,-107.29 435,-142.8 435,-142.8 435,-142.8 2595.27,-142.8 2595.27,-142.8"/>
<polygon fill="black" stroke="black" points="2595.27,-146.3 2605.27,-142.8 2595.27,-139.3 2595.27,-146.3"/>
</g>
<!-- MenuService -->
<g id="node29" class="node">
<title>MenuService</title>
<ellipse fill="#fdb462" stroke="black" cx="270" cy="-66.8" rx="62.55" ry="18"/>
<text text-anchor="middle" x="270" y="-62.6" font-family="Times,serif" font-size="14.00">MenuService</text>
</g>
<!-- MenuService&#45;&gt;AppModule -->
<g id="edge28" class="edge">
<title>MenuService&#45;&gt;AppModule</title>
<path fill="none" stroke="black" d="M270,-85.12C270,-108.46 270,-145.8 270,-145.8 270,-145.8 2595.24,-145.8 2595.24,-145.8"/>
<polygon fill="black" stroke="black" points="2595.24,-149.3 2605.24,-145.8 2595.24,-142.3 2595.24,-149.3"/>
</g>
<!-- NavigationService -->
<g id="node30" class="node">
<title>NavigationService</title>
<ellipse fill="#fdb462" stroke="black" cx="107" cy="-66.8" rx="82.81" ry="18"/>
<text text-anchor="middle" x="107" y="-62.6" font-family="Times,serif" font-size="14.00">NavigationService</text>
</g>
<!-- NavigationService&#45;&gt;AppModule -->
<g id="edge29" class="edge">
<title>NavigationService&#45;&gt;AppModule</title>
<path fill="none" stroke="black" d="M107,-85.18C107,-109.08 107,-147.8 107,-147.8 107,-147.8 2595.29,-147.8 2595.29,-147.8"/>
<polygon fill="black" stroke="black" points="2595.29,-151.3 2605.29,-147.8 2595.29,-144.3 2595.29,-151.3"/>
</g>
</g>
</svg>
