<?xml version="1.0" encoding="UTF-8" standalone="no"?>
<!DOCTYPE svg PUBLIC "-//W3C//DTD SVG 1.1//EN"
 "http://www.w3.org/Graphics/SVG/1.1/DTD/svg11.dtd">
<!-- Generated by graphviz version 5.0.0 (20220707.1540)
 -->
<!-- Title: dependencies Pages: 1 -->
<svg width="5704pt" height="174pt"
 viewBox="0.00 0.00 5704.00 173.80" xmlns="http://www.w3.org/2000/svg" xmlns:xlink="http://www.w3.org/1999/xlink">
<g id="graph0" class="graph" transform="scale(1 1) rotate(0) translate(4 169.8)">
<title>dependencies</title>
<polygon fill="white" stroke="transparent" points="-4,4 -4,-169.8 5700,-169.8 5700,4 -4,4"/>
<text text-anchor="middle" x="2848" y="-8.2" font-family="sans-serif" font-size="14.00">dependencies</text>
<g id="clust1" class="cluster">
<title>cluster_AppModule</title>
<polygon fill="none" stroke="black" stroke-dasharray="1,5" points="8,-32.8 8,-157.8 5688,-157.8 5688,-32.8 8,-32.8"/>
</g>
<g id="clust29" class="cluster">
<title>cluster_AppModule_imports</title>
<polygon fill="none" stroke="black" points="5536,-40.8 5536,-92.8 5680,-92.8 5680,-40.8 5536,-40.8"/>
</g>
<g id="clust32" class="cluster">
<title>cluster_AppModule_providers</title>
<polygon fill="none" stroke="black" points="5016,-40.8 5016,-92.8 5528,-92.8 5528,-40.8 5016,-40.8"/>
</g>
<g id="clust2" class="cluster">
<title>cluster_AppModule_declarations</title>
<polygon fill="none" stroke="black" points="16,-40.8 16,-92.8 5008,-92.8 5008,-40.8 16,-40.8"/>
</g>
<!-- BarDiagramBothComponent -->
<g id="node1" class="node">
<title>BarDiagramBothComponent</title>
<polygon fill="#ffffb3" stroke="black" points="4999.75,-84.8 4822.25,-84.8 4822.25,-48.8 4999.75,-48.8 4999.75,-84.8"/>
<text text-anchor="middle" x="4911" y="-62.6" font-family="Times,serif" font-size="14.00">BarDiagramBothComponent</text>
</g>
<!-- AppModule -->
<g id="node27" class="node">
<title>AppModule</title>
<polygon fill="#8dd3c7" stroke="black" points="2798.66,-149.8 2795.66,-153.8 2774.66,-153.8 2771.66,-149.8 2715.34,-149.8 2715.34,-113.8 2798.66,-113.8 2798.66,-149.8"/>
<text text-anchor="middle" x="2757" y="-127.6" font-family="Times,serif" font-size="14.00">AppModule</text>
</g>
<!-- BarDiagramBothComponent&#45;&gt;AppModule -->
<g id="edge1" class="edge">
<title>BarDiagramBothComponent&#45;&gt;AppModule</title>
<path fill="none" stroke="black" d="M4911,-85.08C4911,-106.12 4911,-137.8 4911,-137.8 4911,-137.8 2809.06,-137.8 2809.06,-137.8"/>
<polygon fill="black" stroke="black" points="2809.06,-134.3 2799.06,-137.8 2809.06,-141.3 2809.06,-134.3"/>
</g>
<!-- BarDiagramCompareComponent -->
<g id="node2" class="node">
<title>BarDiagramCompareComponent</title>
<polygon fill="#ffffb3" stroke="black" points="4803.84,-84.8 4602.16,-84.8 4602.16,-48.8 4803.84,-48.8 4803.84,-84.8"/>
<text text-anchor="middle" x="4703" y="-62.6" font-family="Times,serif" font-size="14.00">BarDiagramCompareComponent</text>
</g>
<!-- BarDiagramCompareComponent&#45;&gt;AppModule -->
<g id="edge2" class="edge">
<title>BarDiagramCompareComponent&#45;&gt;AppModule</title>
<path fill="none" stroke="black" d="M4703,-84.93C4703,-105.37 4703,-135.8 4703,-135.8 4703,-135.8 2809,-135.8 2809,-135.8"/>
<polygon fill="black" stroke="black" points="2809,-132.3 2799,-135.8 2809,-139.3 2809,-132.3"/>
</g>
<!-- BarDiagramComponent -->
<g id="node3" class="node">
<title>BarDiagramComponent</title>
<polygon fill="#ffffb3" stroke="black" points="4584.03,-84.8 4433.97,-84.8 4433.97,-48.8 4584.03,-48.8 4584.03,-84.8"/>
<text text-anchor="middle" x="4509" y="-62.6" font-family="Times,serif" font-size="14.00">BarDiagramComponent</text>
</g>
<!-- BarDiagramComponent&#45;&gt;AppModule -->
<g id="edge3" class="edge">
<title>BarDiagramComponent&#45;&gt;AppModule</title>
<path fill="none" stroke="black" d="M4509,-85.11C4509,-104.95 4509,-133.8 4509,-133.8 4509,-133.8 2809.01,-133.8 2809.01,-133.8"/>
<polygon fill="black" stroke="black" points="2809.01,-130.3 2799.01,-133.8 2809.01,-137.3 2809.01,-130.3"/>
</g>
<!-- CalculationCardComponent -->
<g id="node4" class="node">
<title>CalculationCardComponent</title>
<polygon fill="#ffffb3" stroke="black" points="4415.58,-84.8 4242.42,-84.8 4242.42,-48.8 4415.58,-48.8 4415.58,-84.8"/>
<text text-anchor="middle" x="4329" y="-62.6" font-family="Times,serif" font-size="14.00">CalculationCardComponent</text>
</g>
<!-- CalculationCardComponent&#45;&gt;AppModule -->
<g id="edge4" class="edge">
<title>CalculationCardComponent&#45;&gt;AppModule</title>
<path fill="none" stroke="black" d="M4329,-84.97C4329,-103.89 4329,-130.8 4329,-130.8 4329,-130.8 2809.05,-130.8 2809.05,-130.8"/>
<polygon fill="black" stroke="black" points="2809.05,-127.3 2799.05,-130.8 2809.05,-134.3 2809.05,-127.3"/>
</g>
<!-- CalculationDiagramCompareComponent -->
<g id="node5" class="node">
<title>CalculationDiagramCompareComponent</title>
<polygon fill="#ffffb3" stroke="black" points="4224.17,-84.8 3977.83,-84.8 3977.83,-48.8 4224.17,-48.8 4224.17,-84.8"/>
<text text-anchor="middle" x="4101" y="-62.6" font-family="Times,serif" font-size="14.00">CalculationDiagramCompareComponent</text>
</g>
<!-- CalculationDiagramCompareComponent&#45;&gt;AppModule -->
<g id="edge5" class="edge">
<title>CalculationDiagramCompareComponent&#45;&gt;AppModule</title>
<path fill="none" stroke="black" d="M4101,-85.07C4101,-103.36 4101,-128.8 4101,-128.8 4101,-128.8 2808.7,-128.8 2808.7,-128.8"/>
<polygon fill="black" stroke="black" points="2808.7,-125.3 2798.7,-128.8 2808.7,-132.3 2808.7,-125.3"/>
</g>
<!-- CalculationDiagramComponent -->
<g id="node6" class="node">
<title>CalculationDiagramComponent</title>
<polygon fill="#ffffb3" stroke="black" points="3959.35,-84.8 3764.65,-84.8 3764.65,-48.8 3959.35,-48.8 3959.35,-84.8"/>
<text text-anchor="middle" x="3862" y="-62.6" font-family="Times,serif" font-size="14.00">CalculationDiagramComponent</text>
</g>
<!-- CalculationDiagramComponent&#45;&gt;AppModule -->
<g id="edge6" class="edge">
<title>CalculationDiagramComponent&#45;&gt;AppModule</title>
<path fill="none" stroke="black" d="M3862,-84.82C3862,-102.17 3862,-125.8 3862,-125.8 3862,-125.8 2808.97,-125.8 2808.97,-125.8"/>
<polygon fill="black" stroke="black" points="2808.97,-122.3 2798.97,-125.8 2808.97,-129.3 2808.97,-122.3"/>
</g>
<!-- CalculationListComponent -->
<g id="node7" class="node">
<title>CalculationListComponent</title>
<polygon fill="#ffffb3" stroke="black" points="3746.65,-84.8 3579.35,-84.8 3579.35,-48.8 3746.65,-48.8 3746.65,-84.8"/>
<text text-anchor="middle" x="3663" y="-62.6" font-family="Times,serif" font-size="14.00">CalculationListComponent</text>
</g>
<!-- CalculationListComponent&#45;&gt;AppModule -->
<g id="edge7" class="edge">
<title>CalculationListComponent&#45;&gt;AppModule</title>
<path fill="none" stroke="black" d="M3663,-84.84C3663,-101.53 3663,-123.8 3663,-123.8 3663,-123.8 2808.88,-123.8 2808.88,-123.8"/>
<polygon fill="black" stroke="black" points="2808.88,-120.3 2798.88,-123.8 2808.88,-127.3 2808.88,-120.3"/>
</g>
<!-- CalculationSelectCompareComponent -->
<g id="node8" class="node">
<title>CalculationSelectCompareComponent</title>
<polygon fill="#ffffb3" stroke="black" points="3560.89,-84.8 3329.11,-84.8 3329.11,-48.8 3560.89,-48.8 3560.89,-84.8"/>
<text text-anchor="middle" x="3445" y="-62.6" font-family="Times,serif" font-size="14.00">CalculationSelectCompareComponent</text>
</g>
<!-- CalculationSelectCompareComponent&#45;&gt;AppModule -->
<g id="edge8" class="edge">
<title>CalculationSelectCompareComponent&#45;&gt;AppModule</title>
<path fill="none" stroke="black" d="M3445,-84.81C3445,-100.85 3445,-121.8 3445,-121.8 3445,-121.8 2808.74,-121.8 2808.74,-121.8"/>
<polygon fill="black" stroke="black" points="2808.74,-118.3 2798.74,-121.8 2808.74,-125.3 2808.74,-118.3"/>
</g>
<!-- CreateCalculationComponent -->
<g id="node9" class="node">
<title>CreateCalculationComponent</title>
<polygon fill="#ffffb3" stroke="black" points="3311.4,-84.8 3128.6,-84.8 3128.6,-48.8 3311.4,-48.8 3311.4,-84.8"/>
<text text-anchor="middle" x="3220" y="-62.6" font-family="Times,serif" font-size="14.00">CreateCalculationComponent</text>
</g>
<!-- CreateCalculationComponent&#45;&gt;AppModule -->
<g id="edge9" class="edge">
<title>CreateCalculationComponent&#45;&gt;AppModule</title>
<path fill="none" stroke="black" d="M3220,-84.99C3220,-99.98 3220,-118.8 3220,-118.8 3220,-118.8 2808.9,-118.8 2808.9,-118.8"/>
<polygon fill="black" stroke="black" points="2808.9,-115.3 2798.9,-118.8 2808.9,-122.3 2808.9,-115.3"/>
</g>
<!-- CreateModuleComponent -->
<g id="node10" class="node">
<title>CreateModuleComponent</title>
<polygon fill="#ffffb3" stroke="black" points="3110.91,-84.8 2949.09,-84.8 2949.09,-48.8 3110.91,-48.8 3110.91,-84.8"/>
<text text-anchor="middle" x="3030" y="-62.6" font-family="Times,serif" font-size="14.00">CreateModuleComponent</text>
</g>
<!-- CreateModuleComponent&#45;&gt;AppModule -->
<g id="edge10" class="edge">
<title>CreateModuleComponent&#45;&gt;AppModule</title>
<path fill="none" stroke="black" d="M3030,-84.85C3030,-99.17 3030,-116.8 3030,-116.8 3030,-116.8 2808.76,-116.8 2808.76,-116.8"/>
<polygon fill="black" stroke="black" points="2808.76,-113.3 2798.76,-116.8 2808.76,-120.3 2808.76,-113.3"/>
</g>
<!-- CreateTypeComponent -->
<g id="node11" class="node">
<title>CreateTypeComponent</title>
<polygon fill="#ffffb3" stroke="black" points="2931.13,-84.8 2784.87,-84.8 2784.87,-48.8 2931.13,-48.8 2931.13,-84.8"/>
<text text-anchor="middle" x="2858" y="-62.6" font-family="Times,serif" font-size="14.00">CreateTypeComponent</text>
</g>
<!-- CreateTypeComponent&#45;&gt;AppModule -->
<g id="edge11" class="edge">
<title>CreateTypeComponent&#45;&gt;AppModule</title>
<path fill="none" stroke="black" d="M2791.76,-84.91C2791.76,-84.91 2791.76,-103.79 2791.76,-103.79"/>
<polygon fill="black" stroke="black" points="2788.26,-103.79 2791.76,-113.79 2795.26,-103.79 2788.26,-103.79"/>
</g>
<!-- DiagramCompareDialogComponent -->
<g id="node12" class="node">
<title>DiagramCompareDialogComponent</title>
<polygon fill="#ffffb3" stroke="black" points="2766.73,-84.8 2547.27,-84.8 2547.27,-48.8 2766.73,-48.8 2766.73,-84.8"/>
<text text-anchor="middle" x="2657" y="-62.6" font-family="Times,serif" font-size="14.00">DiagramCompareDialogComponent</text>
</g>
<!-- DiagramCompareDialogComponent&#45;&gt;AppModule -->
<g id="edge12" class="edge">
<title>DiagramCompareDialogComponent&#45;&gt;AppModule</title>
<path fill="none" stroke="black" d="M2741.02,-84.91C2741.02,-84.91 2741.02,-103.79 2741.02,-103.79"/>
<polygon fill="black" stroke="black" points="2737.52,-103.79 2741.02,-113.79 2744.52,-103.79 2737.52,-103.79"/>
</g>
<!-- DiagramDialogComponent -->
<g id="node13" class="node">
<title>DiagramDialogComponent</title>
<polygon fill="#ffffb3" stroke="black" points="2529.41,-84.8 2360.59,-84.8 2360.59,-48.8 2529.41,-48.8 2529.41,-84.8"/>
<text text-anchor="middle" x="2445" y="-62.6" font-family="Times,serif" font-size="14.00">DiagramDialogComponent</text>
</g>
<!-- DiagramDialogComponent&#45;&gt;AppModule -->
<g id="edge13" class="edge">
<title>DiagramDialogComponent&#45;&gt;AppModule</title>
<path fill="none" stroke="black" d="M2445,-84.85C2445,-99.17 2445,-116.8 2445,-116.8 2445,-116.8 2705.25,-116.8 2705.25,-116.8"/>
<polygon fill="black" stroke="black" points="2705.25,-120.3 2715.25,-116.8 2705.25,-113.3 2705.25,-120.3"/>
</g>
<!-- EmissionItemComponent -->
<g id="node14" class="node">
<title>EmissionItemComponent</title>
<polygon fill="#ffffb3" stroke="black" points="2342.6,-84.8 2183.4,-84.8 2183.4,-48.8 2342.6,-48.8 2342.6,-84.8"/>
<text text-anchor="middle" x="2263" y="-62.6" font-family="Times,serif" font-size="14.00">EmissionItemComponent</text>
</g>
<!-- EmissionItemComponent&#45;&gt;AppModule -->
<g id="edge14" class="edge">
<title>EmissionItemComponent&#45;&gt;AppModule</title>
<path fill="none" stroke="black" d="M2263,-84.99C2263,-99.98 2263,-118.8 2263,-118.8 2263,-118.8 2705.31,-118.8 2705.31,-118.8"/>
<polygon fill="black" stroke="black" points="2705.31,-122.3 2715.31,-118.8 2705.31,-115.3 2705.31,-122.3"/>
</g>
<!-- EmissionListComponent -->
<g id="node15" class="node">
<title>EmissionListComponent</title>
<polygon fill="#ffffb3" stroke="black" points="2165.73,-84.8 2010.27,-84.8 2010.27,-48.8 2165.73,-48.8 2165.73,-84.8"/>
<text text-anchor="middle" x="2088" y="-62.6" font-family="Times,serif" font-size="14.00">EmissionListComponent</text>
</g>
<!-- EmissionListComponent&#45;&gt;AppModule -->
<g id="edge15" class="edge">
<title>EmissionListComponent&#45;&gt;AppModule</title>
<path fill="none" stroke="black" d="M2088,-84.81C2088,-100.85 2088,-121.8 2088,-121.8 2088,-121.8 2705.15,-121.8 2705.15,-121.8"/>
<polygon fill="black" stroke="black" points="2705.15,-125.3 2715.15,-121.8 2705.15,-118.3 2705.15,-125.3"/>
</g>
<!-- FactorEmissionModuleComponent -->
<g id="node16" class="node">
<title>FactorEmissionModuleComponent</title>
<polygon fill="#ffffb3" stroke="black" points="1992.27,-84.8 1779.73,-84.8 1779.73,-48.8 1992.27,-48.8 1992.27,-84.8"/>
<text text-anchor="middle" x="1886" y="-62.6" font-family="Times,serif" font-size="14.00">FactorEmissionModuleComponent</text>
</g>
<!-- FactorEmissionModuleComponent&#45;&gt;AppModule -->
<g id="edge16" class="edge">
<title>FactorEmissionModuleComponent&#45;&gt;AppModule</title>
<path fill="none" stroke="black" d="M1886,-84.84C1886,-101.53 1886,-123.8 1886,-123.8 1886,-123.8 2705.28,-123.8 2705.28,-123.8"/>
<polygon fill="black" stroke="black" points="2705.28,-127.3 2715.28,-123.8 2705.28,-120.3 2705.28,-127.3"/>
</g>
<!-- FileUploadComponent -->
<g id="node17" class="node">
<title>FileUploadComponent</title>
<polygon fill="#ffffb3" stroke="black" points="1761.32,-84.8 1616.68,-84.8 1616.68,-48.8 1761.32,-48.8 1761.32,-84.8"/>
<text text-anchor="middle" x="1689" y="-62.6" font-family="Times,serif" font-size="14.00">FileUploadComponent</text>
</g>
<!-- FileUploadComponent&#45;&gt;AppModule -->
<g id="edge17" class="edge">
<title>FileUploadComponent&#45;&gt;AppModule</title>
<path fill="none" stroke="black" d="M1689,-84.82C1689,-102.17 1689,-125.8 1689,-125.8 1689,-125.8 2705.13,-125.8 2705.13,-125.8"/>
<polygon fill="black" stroke="black" points="2705.13,-129.3 2715.13,-125.8 2705.13,-122.3 2705.13,-129.3"/>
</g>
<!-- FooterComponent -->
<g id="node18" class="node">
<title>FooterComponent</title>
<polygon fill="#ffffb3" stroke="black" points="1598.88,-84.8 1481.12,-84.8 1481.12,-48.8 1598.88,-48.8 1598.88,-84.8"/>
<text text-anchor="middle" x="1540" y="-62.6" font-family="Times,serif" font-size="14.00">FooterComponent</text>
</g>
<!-- FooterComponent&#45;&gt;AppModule -->
<g id="edge18" class="edge">
<title>FooterComponent&#45;&gt;AppModule</title>
<path fill="none" stroke="black" d="M1540,-85.07C1540,-103.36 1540,-128.8 1540,-128.8 1540,-128.8 2705.11,-128.8 2705.11,-128.8"/>
<polygon fill="black" stroke="black" points="2705.11,-132.3 2715.11,-128.8 2705.11,-125.3 2705.11,-132.3"/>
</g>
<!-- ImportFileDialogComponent -->
<g id="node19" class="node">
<title>ImportFileDialogComponent</title>
<polygon fill="#ffffb3" stroke="black" points="1462.82,-84.8 1283.18,-84.8 1283.18,-48.8 1462.82,-48.8 1462.82,-84.8"/>
<text text-anchor="middle" x="1373" y="-62.6" font-family="Times,serif" font-size="14.00">ImportFileDialogComponent</text>
</g>
<!-- ImportFileDialogComponent&#45;&gt;AppModule -->
<g id="edge19" class="edge">
<title>ImportFileDialogComponent&#45;&gt;AppModule</title>
<path fill="none" stroke="black" d="M1373,-84.97C1373,-103.89 1373,-130.8 1373,-130.8 1373,-130.8 2705.2,-130.8 2705.2,-130.8"/>
<polygon fill="black" stroke="black" points="2705.2,-134.3 2715.2,-130.8 2705.2,-127.3 2705.2,-134.3"/>
</g>
<!-- NavigationComponent -->
<g id="node20" class="node">
<title>NavigationComponent</title>
<polygon fill="#ffffb3" stroke="black" points="1265.54,-84.8 1122.46,-84.8 1122.46,-48.8 1265.54,-48.8 1265.54,-84.8"/>
<text text-anchor="middle" x="1194" y="-62.6" font-family="Times,serif" font-size="14.00">NavigationComponent</text>
</g>
<!-- NavigationComponent&#45;&gt;AppModule -->
<g id="edge20" class="edge">
<title>NavigationComponent&#45;&gt;AppModule</title>
<path fill="none" stroke="black" d="M1194,-85.11C1194,-104.95 1194,-133.8 1194,-133.8 1194,-133.8 2705.19,-133.8 2705.19,-133.8"/>
<polygon fill="black" stroke="black" points="2705.19,-137.3 2715.19,-133.8 2705.19,-130.3 2705.19,-137.3"/>
</g>
<!-- PieDiagramComponent -->
<g id="node21" class="node">
<title>PieDiagramComponent</title>
<polygon fill="#ffffb3" stroke="black" points="1104.2,-84.8 955.8,-84.8 955.8,-48.8 1104.2,-48.8 1104.2,-84.8"/>
<text text-anchor="middle" x="1030" y="-62.6" font-family="Times,serif" font-size="14.00">PieDiagramComponent</text>
</g>
<!-- PieDiagramComponent&#45;&gt;AppModule -->
<g id="edge21" class="edge">
<title>PieDiagramComponent&#45;&gt;AppModule</title>
<path fill="none" stroke="black" d="M1030,-84.93C1030,-105.37 1030,-135.8 1030,-135.8 1030,-135.8 2705.17,-135.8 2705.17,-135.8"/>
<polygon fill="black" stroke="black" points="2705.17,-139.3 2715.17,-135.8 2705.17,-132.3 2705.17,-139.3"/>
</g>
<!-- SettingsComponent -->
<g id="node22" class="node">
<title>SettingsComponent</title>
<polygon fill="#ffffb3" stroke="black" points="938.45,-84.8 811.55,-84.8 811.55,-48.8 938.45,-48.8 938.45,-84.8"/>
<text text-anchor="middle" x="875" y="-62.6" font-family="Times,serif" font-size="14.00">SettingsComponent</text>
</g>
<!-- SettingsComponent&#45;&gt;AppModule -->
<g id="edge22" class="edge">
<title>SettingsComponent&#45;&gt;AppModule</title>
<path fill="none" stroke="black" d="M875,-85.08C875,-106.12 875,-137.8 875,-137.8 875,-137.8 2705.05,-137.8 2705.05,-137.8"/>
<polygon fill="black" stroke="black" points="2705.05,-141.3 2715.05,-137.8 2705.05,-134.3 2705.05,-141.3"/>
</g>
<!-- SpecificCalculationListComponent -->
<g id="node23" class="node">
<title>SpecificCalculationListComponent</title>
<polygon fill="#ffffb3" stroke="black" points="793.52,-84.8 580.48,-84.8 580.48,-48.8 793.52,-48.8 793.52,-84.8"/>
<text text-anchor="middle" x="687" y="-62.6" font-family="Times,serif" font-size="14.00">SpecificCalculationListComponent</text>
</g>
<!-- SpecificCalculationListComponent&#45;&gt;AppModule -->
<g id="edge23" class="edge">
<title>SpecificCalculationListComponent&#45;&gt;AppModule</title>
<path fill="none" stroke="black" d="M687,-85.09C687,-107.01 687,-140.8 687,-140.8 687,-140.8 2705.18,-140.8 2705.18,-140.8"/>
<polygon fill="black" stroke="black" points="2705.18,-144.3 2715.18,-140.8 2705.18,-137.3 2705.18,-144.3"/>
</g>
<!-- TreeDiagramComponent -->
<g id="node24" class="node">
<title>TreeDiagramComponent</title>
<polygon fill="#ffffb3" stroke="black" points="561.95,-84.8 406.05,-84.8 406.05,-48.8 561.95,-48.8 561.95,-84.8"/>
<text text-anchor="middle" x="484" y="-62.6" font-family="Times,serif" font-size="14.00">TreeDiagramComponent</text>
</g>
<!-- TreeDiagramComponent&#45;&gt;AppModule -->
<g id="edge24" class="edge">
<title>TreeDiagramComponent&#45;&gt;AppModule</title>
<path fill="none" stroke="black" d="M484,-84.81C484,-107.29 484,-142.8 484,-142.8 484,-142.8 2705.12,-142.8 2705.12,-142.8"/>
<polygon fill="black" stroke="black" points="2705.12,-146.3 2715.12,-142.8 2705.12,-139.3 2705.12,-146.3"/>
</g>
<!-- TypeEmissionModuleComponent -->
<g id="node25" class="node">
<title>TypeEmissionModuleComponent</title>
<polygon fill="#ffffb3" stroke="black" points="387.77,-84.8 182.23,-84.8 182.23,-48.8 387.77,-48.8 387.77,-84.8"/>
<text text-anchor="middle" x="285" y="-62.6" font-family="Times,serif" font-size="14.00">TypeEmissionModuleComponent</text>
</g>
<!-- TypeEmissionModuleComponent&#45;&gt;AppModule -->
<g id="edge25" class="edge">
<title>TypeEmissionModuleComponent&#45;&gt;AppModule</title>
<path fill="none" stroke="black" d="M285,-85.12C285,-108.46 285,-145.8 285,-145.8 285,-145.8 2705.13,-145.8 2705.13,-145.8"/>
<polygon fill="black" stroke="black" points="2705.13,-149.3 2715.13,-145.8 2705.13,-142.3 2705.13,-149.3"/>
</g>
<!-- TypeInputComponent -->
<g id="node26" class="node">
<title>TypeInputComponent</title>
<polygon fill="#ffffb3" stroke="black" points="163.65,-84.8 24.35,-84.8 24.35,-48.8 163.65,-48.8 163.65,-84.8"/>
<text text-anchor="middle" x="94" y="-62.6" font-family="Times,serif" font-size="14.00">TypeInputComponent</text>
</g>
<!-- TypeInputComponent&#45;&gt;AppModule -->
<g id="edge26" class="edge">
<title>TypeInputComponent&#45;&gt;AppModule</title>
<path fill="none" stroke="black" d="M94,-85.18C94,-109.08 94,-147.8 94,-147.8 94,-147.8 2705.17,-147.8 2705.17,-147.8"/>
<polygon fill="black" stroke="black" points="2705.17,-151.3 2715.17,-147.8 2705.17,-144.3 2705.17,-151.3"/>
</g>
<!-- AppRoutingModule -->
<g id="node28" class="node">
<title>AppRoutingModule</title>
<polygon fill="#8dd3c7" stroke="black" points="5672.28,-84.8 5669.28,-88.8 5648.28,-88.8 5645.28,-84.8 5543.72,-84.8 5543.72,-48.8 5672.28,-48.8 5672.28,-84.8"/>
<text text-anchor="middle" x="5608" y="-62.6" font-family="Times,serif" font-size="14.00">AppRoutingModule</text>
</g>
<!-- AppRoutingModule&#45;&gt;AppModule -->
<g id="edge27" class="edge">
<title>AppRoutingModule&#45;&gt;AppModule</title>
<path fill="none" stroke="black" d="M5608,-85.18C5608,-109.08 5608,-147.8 5608,-147.8 5608,-147.8 2808.68,-147.8 2808.68,-147.8"/>
<polygon fill="black" stroke="black" points="2808.68,-144.3 2798.68,-147.8 2808.68,-151.3 2808.68,-144.3"/>
</g>
<!-- CalculationService -->
<g id="node29" class="node">
<title>CalculationService</title>
<ellipse fill="#fdb462" stroke="black" cx="5435" cy="-66.8" rx="84.52" ry="18"/>
<text text-anchor="middle" x="5435" y="-62.6" font-family="Times,serif" font-size="14.00">CalculationService</text>
</g>
<!-- CalculationService&#45;&gt;AppModule -->
<g id="edge28" class="edge">
<title>CalculationService&#45;&gt;AppModule</title>
<path fill="none" stroke="black" d="M5435,-85.12C5435,-108.46 5435,-145.8 5435,-145.8 5435,-145.8 2808.8,-145.8 2808.8,-145.8"/>
<polygon fill="black" stroke="black" points="2808.8,-142.3 2798.8,-145.8 2808.8,-149.3 2808.8,-142.3"/>
</g>
<!-- MenuService -->
<g id="node30" class="node">
<title>MenuService</title>
<ellipse fill="#fdb462" stroke="black" cx="5270" cy="-66.8" rx="62.55" ry="18"/>
<text text-anchor="middle" x="5270" y="-62.6" font-family="Times,serif" font-size="14.00">MenuService</text>
</g>
<!-- MenuService&#45;&gt;AppModule -->
<g id="edge29" class="edge">
<title>MenuService&#45;&gt;AppModule</title>
<path fill="none" stroke="black" d="M5270,-84.81C5270,-107.29 5270,-142.8 5270,-142.8 5270,-142.8 2808.78,-142.8 2808.78,-142.8"/>
<polygon fill="black" stroke="black" points="2808.78,-139.3 2798.78,-142.8 2808.78,-146.3 2808.78,-139.3"/>
</g>
<!-- NavigationService -->
<g id="node31" class="node">
<title>NavigationService</title>
<ellipse fill="#fdb462" stroke="black" cx="5107" cy="-66.8" rx="82.81" ry="18"/>
<text text-anchor="middle" x="5107" y="-62.6" font-family="Times,serif" font-size="14.00">NavigationService</text>
</g>
<!-- NavigationService&#45;&gt;AppModule -->
<g id="edge30" class="edge">
<title>NavigationService&#45;&gt;AppModule</title>
<path fill="none" stroke="black" d="M5107,-85.09C5107,-107.01 5107,-140.8 5107,-140.8 5107,-140.8 2808.79,-140.8 2808.79,-140.8"/>
<polygon fill="black" stroke="black" points="2808.79,-137.3 2798.79,-140.8 2808.79,-144.3 2808.79,-137.3"/>
</g>
</g>
</svg>
