<?xml version="1.0" encoding="UTF-8" standalone="no"?>
<!DOCTYPE svg PUBLIC "-//W3C//DTD SVG 1.1//EN"
 "http://www.w3.org/Graphics/SVG/1.1/DTD/svg11.dtd">
<!-- Generated by graphviz version 5.0.0 (20220707.1540)
 -->
<!-- Title: dependencies Pages: 1 -->
<svg width="5568pt" height="174pt"
 viewBox="0.00 0.00 5568.00 173.80" xmlns="http://www.w3.org/2000/svg" xmlns:xlink="http://www.w3.org/1999/xlink">
<g id="graph0" class="graph" transform="scale(1 1) rotate(0) translate(4 169.8)">
<title>dependencies</title>
<polygon fill="white" stroke="transparent" points="-4,4 -4,-169.8 5564,-169.8 5564,4 -4,4"/>
<text text-anchor="middle" x="2780" y="-8.2" font-family="sans-serif" font-size="14.00">dependencies</text>
<g id="clust1" class="cluster">
<title>cluster_AppModule</title>
<polygon fill="none" stroke="black" stroke-dasharray="1,5" points="8,-32.8 8,-157.8 5552,-157.8 5552,-32.8 8,-32.8"/>
</g>
<g id="clust28" class="cluster">
<title>cluster_AppModule_imports</title>
<polygon fill="none" stroke="black" points="5400,-40.8 5400,-92.8 5544,-92.8 5544,-40.8 5400,-40.8"/>
</g>
<g id="clust31" class="cluster">
<title>cluster_AppModule_providers</title>
<polygon fill="none" stroke="black" points="4880,-40.8 4880,-92.8 5392,-92.8 5392,-40.8 4880,-40.8"/>
</g>
<g id="clust2" class="cluster">
<title>cluster_AppModule_declarations</title>
<polygon fill="none" stroke="black" points="16,-40.8 16,-92.8 4872,-92.8 4872,-40.8 16,-40.8"/>
</g>
<!-- BarDiagramBothComponent -->
<g id="node1" class="node">
<title>BarDiagramBothComponent</title>
<polygon fill="#ffffb3" stroke="black" points="4863.75,-84.8 4686.25,-84.8 4686.25,-48.8 4863.75,-48.8 4863.75,-84.8"/>
<text text-anchor="middle" x="4775" y="-62.6" font-family="Times,serif" font-size="14.00">BarDiagramBothComponent</text>
</g>
<!-- AppModule -->
<g id="node26" class="node">
<title>AppModule</title>
<polygon fill="#8dd3c7" stroke="black" points="2763.66,-149.8 2760.66,-153.8 2739.66,-153.8 2736.66,-149.8 2680.34,-149.8 2680.34,-113.8 2763.66,-113.8 2763.66,-149.8"/>
<text text-anchor="middle" x="2722" y="-127.6" font-family="Times,serif" font-size="14.00">AppModule</text>
</g>
<!-- BarDiagramBothComponent&#45;&gt;AppModule -->
<g id="edge1" class="edge">
<title>BarDiagramBothComponent&#45;&gt;AppModule</title>
<path fill="none" stroke="black" d="M4775,-85.08C4775,-106.12 4775,-137.8 4775,-137.8 4775,-137.8 2773.94,-137.8 2773.94,-137.8"/>
<polygon fill="black" stroke="black" points="2773.94,-134.3 2763.94,-137.8 2773.94,-141.3 2773.94,-134.3"/>
</g>
<!-- BarDiagramCompareComponent -->
<g id="node2" class="node">
<title>BarDiagramCompareComponent</title>
<polygon fill="#ffffb3" stroke="black" points="4667.84,-84.8 4466.16,-84.8 4466.16,-48.8 4667.84,-48.8 4667.84,-84.8"/>
<text text-anchor="middle" x="4567" y="-62.6" font-family="Times,serif" font-size="14.00">BarDiagramCompareComponent</text>
</g>
<!-- BarDiagramCompareComponent&#45;&gt;AppModule -->
<g id="edge2" class="edge">
<title>BarDiagramCompareComponent&#45;&gt;AppModule</title>
<path fill="none" stroke="black" d="M4567,-84.93C4567,-105.37 4567,-135.8 4567,-135.8 4567,-135.8 2774,-135.8 2774,-135.8"/>
<polygon fill="black" stroke="black" points="2774,-132.3 2764,-135.8 2774,-139.3 2774,-132.3"/>
</g>
<!-- BarDiagramComponent -->
<g id="node3" class="node">
<title>BarDiagramComponent</title>
<polygon fill="#ffffb3" stroke="black" points="4448.03,-84.8 4297.97,-84.8 4297.97,-48.8 4448.03,-48.8 4448.03,-84.8"/>
<text text-anchor="middle" x="4373" y="-62.6" font-family="Times,serif" font-size="14.00">BarDiagramComponent</text>
</g>
<!-- BarDiagramComponent&#45;&gt;AppModule -->
<g id="edge3" class="edge">
<title>BarDiagramComponent&#45;&gt;AppModule</title>
<path fill="none" stroke="black" d="M4373,-85.11C4373,-104.95 4373,-133.8 4373,-133.8 4373,-133.8 2774.05,-133.8 2774.05,-133.8"/>
<polygon fill="black" stroke="black" points="2774.05,-130.3 2764.05,-133.8 2774.05,-137.3 2774.05,-130.3"/>
</g>
<!-- CalculationCardComponent -->
<g id="node4" class="node">
<title>CalculationCardComponent</title>
<polygon fill="#ffffb3" stroke="black" points="4279.58,-84.8 4106.42,-84.8 4106.42,-48.8 4279.58,-48.8 4279.58,-84.8"/>
<text text-anchor="middle" x="4193" y="-62.6" font-family="Times,serif" font-size="14.00">CalculationCardComponent</text>
</g>
<!-- CalculationCardComponent&#45;&gt;AppModule -->
<g id="edge4" class="edge">
<title>CalculationCardComponent&#45;&gt;AppModule</title>
<path fill="none" stroke="black" d="M4193,-84.97C4193,-103.89 4193,-130.8 4193,-130.8 4193,-130.8 2774.05,-130.8 2774.05,-130.8"/>
<polygon fill="black" stroke="black" points="2774.05,-127.3 2764.05,-130.8 2774.05,-134.3 2774.05,-127.3"/>
</g>
<!-- CalculationDiagramCompareComponent -->
<g id="node5" class="node">
<title>CalculationDiagramCompareComponent</title>
<polygon fill="#ffffb3" stroke="black" points="4088.17,-84.8 3841.83,-84.8 3841.83,-48.8 4088.17,-48.8 4088.17,-84.8"/>
<text text-anchor="middle" x="3965" y="-62.6" font-family="Times,serif" font-size="14.00">CalculationDiagramCompareComponent</text>
</g>
<!-- CalculationDiagramCompareComponent&#45;&gt;AppModule -->
<g id="edge5" class="edge">
<title>CalculationDiagramCompareComponent&#45;&gt;AppModule</title>
<path fill="none" stroke="black" d="M3965,-85.07C3965,-103.36 3965,-128.8 3965,-128.8 3965,-128.8 2773.71,-128.8 2773.71,-128.8"/>
<polygon fill="black" stroke="black" points="2773.71,-125.3 2763.71,-128.8 2773.71,-132.3 2773.71,-125.3"/>
</g>
<!-- CalculationDiagramComponent -->
<g id="node6" class="node">
<title>CalculationDiagramComponent</title>
<polygon fill="#ffffb3" stroke="black" points="3823.35,-84.8 3628.65,-84.8 3628.65,-48.8 3823.35,-48.8 3823.35,-84.8"/>
<text text-anchor="middle" x="3726" y="-62.6" font-family="Times,serif" font-size="14.00">CalculationDiagramComponent</text>
</g>
<!-- CalculationDiagramComponent&#45;&gt;AppModule -->
<g id="edge6" class="edge">
<title>CalculationDiagramComponent&#45;&gt;AppModule</title>
<path fill="none" stroke="black" d="M3726,-84.82C3726,-102.17 3726,-125.8 3726,-125.8 3726,-125.8 2773.86,-125.8 2773.86,-125.8"/>
<polygon fill="black" stroke="black" points="2773.86,-122.3 2763.86,-125.8 2773.86,-129.3 2773.86,-122.3"/>
</g>
<!-- CalculationListComponent -->
<g id="node7" class="node">
<title>CalculationListComponent</title>
<polygon fill="#ffffb3" stroke="black" points="3610.65,-84.8 3443.35,-84.8 3443.35,-48.8 3610.65,-48.8 3610.65,-84.8"/>
<text text-anchor="middle" x="3527" y="-62.6" font-family="Times,serif" font-size="14.00">CalculationListComponent</text>
</g>
<!-- CalculationListComponent&#45;&gt;AppModule -->
<g id="edge7" class="edge">
<title>CalculationListComponent&#45;&gt;AppModule</title>
<path fill="none" stroke="black" d="M3527,-84.84C3527,-101.53 3527,-123.8 3527,-123.8 3527,-123.8 2773.87,-123.8 2773.87,-123.8"/>
<polygon fill="black" stroke="black" points="2773.87,-120.3 2763.87,-123.8 2773.87,-127.3 2773.87,-120.3"/>
</g>
<!-- CalculationSelectCompareComponent -->
<g id="node8" class="node">
<title>CalculationSelectCompareComponent</title>
<polygon fill="#ffffb3" stroke="black" points="3424.89,-84.8 3193.11,-84.8 3193.11,-48.8 3424.89,-48.8 3424.89,-84.8"/>
<text text-anchor="middle" x="3309" y="-62.6" font-family="Times,serif" font-size="14.00">CalculationSelectCompareComponent</text>
</g>
<!-- CalculationSelectCompareComponent&#45;&gt;AppModule -->
<g id="edge8" class="edge">
<title>CalculationSelectCompareComponent&#45;&gt;AppModule</title>
<path fill="none" stroke="black" d="M3309,-84.81C3309,-100.85 3309,-121.8 3309,-121.8 3309,-121.8 2773.75,-121.8 2773.75,-121.8"/>
<polygon fill="black" stroke="black" points="2773.75,-118.3 2763.75,-121.8 2773.74,-125.3 2773.75,-118.3"/>
</g>
<!-- CreateCalculationComponent -->
<g id="node9" class="node">
<title>CreateCalculationComponent</title>
<polygon fill="#ffffb3" stroke="black" points="3175.4,-84.8 2992.6,-84.8 2992.6,-48.8 3175.4,-48.8 3175.4,-84.8"/>
<text text-anchor="middle" x="3084" y="-62.6" font-family="Times,serif" font-size="14.00">CreateCalculationComponent</text>
</g>
<!-- CreateCalculationComponent&#45;&gt;AppModule -->
<g id="edge9" class="edge">
<title>CreateCalculationComponent&#45;&gt;AppModule</title>
<path fill="none" stroke="black" d="M3084,-84.99C3084,-99.98 3084,-118.8 3084,-118.8 3084,-118.8 2773.88,-118.8 2773.88,-118.8"/>
<polygon fill="black" stroke="black" points="2773.88,-115.3 2763.88,-118.8 2773.88,-122.3 2773.88,-115.3"/>
</g>
<!-- CreateModuleComponent -->
<g id="node10" class="node">
<title>CreateModuleComponent</title>
<polygon fill="#ffffb3" stroke="black" points="2974.91,-84.8 2813.09,-84.8 2813.09,-48.8 2974.91,-48.8 2974.91,-84.8"/>
<text text-anchor="middle" x="2894" y="-62.6" font-family="Times,serif" font-size="14.00">CreateModuleComponent</text>
</g>
<!-- CreateModuleComponent&#45;&gt;AppModule -->
<g id="edge10" class="edge">
<title>CreateModuleComponent&#45;&gt;AppModule</title>
<path fill="none" stroke="black" d="M2894,-84.85C2894,-99.17 2894,-116.8 2894,-116.8 2894,-116.8 2774.08,-116.8 2774.08,-116.8"/>
<polygon fill="black" stroke="black" points="2774.08,-113.3 2764.08,-116.8 2774.08,-120.3 2774.08,-113.3"/>
</g>
<!-- CreateTypeComponent -->
<g id="node11" class="node">
<title>CreateTypeComponent</title>
<polygon fill="#ffffb3" stroke="black" points="2795.13,-84.8 2648.87,-84.8 2648.87,-48.8 2795.13,-48.8 2795.13,-84.8"/>
<text text-anchor="middle" x="2722" y="-62.6" font-family="Times,serif" font-size="14.00">CreateTypeComponent</text>
</g>
<!-- CreateTypeComponent&#45;&gt;AppModule -->
<g id="edge11" class="edge">
<title>CreateTypeComponent&#45;&gt;AppModule</title>
<path fill="none" stroke="black" d="M2722,-84.91C2722,-84.91 2722,-103.79 2722,-103.79"/>
<polygon fill="black" stroke="black" points="2718.5,-103.79 2722,-113.79 2725.5,-103.79 2718.5,-103.79"/>
</g>
<!-- DiagramCompareDialogComponent -->
<g id="node12" class="node">
<title>DiagramCompareDialogComponent</title>
<polygon fill="#ffffb3" stroke="black" points="2630.73,-84.8 2411.27,-84.8 2411.27,-48.8 2630.73,-48.8 2630.73,-84.8"/>
<text text-anchor="middle" x="2521" y="-62.6" font-family="Times,serif" font-size="14.00">DiagramCompareDialogComponent</text>
</g>
<!-- DiagramCompareDialogComponent&#45;&gt;AppModule -->
<g id="edge12" class="edge">
<title>DiagramCompareDialogComponent&#45;&gt;AppModule</title>
<path fill="none" stroke="black" d="M2521,-84.85C2521,-99.17 2521,-116.8 2521,-116.8 2521,-116.8 2669.86,-116.8 2669.86,-116.8"/>
<polygon fill="black" stroke="black" points="2669.86,-120.3 2679.86,-116.8 2669.86,-113.3 2669.86,-120.3"/>
</g>
<!-- DiagramDialogComponent -->
<g id="node13" class="node">
<title>DiagramDialogComponent</title>
<polygon fill="#ffffb3" stroke="black" points="2393.41,-84.8 2224.59,-84.8 2224.59,-48.8 2393.41,-48.8 2393.41,-84.8"/>
<text text-anchor="middle" x="2309" y="-62.6" font-family="Times,serif" font-size="14.00">DiagramDialogComponent</text>
</g>
<!-- DiagramDialogComponent&#45;&gt;AppModule -->
<g id="edge13" class="edge">
<title>DiagramDialogComponent&#45;&gt;AppModule</title>
<path fill="none" stroke="black" d="M2309,-84.99C2309,-99.98 2309,-118.8 2309,-118.8 2309,-118.8 2670.13,-118.8 2670.13,-118.8"/>
<polygon fill="black" stroke="black" points="2670.13,-122.3 2680.13,-118.8 2670.13,-115.3 2670.13,-122.3"/>
</g>
<!-- EmissionItemComponent -->
<g id="node14" class="node">
<title>EmissionItemComponent</title>
<polygon fill="#ffffb3" stroke="black" points="2206.6,-84.8 2047.4,-84.8 2047.4,-48.8 2206.6,-48.8 2206.6,-84.8"/>
<text text-anchor="middle" x="2127" y="-62.6" font-family="Times,serif" font-size="14.00">EmissionItemComponent</text>
</g>
<!-- EmissionItemComponent&#45;&gt;AppModule -->
<g id="edge14" class="edge">
<title>EmissionItemComponent&#45;&gt;AppModule</title>
<path fill="none" stroke="black" d="M2127,-84.81C2127,-100.85 2127,-121.8 2127,-121.8 2127,-121.8 2670.16,-121.8 2670.16,-121.8"/>
<polygon fill="black" stroke="black" points="2670.16,-125.3 2680.16,-121.8 2670.16,-118.3 2670.16,-125.3"/>
</g>
<!-- EmissionListComponent -->
<g id="node15" class="node">
<title>EmissionListComponent</title>
<polygon fill="#ffffb3" stroke="black" points="2029.73,-84.8 1874.27,-84.8 1874.27,-48.8 2029.73,-48.8 2029.73,-84.8"/>
<text text-anchor="middle" x="1952" y="-62.6" font-family="Times,serif" font-size="14.00">EmissionListComponent</text>
</g>
<!-- EmissionListComponent&#45;&gt;AppModule -->
<g id="edge15" class="edge">
<title>EmissionListComponent&#45;&gt;AppModule</title>
<path fill="none" stroke="black" d="M1952,-84.84C1952,-101.53 1952,-123.8 1952,-123.8 1952,-123.8 2670.33,-123.8 2670.33,-123.8"/>
<polygon fill="black" stroke="black" points="2670.33,-127.3 2680.33,-123.8 2670.33,-120.3 2670.33,-127.3"/>
</g>
<!-- FactorEmissionModuleComponent -->
<g id="node16" class="node">
<title>FactorEmissionModuleComponent</title>
<polygon fill="#ffffb3" stroke="black" points="1856.27,-84.8 1643.73,-84.8 1643.73,-48.8 1856.27,-48.8 1856.27,-84.8"/>
<text text-anchor="middle" x="1750" y="-62.6" font-family="Times,serif" font-size="14.00">FactorEmissionModuleComponent</text>
</g>
<!-- FactorEmissionModuleComponent&#45;&gt;AppModule -->
<g id="edge16" class="edge">
<title>FactorEmissionModuleComponent&#45;&gt;AppModule</title>
<path fill="none" stroke="black" d="M1750,-84.82C1750,-102.17 1750,-125.8 1750,-125.8 1750,-125.8 2670.23,-125.8 2670.23,-125.8"/>
<polygon fill="black" stroke="black" points="2670.23,-129.3 2680.23,-125.8 2670.23,-122.3 2670.23,-129.3"/>
</g>
<!-- FileUploadComponent -->
<g id="node17" class="node">
<title>FileUploadComponent</title>
<polygon fill="#ffffb3" stroke="black" points="1625.32,-84.8 1480.68,-84.8 1480.68,-48.8 1625.32,-48.8 1625.32,-84.8"/>
<text text-anchor="middle" x="1553" y="-62.6" font-family="Times,serif" font-size="14.00">FileUploadComponent</text>
</g>
<!-- FileUploadComponent&#45;&gt;AppModule -->
<g id="edge17" class="edge">
<title>FileUploadComponent&#45;&gt;AppModule</title>
<path fill="none" stroke="black" d="M1553,-85.07C1553,-103.36 1553,-128.8 1553,-128.8 1553,-128.8 2670.05,-128.8 2670.05,-128.8"/>
<polygon fill="black" stroke="black" points="2670.05,-132.3 2680.05,-128.8 2670.05,-125.3 2670.05,-132.3"/>
</g>
<!-- ImportFileDialogComponent -->
<g id="node18" class="node">
<title>ImportFileDialogComponent</title>
<polygon fill="#ffffb3" stroke="black" points="1462.82,-84.8 1283.18,-84.8 1283.18,-48.8 1462.82,-48.8 1462.82,-84.8"/>
<text text-anchor="middle" x="1373" y="-62.6" font-family="Times,serif" font-size="14.00">ImportFileDialogComponent</text>
</g>
<!-- ImportFileDialogComponent&#45;&gt;AppModule -->
<g id="edge18" class="edge">
<title>ImportFileDialogComponent&#45;&gt;AppModule</title>
<path fill="none" stroke="black" d="M1373,-84.97C1373,-103.89 1373,-130.8 1373,-130.8 1373,-130.8 2670.15,-130.8 2670.15,-130.8"/>
<polygon fill="black" stroke="black" points="2670.15,-134.3 2680.15,-130.8 2670.15,-127.3 2670.15,-134.3"/>
</g>
<!-- NavigationComponent -->
<g id="node19" class="node">
<title>NavigationComponent</title>
<polygon fill="#ffffb3" stroke="black" points="1265.54,-84.8 1122.46,-84.8 1122.46,-48.8 1265.54,-48.8 1265.54,-84.8"/>
<text text-anchor="middle" x="1194" y="-62.6" font-family="Times,serif" font-size="14.00">NavigationComponent</text>
</g>
<!-- NavigationComponent&#45;&gt;AppModule -->
<g id="edge19" class="edge">
<title>NavigationComponent&#45;&gt;AppModule</title>
<path fill="none" stroke="black" d="M1194,-85.11C1194,-104.95 1194,-133.8 1194,-133.8 1194,-133.8 2669.94,-133.8 2669.94,-133.8"/>
<polygon fill="black" stroke="black" points="2669.94,-137.3 2679.94,-133.8 2669.94,-130.3 2669.94,-137.3"/>
</g>
<!-- PieDiagramComponent -->
<g id="node20" class="node">
<title>PieDiagramComponent</title>
<polygon fill="#ffffb3" stroke="black" points="1104.2,-84.8 955.8,-84.8 955.8,-48.8 1104.2,-48.8 1104.2,-84.8"/>
<text text-anchor="middle" x="1030" y="-62.6" font-family="Times,serif" font-size="14.00">PieDiagramComponent</text>
</g>
<!-- PieDiagramComponent&#45;&gt;AppModule -->
<g id="edge20" class="edge">
<title>PieDiagramComponent&#45;&gt;AppModule</title>
<path fill="none" stroke="black" d="M1030,-84.93C1030,-105.37 1030,-135.8 1030,-135.8 1030,-135.8 2670.18,-135.8 2670.18,-135.8"/>
<polygon fill="black" stroke="black" points="2670.18,-139.3 2680.18,-135.8 2670.18,-132.3 2670.18,-139.3"/>
</g>
<!-- SettingsComponent -->
<g id="node21" class="node">
<title>SettingsComponent</title>
<polygon fill="#ffffb3" stroke="black" points="938.45,-84.8 811.55,-84.8 811.55,-48.8 938.45,-48.8 938.45,-84.8"/>
<text text-anchor="middle" x="875" y="-62.6" font-family="Times,serif" font-size="14.00">SettingsComponent</text>
</g>
<!-- SettingsComponent&#45;&gt;AppModule -->
<g id="edge21" class="edge">
<title>SettingsComponent&#45;&gt;AppModule</title>
<path fill="none" stroke="black" d="M875,-85.08C875,-106.12 875,-137.8 875,-137.8 875,-137.8 2669.95,-137.8 2669.95,-137.8"/>
<polygon fill="black" stroke="black" points="2669.95,-141.3 2679.95,-137.8 2669.95,-134.3 2669.95,-141.3"/>
</g>
<!-- SpecificCalculationListComponent -->
<g id="node22" class="node">
<title>SpecificCalculationListComponent</title>
<polygon fill="#ffffb3" stroke="black" points="793.52,-84.8 580.48,-84.8 580.48,-48.8 793.52,-48.8 793.52,-84.8"/>
<text text-anchor="middle" x="687" y="-62.6" font-family="Times,serif" font-size="14.00">SpecificCalculationListComponent</text>
</g>
<!-- SpecificCalculationListComponent&#45;&gt;AppModule -->
<g id="edge22" class="edge">
<title>SpecificCalculationListComponent&#45;&gt;AppModule</title>
<path fill="none" stroke="black" d="M687,-85.09C687,-107.01 687,-140.8 687,-140.8 687,-140.8 2669.96,-140.8 2669.96,-140.8"/>
<polygon fill="black" stroke="black" points="2669.96,-144.3 2679.96,-140.8 2669.96,-137.3 2669.96,-144.3"/>
</g>
<!-- TreeDiagramComponent -->
<g id="node23" class="node">
<title>TreeDiagramComponent</title>
<polygon fill="#ffffb3" stroke="black" points="561.95,-84.8 406.05,-84.8 406.05,-48.8 561.95,-48.8 561.95,-84.8"/>
<text text-anchor="middle" x="484" y="-62.6" font-family="Times,serif" font-size="14.00">TreeDiagramComponent</text>
</g>
<!-- TreeDiagramComponent&#45;&gt;AppModule -->
<g id="edge23" class="edge">
<title>TreeDiagramComponent&#45;&gt;AppModule</title>
<path fill="none" stroke="black" d="M484,-84.81C484,-107.29 484,-142.8 484,-142.8 484,-142.8 2670.27,-142.8 2670.27,-142.8"/>
<polygon fill="black" stroke="black" points="2670.27,-146.3 2680.27,-142.8 2670.27,-139.3 2670.27,-146.3"/>
</g>
<!-- TypeEmissionModuleComponent -->
<g id="node24" class="node">
<title>TypeEmissionModuleComponent</title>
<polygon fill="#ffffb3" stroke="black" points="387.77,-84.8 182.23,-84.8 182.23,-48.8 387.77,-48.8 387.77,-84.8"/>
<text text-anchor="middle" x="285" y="-62.6" font-family="Times,serif" font-size="14.00">TypeEmissionModuleComponent</text>
</g>
<!-- TypeEmissionModuleComponent&#45;&gt;AppModule -->
<g id="edge24" class="edge">
<title>TypeEmissionModuleComponent&#45;&gt;AppModule</title>
<path fill="none" stroke="black" d="M285,-85.12C285,-108.46 285,-145.8 285,-145.8 285,-145.8 2670.21,-145.8 2670.21,-145.8"/>
<polygon fill="black" stroke="black" points="2670.21,-149.3 2680.21,-145.8 2670.21,-142.3 2670.21,-149.3"/>
</g>
<!-- TypeInputComponent -->
<g id="node25" class="node">
<title>TypeInputComponent</title>
<polygon fill="#ffffb3" stroke="black" points="163.65,-84.8 24.35,-84.8 24.35,-48.8 163.65,-48.8 163.65,-84.8"/>
<text text-anchor="middle" x="94" y="-62.6" font-family="Times,serif" font-size="14.00">TypeInputComponent</text>
</g>
<!-- TypeInputComponent&#45;&gt;AppModule -->
<g id="edge25" class="edge">
<title>TypeInputComponent&#45;&gt;AppModule</title>
<path fill="none" stroke="black" d="M94,-85.18C94,-109.08 94,-147.8 94,-147.8 94,-147.8 2670.19,-147.8 2670.19,-147.8"/>
<polygon fill="black" stroke="black" points="2670.19,-151.3 2680.19,-147.8 2670.19,-144.3 2670.19,-151.3"/>
</g>
<!-- AppRoutingModule -->
<g id="node27" class="node">
<title>AppRoutingModule</title>
<polygon fill="#8dd3c7" stroke="black" points="5536.28,-84.8 5533.28,-88.8 5512.28,-88.8 5509.28,-84.8 5407.72,-84.8 5407.72,-48.8 5536.28,-48.8 5536.28,-84.8"/>
<text text-anchor="middle" x="5472" y="-62.6" font-family="Times,serif" font-size="14.00">AppRoutingModule</text>
</g>
<!-- AppRoutingModule&#45;&gt;AppModule -->
<g id="edge26" class="edge">
<title>AppRoutingModule&#45;&gt;AppModule</title>
<path fill="none" stroke="black" d="M5472,-85.18C5472,-109.08 5472,-147.8 5472,-147.8 5472,-147.8 2773.82,-147.8 2773.82,-147.8"/>
<polygon fill="black" stroke="black" points="2773.82,-144.3 2763.82,-147.8 2773.82,-151.3 2773.82,-144.3"/>
</g>
<!-- CalculationService -->
<g id="node28" class="node">
<title>CalculationService</title>
<ellipse fill="#fdb462" stroke="black" cx="5299" cy="-66.8" rx="84.52" ry="18"/>
<text text-anchor="middle" x="5299" y="-62.6" font-family="Times,serif" font-size="14.00">CalculationService</text>
</g>
<!-- CalculationService&#45;&gt;AppModule -->
<g id="edge27" class="edge">
<title>CalculationService&#45;&gt;AppModule</title>
<path fill="none" stroke="black" d="M5299,-85.12C5299,-108.46 5299,-145.8 5299,-145.8 5299,-145.8 2773.79,-145.8 2773.79,-145.8"/>
<polygon fill="black" stroke="black" points="2773.79,-142.3 2763.79,-145.8 2773.79,-149.3 2773.79,-142.3"/>
</g>
<!-- MenuService -->
<g id="node29" class="node">
<title>MenuService</title>
<ellipse fill="#fdb462" stroke="black" cx="5134" cy="-66.8" rx="62.55" ry="18"/>
<text text-anchor="middle" x="5134" y="-62.6" font-family="Times,serif" font-size="14.00">MenuService</text>
</g>
<!-- MenuService&#45;&gt;AppModule -->
<g id="edge28" class="edge">
<title>MenuService&#45;&gt;AppModule</title>
<path fill="none" stroke="black" d="M5134,-84.81C5134,-107.29 5134,-142.8 5134,-142.8 5134,-142.8 2773.86,-142.8 2773.86,-142.8"/>
<polygon fill="black" stroke="black" points="2773.86,-139.3 2763.86,-142.8 2773.86,-146.3 2773.86,-139.3"/>
</g>
<!-- NavigationService -->
<g id="node30" class="node">
<title>NavigationService</title>
<ellipse fill="#fdb462" stroke="black" cx="4971" cy="-66.8" rx="82.81" ry="18"/>
<text text-anchor="middle" x="4971" y="-62.6" font-family="Times,serif" font-size="14.00">NavigationService</text>
</g>
<!-- NavigationService&#45;&gt;AppModule -->
<g id="edge29" class="edge">
<title>NavigationService&#45;&gt;AppModule</title>
<path fill="none" stroke="black" d="M4971,-85.09C4971,-107.01 4971,-140.8 4971,-140.8 4971,-140.8 2773.93,-140.8 2773.93,-140.8"/>
<polygon fill="black" stroke="black" points="2773.93,-137.3 2763.93,-140.8 2773.93,-144.3 2773.93,-137.3"/>
</g>
</g>
</svg>
