<?xml version="1.0" encoding="UTF-8" standalone="no"?>
<!DOCTYPE svg PUBLIC "-//W3C//DTD SVG 1.1//EN"
 "http://www.w3.org/Graphics/SVG/1.1/DTD/svg11.dtd">
<!-- Generated by graphviz version 5.0.0 (20220707.1540)
 -->
<!-- Title: dependencies Pages: 1 -->
<svg width="5875pt" height="247pt"
 viewBox="0.00 0.00 5875.00 246.80" xmlns="http://www.w3.org/2000/svg" xmlns:xlink="http://www.w3.org/1999/xlink">
<g id="graph0" class="graph" transform="scale(1 1) rotate(0) translate(4 242.8)">
<title>dependencies</title>
<polygon fill="white" stroke="transparent" points="-4,4 -4,-242.8 5871,-242.8 5871,4 -4,4"/>
<text text-anchor="middle" x="2933.5" y="-8.2" font-family="sans-serif" font-size="14.00">dependencies</text>
<g id="clust1" class="cluster">
<title>cluster_AppModule</title>
<polygon fill="none" stroke="black" stroke-dasharray="1,5" points="8,-32.8 8,-230.8 5859,-230.8 5859,-32.8 8,-32.8"/>
</g>
<g id="clust2" class="cluster">
<title>cluster_AppModule_declarations</title>
<polygon fill="none" stroke="black" points="688,-40.8 688,-92.8 5851,-92.8 5851,-40.8 688,-40.8"/>
</g>
<g id="clust30" class="cluster">
<title>cluster_AppModule_imports</title>
<polygon fill="none" stroke="black" points="536,-40.8 536,-92.8 680,-92.8 680,-40.8 536,-40.8"/>
</g>
<g id="clust32" class="cluster">
<title>cluster_AppModule_bootstrap</title>
<polygon fill="none" stroke="black" points="2745,-170.8 2745,-222.8 2869,-222.8 2869,-170.8 2745,-170.8"/>
</g>
<g id="clust33" class="cluster">
<title>cluster_AppModule_providers</title>
<polygon fill="none" stroke="black" points="16,-40.8 16,-92.8 528,-92.8 528,-40.8 16,-40.8"/>
</g>
<!-- AppComponent -->
<g id="node1" class="node">
<title>AppComponent</title>
<polygon fill="#ffffb3" stroke="black" points="5842.94,-84.8 5737.06,-84.8 5737.06,-48.8 5842.94,-48.8 5842.94,-84.8"/>
<text text-anchor="middle" x="5790" y="-62.6" font-family="Times,serif" font-size="14.00">AppComponent</text>
</g>
<!-- AppModule -->
<g id="node28" class="node">
<title>AppModule</title>
<polygon fill="#8dd3c7" stroke="black" points="2848.66,-149.8 2845.66,-153.8 2824.66,-153.8 2821.66,-149.8 2765.34,-149.8 2765.34,-113.8 2848.66,-113.8 2848.66,-149.8"/>
<text text-anchor="middle" x="2807" y="-127.6" font-family="Times,serif" font-size="14.00">AppModule</text>
</g>
<!-- AppComponent&#45;&gt;AppModule -->
<g id="edge1" class="edge">
<title>AppComponent&#45;&gt;AppModule</title>
<path fill="none" stroke="black" d="M5790,-85.18C5790,-109.08 5790,-147.8 5790,-147.8 5790,-147.8 2858.88,-147.8 2858.88,-147.8"/>
<polygon fill="black" stroke="black" points="2858.88,-144.3 2848.88,-147.8 2858.88,-151.3 2858.88,-144.3"/>
</g>
<!-- BarDiagramBothComponent -->
<g id="node2" class="node">
<title>BarDiagramBothComponent</title>
<polygon fill="#ffffb3" stroke="black" points="5718.75,-84.8 5541.25,-84.8 5541.25,-48.8 5718.75,-48.8 5718.75,-84.8"/>
<text text-anchor="middle" x="5630" y="-62.6" font-family="Times,serif" font-size="14.00">BarDiagramBothComponent</text>
</g>
<!-- BarDiagramBothComponent&#45;&gt;AppModule -->
<g id="edge2" class="edge">
<title>BarDiagramBothComponent&#45;&gt;AppModule</title>
<path fill="none" stroke="black" d="M5630,-85.12C5630,-108.46 5630,-145.8 5630,-145.8 5630,-145.8 2858.82,-145.8 2858.82,-145.8"/>
<polygon fill="black" stroke="black" points="2858.82,-142.3 2848.82,-145.8 2858.82,-149.3 2858.82,-142.3"/>
</g>
<!-- BarDiagramCompareComponent -->
<g id="node3" class="node">
<title>BarDiagramCompareComponent</title>
<polygon fill="#ffffb3" stroke="black" points="5522.84,-84.8 5321.16,-84.8 5321.16,-48.8 5522.84,-48.8 5522.84,-84.8"/>
<text text-anchor="middle" x="5422" y="-62.6" font-family="Times,serif" font-size="14.00">BarDiagramCompareComponent</text>
</g>
<!-- BarDiagramCompareComponent&#45;&gt;AppModule -->
<g id="edge3" class="edge">
<title>BarDiagramCompareComponent&#45;&gt;AppModule</title>
<path fill="none" stroke="black" d="M5422,-85.05C5422,-107.82 5422,-143.8 5422,-143.8 5422,-143.8 2858.87,-143.8 2858.87,-143.8"/>
<polygon fill="black" stroke="black" points="2858.87,-140.3 2848.87,-143.8 2858.87,-147.3 2858.87,-140.3"/>
</g>
<!-- BarDiagramComponent -->
<g id="node4" class="node">
<title>BarDiagramComponent</title>
<polygon fill="#ffffb3" stroke="black" points="5303.03,-84.8 5152.97,-84.8 5152.97,-48.8 5303.03,-48.8 5303.03,-84.8"/>
<text text-anchor="middle" x="5228" y="-62.6" font-family="Times,serif" font-size="14.00">BarDiagramComponent</text>
</g>
<!-- BarDiagramComponent&#45;&gt;AppModule -->
<g id="edge4" class="edge">
<title>BarDiagramComponent&#45;&gt;AppModule</title>
<path fill="none" stroke="black" d="M5228,-85.09C5228,-107.01 5228,-140.8 5228,-140.8 5228,-140.8 2858.77,-140.8 2858.77,-140.8"/>
<polygon fill="black" stroke="black" points="2858.77,-137.3 2848.77,-140.8 2858.77,-144.3 2858.77,-137.3"/>
</g>
<!-- CalculationCardComponent -->
<g id="node5" class="node">
<title>CalculationCardComponent</title>
<polygon fill="#ffffb3" stroke="black" points="5134.58,-84.8 4961.42,-84.8 4961.42,-48.8 5134.58,-48.8 5134.58,-84.8"/>
<text text-anchor="middle" x="5048" y="-62.6" font-family="Times,serif" font-size="14.00">CalculationCardComponent</text>
</g>
<!-- CalculationCardComponent&#45;&gt;AppModule -->
<g id="edge5" class="edge">
<title>CalculationCardComponent&#45;&gt;AppModule</title>
<path fill="none" stroke="black" d="M5048,-84.97C5048,-106.3 5048,-138.8 5048,-138.8 5048,-138.8 2858.78,-138.8 2858.78,-138.8"/>
<polygon fill="black" stroke="black" points="2858.78,-135.3 2848.78,-138.8 2858.78,-142.3 2858.78,-135.3"/>
</g>
<!-- CalculationDiagramCompareComponent -->
<g id="node6" class="node">
<title>CalculationDiagramCompareComponent</title>
<polygon fill="#ffffb3" stroke="black" points="4943.17,-84.8 4696.83,-84.8 4696.83,-48.8 4943.17,-48.8 4943.17,-84.8"/>
<text text-anchor="middle" x="4820" y="-62.6" font-family="Times,serif" font-size="14.00">CalculationDiagramCompareComponent</text>
</g>
<!-- CalculationDiagramCompareComponent&#45;&gt;AppModule -->
<g id="edge6" class="edge">
<title>CalculationDiagramCompareComponent&#45;&gt;AppModule</title>
<path fill="none" stroke="black" d="M4820,-84.83C4820,-105.57 4820,-136.8 4820,-136.8 4820,-136.8 2859.04,-136.8 2859.04,-136.8"/>
<polygon fill="black" stroke="black" points="2859.04,-133.3 2849.04,-136.8 2859.04,-140.3 2859.04,-133.3"/>
</g>
<!-- CalculationDiagramComponent -->
<g id="node7" class="node">
<title>CalculationDiagramComponent</title>
<polygon fill="#ffffb3" stroke="black" points="4678.35,-84.8 4483.65,-84.8 4483.65,-48.8 4678.35,-48.8 4678.35,-84.8"/>
<text text-anchor="middle" x="4581" y="-62.6" font-family="Times,serif" font-size="14.00">CalculationDiagramComponent</text>
</g>
<!-- CalculationDiagramComponent&#45;&gt;AppModule -->
<g id="edge7" class="edge">
<title>CalculationDiagramComponent&#45;&gt;AppModule</title>
<path fill="none" stroke="black" d="M4581,-85.02C4581,-105.17 4581,-134.8 4581,-134.8 4581,-134.8 2858.67,-134.8 2858.67,-134.8"/>
<polygon fill="black" stroke="black" points="2858.67,-131.3 2848.67,-134.8 2858.67,-138.3 2858.67,-131.3"/>
</g>
<!-- CalculationListComponent -->
<g id="node8" class="node">
<title>CalculationListComponent</title>
<polygon fill="#ffffb3" stroke="black" points="4465.65,-84.8 4298.35,-84.8 4298.35,-48.8 4465.65,-48.8 4465.65,-84.8"/>
<text text-anchor="middle" x="4382" y="-62.6" font-family="Times,serif" font-size="14.00">CalculationListComponent</text>
</g>
<!-- CalculationListComponent&#45;&gt;AppModule -->
<g id="edge8" class="edge">
<title>CalculationListComponent&#45;&gt;AppModule</title>
<path fill="none" stroke="black" d="M4382,-84.91C4382,-104.14 4382,-131.8 4382,-131.8 4382,-131.8 2858.72,-131.8 2858.72,-131.8"/>
<polygon fill="black" stroke="black" points="2858.72,-128.3 2848.72,-131.8 2858.72,-135.3 2858.72,-128.3"/>
</g>
<!-- CalculationSelectCompareComponent -->
<g id="node9" class="node">
<title>CalculationSelectCompareComponent</title>
<polygon fill="#ffffb3" stroke="black" points="4279.89,-84.8 4048.11,-84.8 4048.11,-48.8 4279.89,-48.8 4279.89,-84.8"/>
<text text-anchor="middle" x="4164" y="-62.6" font-family="Times,serif" font-size="14.00">CalculationSelectCompareComponent</text>
</g>
<!-- CalculationSelectCompareComponent&#45;&gt;AppModule -->
<g id="edge9" class="edge">
<title>CalculationSelectCompareComponent&#45;&gt;AppModule</title>
<path fill="none" stroke="black" d="M4164,-85.02C4164,-103.63 4164,-129.8 4164,-129.8 4164,-129.8 2858.73,-129.8 2858.73,-129.8"/>
<polygon fill="black" stroke="black" points="2858.73,-126.3 2848.73,-129.8 2858.73,-133.3 2858.73,-126.3"/>
</g>
<!-- CreateCalculationComponent -->
<g id="node10" class="node">
<title>CreateCalculationComponent</title>
<polygon fill="#ffffb3" stroke="black" points="4030.4,-84.8 3847.6,-84.8 3847.6,-48.8 4030.4,-48.8 4030.4,-84.8"/>
<text text-anchor="middle" x="3939" y="-62.6" font-family="Times,serif" font-size="14.00">CreateCalculationComponent</text>
</g>
<!-- CreateCalculationComponent&#45;&gt;AppModule -->
<g id="edge10" class="edge">
<title>CreateCalculationComponent&#45;&gt;AppModule</title>
<path fill="none" stroke="black" d="M3939,-85.1C3939,-103.07 3939,-127.8 3939,-127.8 3939,-127.8 2858.97,-127.8 2858.97,-127.8"/>
<polygon fill="black" stroke="black" points="2858.97,-124.3 2848.97,-127.8 2858.97,-131.3 2858.97,-124.3"/>
</g>
<!-- CreateModuleComponent -->
<g id="node11" class="node">
<title>CreateModuleComponent</title>
<polygon fill="#ffffb3" stroke="black" points="3829.91,-84.8 3668.09,-84.8 3668.09,-48.8 3829.91,-48.8 3829.91,-84.8"/>
<text text-anchor="middle" x="3749" y="-62.6" font-family="Times,serif" font-size="14.00">CreateModuleComponent</text>
</g>
<!-- CreateModuleComponent&#45;&gt;AppModule -->
<g id="edge11" class="edge">
<title>CreateModuleComponent&#45;&gt;AppModule</title>
<path fill="none" stroke="black" d="M3749,-84.82C3749,-102.17 3749,-125.8 3749,-125.8 3749,-125.8 2858.69,-125.8 2858.69,-125.8"/>
<polygon fill="black" stroke="black" points="2858.69,-122.3 2848.69,-125.8 2858.69,-129.3 2858.69,-122.3"/>
</g>
<!-- CreateTypeComponent -->
<g id="node12" class="node">
<title>CreateTypeComponent</title>
<polygon fill="#ffffb3" stroke="black" points="3650.13,-84.8 3503.87,-84.8 3503.87,-48.8 3650.13,-48.8 3650.13,-84.8"/>
<text text-anchor="middle" x="3577" y="-62.6" font-family="Times,serif" font-size="14.00">CreateTypeComponent</text>
</g>
<!-- CreateTypeComponent&#45;&gt;AppModule -->
<g id="edge12" class="edge">
<title>CreateTypeComponent&#45;&gt;AppModule</title>
<path fill="none" stroke="black" d="M3577,-84.83C3577,-101.2 3577,-122.8 3577,-122.8 3577,-122.8 2858.67,-122.8 2858.67,-122.8"/>
<polygon fill="black" stroke="black" points="2858.67,-119.3 2848.67,-122.8 2858.67,-126.3 2858.67,-119.3"/>
</g>
<!-- DiagramCompareDialogComponent -->
<g id="node13" class="node">
<title>DiagramCompareDialogComponent</title>
<polygon fill="#ffffb3" stroke="black" points="3485.73,-84.8 3266.27,-84.8 3266.27,-48.8 3485.73,-48.8 3485.73,-84.8"/>
<text text-anchor="middle" x="3376" y="-62.6" font-family="Times,serif" font-size="14.00">DiagramCompareDialogComponent</text>
</g>
<!-- DiagramCompareDialogComponent&#45;&gt;AppModule -->
<g id="edge13" class="edge">
<title>DiagramCompareDialogComponent&#45;&gt;AppModule</title>
<path fill="none" stroke="black" d="M3376,-85.08C3376,-100.75 3376,-120.8 3376,-120.8 3376,-120.8 2858.84,-120.8 2858.84,-120.8"/>
<polygon fill="black" stroke="black" points="2858.84,-117.3 2848.84,-120.8 2858.84,-124.3 2858.84,-117.3"/>
</g>
<!-- DiagramDialogComponent -->
<g id="node14" class="node">
<title>DiagramDialogComponent</title>
<polygon fill="#ffffb3" stroke="black" points="3248.41,-84.8 3079.59,-84.8 3079.59,-48.8 3248.41,-48.8 3248.41,-84.8"/>
<text text-anchor="middle" x="3164" y="-62.6" font-family="Times,serif" font-size="14.00">DiagramDialogComponent</text>
</g>
<!-- DiagramDialogComponent&#45;&gt;AppModule -->
<g id="edge14" class="edge">
<title>DiagramDialogComponent&#45;&gt;AppModule</title>
<path fill="none" stroke="black" d="M3164,-84.99C3164,-99.98 3164,-118.8 3164,-118.8 3164,-118.8 2859,-118.8 2859,-118.8"/>
<polygon fill="black" stroke="black" points="2859,-115.3 2849,-118.8 2859,-122.3 2859,-115.3"/>
</g>
<!-- EmissionItemComponent -->
<g id="node15" class="node">
<title>EmissionItemComponent</title>
<polygon fill="#ffffb3" stroke="black" points="3061.6,-84.8 2902.4,-84.8 2902.4,-48.8 3061.6,-48.8 3061.6,-84.8"/>
<text text-anchor="middle" x="2982" y="-62.6" font-family="Times,serif" font-size="14.00">EmissionItemComponent</text>
</g>
<!-- EmissionItemComponent&#45;&gt;AppModule -->
<g id="edge15" class="edge">
<title>EmissionItemComponent&#45;&gt;AppModule</title>
<path fill="none" stroke="black" d="M2982,-84.85C2982,-99.17 2982,-116.8 2982,-116.8 2982,-116.8 2858.92,-116.8 2858.92,-116.8"/>
<polygon fill="black" stroke="black" points="2858.92,-113.3 2848.92,-116.8 2858.92,-120.3 2858.92,-113.3"/>
</g>
<!-- EmissionListComponent -->
<g id="node16" class="node">
<title>EmissionListComponent</title>
<polygon fill="#ffffb3" stroke="black" points="2884.73,-84.8 2729.27,-84.8 2729.27,-48.8 2884.73,-48.8 2884.73,-84.8"/>
<text text-anchor="middle" x="2807" y="-62.6" font-family="Times,serif" font-size="14.00">EmissionListComponent</text>
</g>
<!-- EmissionListComponent&#45;&gt;AppModule -->
<g id="edge16" class="edge">
<title>EmissionListComponent&#45;&gt;AppModule</title>
<path fill="none" stroke="black" d="M2807,-84.91C2807,-84.91 2807,-103.79 2807,-103.79"/>
<polygon fill="black" stroke="black" points="2803.5,-103.79 2807,-113.79 2810.5,-103.79 2803.5,-103.79"/>
</g>
<!-- FactorEmissionModuleComponent -->
<g id="node17" class="node">
<title>FactorEmissionModuleComponent</title>
<polygon fill="#ffffb3" stroke="black" points="2711.27,-84.8 2498.73,-84.8 2498.73,-48.8 2711.27,-48.8 2711.27,-84.8"/>
<text text-anchor="middle" x="2605" y="-62.6" font-family="Times,serif" font-size="14.00">FactorEmissionModuleComponent</text>
</g>
<!-- FactorEmissionModuleComponent&#45;&gt;AppModule -->
<g id="edge17" class="edge">
<title>FactorEmissionModuleComponent&#45;&gt;AppModule</title>
<path fill="none" stroke="black" d="M2605,-84.85C2605,-99.17 2605,-116.8 2605,-116.8 2605,-116.8 2755.15,-116.8 2755.15,-116.8"/>
<polygon fill="black" stroke="black" points="2755.15,-120.3 2765.15,-116.8 2755.15,-113.3 2755.15,-120.3"/>
</g>
<!-- FileUploadComponent -->
<g id="node18" class="node">
<title>FileUploadComponent</title>
<polygon fill="#ffffb3" stroke="black" points="2480.32,-84.8 2335.68,-84.8 2335.68,-48.8 2480.32,-48.8 2480.32,-84.8"/>
<text text-anchor="middle" x="2408" y="-62.6" font-family="Times,serif" font-size="14.00">FileUploadComponent</text>
</g>
<!-- FileUploadComponent&#45;&gt;AppModule -->
<g id="edge18" class="edge">
<title>FileUploadComponent&#45;&gt;AppModule</title>
<path fill="none" stroke="black" d="M2408,-84.99C2408,-99.98 2408,-118.8 2408,-118.8 2408,-118.8 2755.05,-118.8 2755.05,-118.8"/>
<polygon fill="black" stroke="black" points="2755.05,-122.3 2765.05,-118.8 2755.05,-115.3 2755.05,-122.3"/>
</g>
<!-- ImportFileDialogComponent -->
<g id="node19" class="node">
<title>ImportFileDialogComponent</title>
<polygon fill="#ffffb3" stroke="black" points="2317.82,-84.8 2138.18,-84.8 2138.18,-48.8 2317.82,-48.8 2317.82,-84.8"/>
<text text-anchor="middle" x="2228" y="-62.6" font-family="Times,serif" font-size="14.00">ImportFileDialogComponent</text>
</g>
<!-- ImportFileDialogComponent&#45;&gt;AppModule -->
<g id="edge19" class="edge">
<title>ImportFileDialogComponent&#45;&gt;AppModule</title>
<path fill="none" stroke="black" d="M2228,-85.08C2228,-100.75 2228,-120.8 2228,-120.8 2228,-120.8 2754.89,-120.8 2754.89,-120.8"/>
<polygon fill="black" stroke="black" points="2754.89,-124.3 2764.89,-120.8 2754.89,-117.3 2754.89,-124.3"/>
</g>
<!-- KonamiDialogComponent -->
<g id="node20" class="node">
<title>KonamiDialogComponent</title>
<polygon fill="#ffffb3" stroke="black" points="2120.04,-84.8 1955.96,-84.8 1955.96,-48.8 2120.04,-48.8 2120.04,-84.8"/>
<text text-anchor="middle" x="2038" y="-62.6" font-family="Times,serif" font-size="14.00">KonamiDialogComponent</text>
</g>
<!-- KonamiDialogComponent&#45;&gt;AppModule -->
<g id="edge20" class="edge">
<title>KonamiDialogComponent&#45;&gt;AppModule</title>
<path fill="none" stroke="black" d="M2038,-84.83C2038,-101.2 2038,-122.8 2038,-122.8 2038,-122.8 2755.11,-122.8 2755.11,-122.8"/>
<polygon fill="black" stroke="black" points="2755.11,-126.3 2765.11,-122.8 2755.11,-119.3 2755.11,-126.3"/>
</g>
<!-- NavigationComponent -->
<g id="node21" class="node">
<title>NavigationComponent</title>
<polygon fill="#ffffb3" stroke="black" points="1937.54,-84.8 1794.46,-84.8 1794.46,-48.8 1937.54,-48.8 1937.54,-84.8"/>
<text text-anchor="middle" x="1866" y="-62.6" font-family="Times,serif" font-size="14.00">NavigationComponent</text>
</g>
<!-- NavigationComponent&#45;&gt;AppModule -->
<g id="edge21" class="edge">
<title>NavigationComponent&#45;&gt;AppModule</title>
<path fill="none" stroke="black" d="M1866,-84.82C1866,-102.17 1866,-125.8 1866,-125.8 1866,-125.8 2755.05,-125.8 2755.05,-125.8"/>
<polygon fill="black" stroke="black" points="2755.05,-129.3 2765.05,-125.8 2755.05,-122.3 2755.05,-129.3"/>
</g>
<!-- PieDiagramComponent -->
<g id="node22" class="node">
<title>PieDiagramComponent</title>
<polygon fill="#ffffb3" stroke="black" points="1776.2,-84.8 1627.8,-84.8 1627.8,-48.8 1776.2,-48.8 1776.2,-84.8"/>
<text text-anchor="middle" x="1702" y="-62.6" font-family="Times,serif" font-size="14.00">PieDiagramComponent</text>
</g>
<!-- PieDiagramComponent&#45;&gt;AppModule -->
<g id="edge22" class="edge">
<title>PieDiagramComponent&#45;&gt;AppModule</title>
<path fill="none" stroke="black" d="M1702,-85.1C1702,-103.07 1702,-127.8 1702,-127.8 1702,-127.8 2755.03,-127.8 2755.03,-127.8"/>
<polygon fill="black" stroke="black" points="2755.03,-131.3 2765.03,-127.8 2755.03,-124.3 2755.03,-131.3"/>
</g>
<!-- SettingsComponent -->
<g id="node23" class="node">
<title>SettingsComponent</title>
<polygon fill="#ffffb3" stroke="black" points="1610.45,-84.8 1483.55,-84.8 1483.55,-48.8 1610.45,-48.8 1610.45,-84.8"/>
<text text-anchor="middle" x="1547" y="-62.6" font-family="Times,serif" font-size="14.00">SettingsComponent</text>
</g>
<!-- SettingsComponent&#45;&gt;AppModule -->
<g id="edge23" class="edge">
<title>SettingsComponent&#45;&gt;AppModule</title>
<path fill="none" stroke="black" d="M1547,-85.02C1547,-103.63 1547,-129.8 1547,-129.8 1547,-129.8 2755.08,-129.8 2755.08,-129.8"/>
<polygon fill="black" stroke="black" points="2755.08,-133.3 2765.08,-129.8 2755.08,-126.3 2755.08,-133.3"/>
</g>
<!-- SpecificCalculationListComponent -->
<g id="node24" class="node">
<title>SpecificCalculationListComponent</title>
<polygon fill="#ffffb3" stroke="black" points="1465.52,-84.8 1252.48,-84.8 1252.48,-48.8 1465.52,-48.8 1465.52,-84.8"/>
<text text-anchor="middle" x="1359" y="-62.6" font-family="Times,serif" font-size="14.00">SpecificCalculationListComponent</text>
</g>
<!-- SpecificCalculationListComponent&#45;&gt;AppModule -->
<g id="edge24" class="edge">
<title>SpecificCalculationListComponent&#45;&gt;AppModule</title>
<path fill="none" stroke="black" d="M1359,-84.91C1359,-104.14 1359,-131.8 1359,-131.8 1359,-131.8 2755.23,-131.8 2755.23,-131.8"/>
<polygon fill="black" stroke="black" points="2755.23,-135.3 2765.23,-131.8 2755.23,-128.3 2755.23,-135.3"/>
</g>
<!-- TreeDiagramComponent -->
<g id="node25" class="node">
<title>TreeDiagramComponent</title>
<polygon fill="#ffffb3" stroke="black" points="1233.95,-84.8 1078.05,-84.8 1078.05,-48.8 1233.95,-48.8 1233.95,-84.8"/>
<text text-anchor="middle" x="1156" y="-62.6" font-family="Times,serif" font-size="14.00">TreeDiagramComponent</text>
</g>
<!-- TreeDiagramComponent&#45;&gt;AppModule -->
<g id="edge25" class="edge">
<title>TreeDiagramComponent&#45;&gt;AppModule</title>
<path fill="none" stroke="black" d="M1156,-85.02C1156,-105.17 1156,-134.8 1156,-134.8 1156,-134.8 2754.95,-134.8 2754.95,-134.8"/>
<polygon fill="black" stroke="black" points="2754.95,-138.3 2764.95,-134.8 2754.95,-131.3 2754.95,-138.3"/>
</g>
<!-- TypeEmissionModuleComponent -->
<g id="node26" class="node">
<title>TypeEmissionModuleComponent</title>
<polygon fill="#ffffb3" stroke="black" points="1059.77,-84.8 854.23,-84.8 854.23,-48.8 1059.77,-48.8 1059.77,-84.8"/>
<text text-anchor="middle" x="957" y="-62.6" font-family="Times,serif" font-size="14.00">TypeEmissionModuleComponent</text>
</g>
<!-- TypeEmissionModuleComponent&#45;&gt;AppModule -->
<g id="edge26" class="edge">
<title>TypeEmissionModuleComponent&#45;&gt;AppModule</title>
<path fill="none" stroke="black" d="M957,-84.83C957,-105.57 957,-136.8 957,-136.8 957,-136.8 2755.33,-136.8 2755.33,-136.8"/>
<polygon fill="black" stroke="black" points="2755.33,-140.3 2765.33,-136.8 2755.33,-133.3 2755.33,-140.3"/>
</g>
<!-- TypeInputComponent -->
<g id="node27" class="node">
<title>TypeInputComponent</title>
<polygon fill="#ffffb3" stroke="black" points="835.65,-84.8 696.35,-84.8 696.35,-48.8 835.65,-48.8 835.65,-84.8"/>
<text text-anchor="middle" x="766" y="-62.6" font-family="Times,serif" font-size="14.00">TypeInputComponent</text>
</g>
<!-- TypeInputComponent&#45;&gt;AppModule -->
<g id="edge27" class="edge">
<title>TypeInputComponent&#45;&gt;AppModule</title>
<path fill="none" stroke="black" d="M766,-84.97C766,-106.3 766,-138.8 766,-138.8 766,-138.8 2755.31,-138.8 2755.31,-138.8"/>
<polygon fill="black" stroke="black" points="2755.31,-142.3 2765.31,-138.8 2755.31,-135.3 2755.31,-142.3"/>
</g>
<!-- AppComponent  -->
<g id="node30" class="node">
<title>AppComponent </title>
<polygon fill="#80b1d3" stroke="black" points="2861.44,-214.8 2752.56,-214.8 2752.56,-178.8 2861.44,-178.8 2861.44,-214.8"/>
<text text-anchor="middle" x="2807" y="-192.6" font-family="Times,serif" font-size="14.00">AppComponent </text>
</g>
<!-- AppModule&#45;&gt;AppComponent  -->
<g id="edge29" class="edge">
<title>AppModule&#45;&gt;AppComponent </title>
<path fill="none" stroke="black" stroke-dasharray="1,5" d="M2807,-149.91C2807,-149.91 2807,-168.79 2807,-168.79"/>
<polygon fill="black" stroke="black" points="2803.5,-168.79 2807,-178.79 2810.5,-168.79 2803.5,-168.79"/>
</g>
<!-- AppRoutingModule -->
<g id="node29" class="node">
<title>AppRoutingModule</title>
<polygon fill="#8dd3c7" stroke="black" points="672.28,-84.8 669.28,-88.8 648.28,-88.8 645.28,-84.8 543.72,-84.8 543.72,-48.8 672.28,-48.8 672.28,-84.8"/>
<text text-anchor="middle" x="608" y="-62.6" font-family="Times,serif" font-size="14.00">AppRoutingModule</text>
</g>
<!-- AppRoutingModule&#45;&gt;AppModule -->
<g id="edge28" class="edge">
<title>AppRoutingModule&#45;&gt;AppModule</title>
<path fill="none" stroke="black" d="M608,-85.09C608,-107.01 608,-140.8 608,-140.8 608,-140.8 2755.04,-140.8 2755.04,-140.8"/>
<polygon fill="black" stroke="black" points="2755.04,-144.3 2765.04,-140.8 2755.04,-137.3 2755.04,-144.3"/>
</g>
<!-- CalculationService -->
<g id="node31" class="node">
<title>CalculationService</title>
<ellipse fill="#fdb462" stroke="black" cx="435" cy="-66.8" rx="84.52" ry="18"/>
<text text-anchor="middle" x="435" y="-62.6" font-family="Times,serif" font-size="14.00">CalculationService</text>
</g>
<!-- CalculationService&#45;&gt;AppModule -->
<g id="edge30" class="edge">
<title>CalculationService&#45;&gt;AppModule</title>
<path fill="none" stroke="black" d="M435,-85.05C435,-107.82 435,-143.8 435,-143.8 435,-143.8 2755.33,-143.8 2755.33,-143.8"/>
<polygon fill="black" stroke="black" points="2755.33,-147.3 2765.33,-143.8 2755.33,-140.3 2755.33,-147.3"/>
</g>
<!-- MenuService -->
<g id="node32" class="node">
<title>MenuService</title>
<ellipse fill="#fdb462" stroke="black" cx="270" cy="-66.8" rx="62.55" ry="18"/>
<text text-anchor="middle" x="270" y="-62.6" font-family="Times,serif" font-size="14.00">MenuService</text>
</g>
<!-- MenuService&#45;&gt;AppModule -->
<g id="edge31" class="edge">
<title>MenuService&#45;&gt;AppModule</title>
<path fill="none" stroke="black" d="M270,-85.12C270,-108.46 270,-145.8 270,-145.8 270,-145.8 2755.08,-145.8 2755.08,-145.8"/>
<polygon fill="black" stroke="black" points="2755.08,-149.3 2765.08,-145.8 2755.08,-142.3 2755.08,-149.3"/>
</g>
<!-- NavigationService -->
<g id="node33" class="node">
<title>NavigationService</title>
<ellipse fill="#fdb462" stroke="black" cx="107" cy="-66.8" rx="82.81" ry="18"/>
<text text-anchor="middle" x="107" y="-62.6" font-family="Times,serif" font-size="14.00">NavigationService</text>
</g>
<!-- NavigationService&#45;&gt;AppModule -->
<g id="edge32" class="edge">
<title>NavigationService&#45;&gt;AppModule</title>
<path fill="none" stroke="black" d="M107,-85.18C107,-109.08 107,-147.8 107,-147.8 107,-147.8 2755.13,-147.8 2755.13,-147.8"/>
<polygon fill="black" stroke="black" points="2755.13,-151.3 2765.13,-147.8 2755.13,-144.3 2755.13,-151.3"/>
</g>
</g>
</svg>
